<svg width="116" height="110" viewBox="0 0 116 110" fill="none" xmlns="http://www.w3.org/2000/svg">
<path d="M30.7012 43.3181C30.419 45.834 30.394 49.2547 31.3234 52.4966C32.6835 57.2409 39.586 57.6254 43.0901 57.2096C40.3271 59.6823 33.9844 64.9528 30.7178 66.2532C26.6345 67.8788 21.9789 62.9744 22.7945 63.3255C23.61 63.6766 29.2056 64.1521 25.5923 63.5632C21.9789 62.9744 17.7934 55.8555 19.0734 57.3733C19.8874 58.3385 21.1491 58.9263 22.0031 59.2054C19.6305 58.0807 18.7499 51.4677 18.9657 52.01C19.0817 52.3012 20.3003 53.6697 21.2019 54.6618C20.5478 53.7923 20.1756 52.6642 19.9809 51.5342C19.7808 50.3729 21.8538 50.7771 21.4179 49.6822C20.4891 47.3489 23.0602 43.6222 22.709 44.4378C22.3579 45.2533 24.6801 51.0866 23.8701 47.3544C23.3643 45.0235 24.4823 43.2542 25.5153 42.2768C25.786 42.0207 26.1557 42.2809 26.0583 42.6405C25.9397 43.078 26.5105 43.3594 26.7853 42.999L27.0666 42.6301C27.2934 42.3328 27.7676 42.4781 27.7889 42.8513C27.8088 43.1983 28.2292 43.3589 28.4753 43.1136L29.1038 42.4871C29.6848 41.9081 30.7926 42.5029 30.7012 43.3181Z" fill="#B57626"/>
<path d="M43.3244 57.1799C43.2482 57.1902 43.17 57.2001 43.0901 57.2096M43.0901 57.2096C39.586 57.6254 32.6835 57.2409 31.3234 52.4966C30.394 49.2547 30.419 45.834 30.7012 43.3181C30.7926 42.5029 29.6848 41.9081 29.1038 42.4871L28.4753 43.1136C28.2292 43.3589 27.8088 43.1983 27.7889 42.8513C27.7676 42.4781 27.2934 42.3328 27.0666 42.6301L26.7853 42.999C26.5105 43.3594 25.9397 43.078 26.0583 42.6405C26.1557 42.2809 25.786 42.0207 25.5153 42.2768C24.4823 43.2542 23.3643 45.0235 23.8701 47.3544C24.6801 51.0866 22.3579 45.2533 22.709 44.4378C23.0602 43.6222 20.4891 47.3489 21.4179 49.6822C21.8538 50.7771 19.7808 50.3729 19.9809 51.5342C20.2057 52.8388 20.6671 54.1409 21.5257 55.0455C23.8535 57.4977 19.1979 52.5933 18.9657 52.01C18.7335 51.4266 19.7702 59.1232 22.5679 59.361C21.8298 59.2044 20.0974 58.5875 19.0734 57.3733C17.7934 55.8555 21.9789 62.9744 25.5923 63.5632C29.2056 64.1521 23.61 63.6766 22.7945 63.3255C21.9789 62.9744 26.6345 67.8788 30.7178 66.2532C33.9844 64.9528 40.3271 59.6823 43.0901 57.2096Z" stroke="#B57626"/>
<path d="M43.2799 84.2288C42.2914 83.0567 42.4883 79.8006 42.5224 78.1096C42.5351 77.4802 42.6686 76.7993 42.9968 76.2621L45.011 72.9652C45.4531 72.2416 46.3035 71.8754 47.133 72.0515L53.5595 73.4155C54.2136 73.5543 54.7614 74.0135 54.8592 74.675C55.0281 75.8162 55.031 77.6257 54.3632 79.8165C53.191 83.6621 48.0599 84.3532 46.7743 86.2165C45.8913 87.4964 46.9492 89.7308 47.8552 91.1006C48.117 91.4964 48.7422 91.623 48.873 92.0792C48.9701 92.418 48.4709 92.9747 46.412 93.7943C43.3946 94.9955 42.5384 92.6456 42.458 91.0243C42.4454 90.7701 42.5059 90.5209 42.6005 90.2847C43.3004 88.5384 44.2348 85.3611 43.2799 84.2288Z" fill="#B57626" stroke="#B57626"/>
<path d="M89.5006 51.7323C88.2164 50.6867 84.9194 49.6765 82.5372 49.0772C81.6231 48.8472 80.6897 49.3243 80.3043 50.1845L79.1265 52.8132C78.6801 53.8097 79.1154 54.9801 80.1046 55.4426L84.7131 57.5975C87.14 58.3952 92.4882 61.5833 95.2019 60.1797C98.5941 58.4251 96.9014 59.5252 99.0385 57.1415C101.176 54.7578 95.7408 54.3595 94.8619 54.2331C93.9831 54.1066 91.5081 53.3668 89.5006 51.7323Z" fill="#B57626" stroke="#B57626"/>
<path d="M56.2079 21.641C57.7254 18.9737 64.4485 22.6838 68.0625 25.1613C68.3901 25.386 68.7713 25.5174 69.1685 25.5104C70.8787 25.4804 73.5447 25.1577 74.0422 24.0022L76.8509 17.4783C77.202 16.6627 78.1843 15.0551 79.3034 15.1502C80.2707 15.2325 80.9578 16.1335 81.2763 16.7529C81.3652 16.926 81.408 17.1163 81.4235 17.3103C81.5227 18.5513 81.6119 20.3757 81.5551 21.9048C81.5043 23.269 82.3684 25.1136 83.4623 25.9301C84.1138 26.4164 84.7059 27.0236 84.9955 27.751C85.4814 28.9716 86.4766 29.75 87.0838 30.0845C87.2395 30.1702 87.4127 30.2161 87.5886 30.2409L91.186 30.7491C91.8966 30.8495 92.5256 31.3327 92.5144 32.0503C92.4992 33.0176 92.1205 34.3303 90.8125 35.5721C90.198 36.1554 89.0049 36.6721 87.5422 37.0947C87.7031 37.1883 87.8535 37.2946 87.9827 37.4197C89.0252 38.4296 90.7703 40.8449 89.9854 41.983C89.5045 42.6801 88.3247 43.1801 87.0028 43.5288C87.6179 43.6826 88.1341 44.1236 88.3752 44.7294L89.5098 47.5792C89.967 48.728 90.1786 50.357 90.2566 51.9372C90.296 52.7441 88.5029 51.8404 88.8015 52.5911C89.1031 53.3487 88.3463 56.6655 87.695 59.1133C87.4571 60.0074 87.8545 60.9337 88.731 61.2298C90.1637 61.7138 92.1124 62.2338 93.5651 62.8592C94.3805 63.2102 96.5944 63.6797 96.2439 64.4951C96.1793 64.6452 96.0352 65.1273 95.9608 65.2732C95.8644 65.4618 95.7273 65.7369 95.5416 66.1264C94.6572 67.9811 92.7214 68.2596 91.4455 68.5002C91.2211 68.5425 90.993 68.5526 90.7662 68.5257C88.557 68.2633 84.8099 68.0219 85.1611 68.9071C85.4478 69.6274 83.0658 71.7327 80.9978 73.351C80.0986 74.0545 78.8139 73.8006 78.1515 72.8707C77.893 72.5077 77.73 72.308 77.8101 72.5094C77.9071 72.7532 76.5641 73.706 74.8934 74.77C73.7378 75.5059 73.5906 72.179 72.6787 73.2015C71.7433 74.2495 64.3948 77.8498 63.2269 78.3149C57.0438 81.452 45.3969 75.9569 45.6239 76.5375C45.8561 77.1208 42.47 80.4966 42.3511 81.8955C42.232 83.2943 37.7984 85.7354 37.2147 85.9678C36.6314 86.2001 34.53 87.7126 34.7622 88.2959C34.9944 88.8806 35.2212 92.8435 33.936 94.7065C32.6505 96.5698 31.1377 94.4686 29.5066 93.7664C28.2802 93.238 29.09 91.0231 29.7418 89.7921C29.8206 89.6432 29.8864 89.4885 29.9258 89.3247C30.1696 88.3084 30.4517 86.4372 30.1009 85.1336C30.0386 84.9021 29.9028 84.7 29.7498 84.5155C28.037 82.4506 28.0584 80.3064 28.5657 78.7266C28.7416 78.1786 27.7655 77.5088 27.5527 76.974C27.433 76.6714 28.5024 74.8089 29.7727 72.9054C30.7826 71.3911 29.331 69.4748 28.6111 71.1468L30.2528 67.3337C30.3283 67.1583 30.429 66.9941 30.551 66.8471L35.1232 61.3365C35.2992 61.1243 35.5106 60.9537 35.7574 60.8307C37.7607 59.8327 47.404 55.0729 50.908 54.1613C54.4338 53.2439 59.0518 46.0942 61.5046 41.5866C61.6694 41.2838 61.9014 41.0333 62.1742 40.8502L62.0639 40.0238C62.0271 39.7509 61.9139 39.4934 61.7363 39.2828L61.4487 38.9433C61.0598 38.4821 61.1458 37.7868 61.6353 37.4342L61.6638 37.4134C62.2312 37.0051 62.2234 36.1582 61.6482 35.761L61.3928 35.5841C61.1445 35.4129 61.0519 35.0906 61.1712 34.8136C61.2613 34.6041 61.2312 34.3626 61.0953 34.1795C58.6927 30.9433 54.6661 24.3514 56.2079 21.641Z" fill="#DD9A46"/>
<path fill-rule="evenodd" clip-rule="evenodd" d="M56.2079 21.641L55.7733 21.3938L55.7733 21.3938L56.2079 21.641ZM68.0625 25.1613L67.7798 25.5737V25.5737L68.0625 25.1613ZM69.1685 25.5104L69.1772 26.0103L69.1772 26.0103L69.1685 25.5104ZM74.0422 24.0022L73.5829 23.8045L73.5829 23.8045L74.0422 24.0022ZM76.8509 17.4783L76.3916 17.2806L76.3916 17.2806L76.8509 17.4783ZM79.3034 15.1502L79.3457 14.652L79.3457 14.652L79.3034 15.1502ZM81.2763 16.7529L81.721 16.5244L81.7209 16.5243L81.2763 16.7529ZM81.4235 17.3103L81.9219 17.2704L81.9219 17.2704L81.4235 17.3103ZM81.5551 21.9048L82.0547 21.9234L82.0547 21.9234L81.5551 21.9048ZM83.4623 25.9301L83.1633 26.3308L83.1633 26.3308L83.4623 25.9301ZM84.9955 27.751L85.4601 27.5661L85.46 27.566L84.9955 27.751ZM87.0838 30.0845L86.8426 30.5224L86.8427 30.5225L87.0838 30.0845ZM87.5886 30.2409L87.6586 29.7458L87.6585 29.7458L87.5886 30.2409ZM91.186 30.7492L91.1161 31.2442L91.1161 31.2442L91.186 30.7492ZM92.5144 32.0503L93.0143 32.0581L93.0143 32.0581L92.5144 32.0503ZM90.8125 35.5721L91.1567 35.9347L91.1567 35.9347L90.8125 35.5721ZM87.5422 37.0947L87.4034 36.6144L86.2802 36.9389L87.2907 37.5269L87.5422 37.0947ZM87.9827 37.4197L88.3306 37.0606L88.3305 37.0605L87.9827 37.4197ZM89.9854 41.983L90.3969 42.267L90.397 42.2669L89.9854 41.983ZM87.0028 43.5288L86.8753 43.0453L86.8815 44.0139L87.0028 43.5288ZM89.5098 47.5792L89.9743 47.3943L89.9743 47.3943L89.5098 47.5792ZM90.2566 51.9372L90.756 51.9128L90.756 51.9126L90.2566 51.9372ZM88.8015 52.5911L88.3369 52.7759L88.337 52.7761L88.8015 52.5911ZM87.695 59.1133L87.2118 58.9847L87.2118 58.9848L87.695 59.1133ZM88.731 61.2298L88.5709 61.7035L88.5709 61.7035L88.731 61.2298ZM93.5651 62.8592L93.7628 62.3999L93.7628 62.3999L93.5651 62.8592ZM96.2439 64.4951L96.7032 64.6928L96.7033 64.6926L96.2439 64.4951ZM95.9608 65.2732L96.4061 65.5007L96.4062 65.5004L95.9608 65.2732ZM95.5416 66.1264L95.0903 65.9112V65.9112L95.5416 66.1264ZM91.4455 68.5002L91.5381 68.9915L91.5382 68.9915L91.4455 68.5002ZM90.7662 68.5257L90.7072 69.0222L90.7072 69.0222L90.7662 68.5257ZM85.1611 68.9071L84.6963 69.0915L84.6966 69.0921L85.1611 68.9071ZM80.9978 73.351L81.3059 73.7448L81.3059 73.7448L80.9978 73.351ZM78.1515 72.8707L77.7442 73.1607L77.7442 73.1607L78.1515 72.8707ZM77.8101 72.5094L77.3454 72.6941L77.3455 72.6943L77.8101 72.5094ZM74.8934 74.77L75.162 75.1917V75.1917L74.8934 74.77ZM72.6787 73.2015L73.0518 73.5344L73.0519 73.5343L72.6787 73.2015ZM63.2269 78.3149L63.0419 77.8504L63.0208 77.8588L63.0006 77.869L63.2269 78.3149ZM45.6239 76.5375L45.1582 76.7195L45.1593 76.7224L45.6239 76.5375ZM42.3511 81.8955L42.8493 81.9379L42.8493 81.9379L42.3511 81.8955ZM37.2147 85.9678L37.3997 86.4324L37.3997 86.4324L37.2147 85.9678ZM34.7622 88.2959L35.2269 88.1114L35.2268 88.111L34.7622 88.2959ZM33.936 94.7065L34.3476 94.9904L34.3476 94.9904L33.936 94.7065ZM29.5066 93.7664L29.3088 94.2256L29.3089 94.2256L29.5066 93.7664ZM29.7418 89.7921L30.1837 90.026L30.1837 90.026L29.7418 89.7921ZM29.9258 89.3247L30.4119 89.4414L30.4119 89.4414L29.9258 89.3247ZM30.1009 85.1336L30.5837 85.0037L30.5837 85.0036L30.1009 85.1336ZM29.7498 84.5155L29.3649 84.8347L29.3649 84.8347L29.7498 84.5155ZM28.5657 78.7266L28.0896 78.5737L28.0896 78.5737L28.5657 78.7266ZM27.5527 76.974L27.0877 77.158L27.0881 77.159L27.5527 76.974ZM29.7727 72.9054L30.1886 73.183L30.1886 73.1829L29.7727 72.9054ZM30.551 66.8471L30.1662 66.5279L30.1662 66.5279L30.551 66.8471ZM35.1232 61.3365L35.5079 61.6558L35.5079 61.6558L35.1232 61.3365ZM35.7574 60.8307L35.5344 60.3832L35.5344 60.3832L35.7574 60.8307ZM50.908 54.1613L51.0339 54.6452L51.0339 54.6452L50.908 54.1613ZM61.5046 41.5866L61.9438 41.8256L61.9438 41.8256L61.5046 41.5866ZM62.1742 40.8502L62.4528 41.2654L62.711 41.0922L62.6698 40.784L62.1742 40.8502ZM62.0639 40.0238L62.5595 39.9576L62.5594 39.9571L62.0639 40.0238ZM61.7363 39.2828L62.1186 38.9605L62.1179 38.9597L61.7363 39.2828ZM61.4487 38.9433L61.0665 39.2656L61.0672 39.2664L61.4487 38.9433ZM61.6353 37.4342L61.9275 37.84L61.9301 37.8381L61.6353 37.4342ZM61.6638 37.4134L61.3717 37.0076L61.369 37.0096L61.6638 37.4134ZM61.6482 35.761L61.3635 36.1721L61.3641 36.1725L61.6482 35.761ZM61.3928 35.5841L61.6774 35.1731L61.6768 35.1726L61.3928 35.5841ZM61.1712 34.8136L61.6304 35.0113L61.6305 35.0112L61.1712 34.8136ZM61.0953 34.1795L61.4968 33.8816L61.4968 33.8815L61.0953 34.1795ZM56.2079 21.641L56.6425 21.8883C56.8958 21.4429 57.3809 21.2071 58.1858 21.2174C58.9973 21.2277 60.0271 21.4939 61.1677 21.9378C63.4393 22.822 65.9878 24.3453 67.7798 25.5737L68.0625 25.1613L68.3452 24.7489C66.5232 23.4999 63.9031 21.9294 61.5304 21.0059C60.3487 20.546 59.1873 20.23 58.1985 20.2175C57.203 20.2048 56.2787 20.5055 55.7733 21.3938L56.2079 21.641ZM68.0625 25.1613L67.7798 25.5737C68.1807 25.8486 68.6621 26.0193 69.1772 26.0103L69.1685 25.5104L69.1597 25.0105C68.8805 25.0154 68.5995 24.9233 68.3452 24.7489L68.0625 25.1613ZM69.1685 25.5104L69.1772 26.0103C70.0523 25.995 71.1865 25.905 72.1781 25.6643C72.6733 25.544 73.1541 25.3812 73.5547 25.1579C73.951 24.937 74.3162 24.6302 74.5014 24.1999L74.0422 24.0022L73.5829 23.8045C73.5194 23.952 73.3649 24.1188 73.0679 24.2844C72.7752 24.4475 72.3894 24.5839 71.9421 24.6925C71.0488 24.9094 69.9949 24.9958 69.1597 25.0105L69.1685 25.5104ZM74.0422 24.0022L74.5014 24.1999L77.3101 17.676L76.8509 17.4783L76.3916 17.2806L73.5829 23.8045L74.0422 24.0022ZM76.8509 17.4783L77.3101 17.676C77.4708 17.3028 77.7789 16.7449 78.1658 16.3015C78.5734 15.8345 78.9538 15.6223 79.261 15.6484L79.3034 15.1502L79.3457 14.652C78.5338 14.583 77.8635 15.1271 77.4124 15.644C76.9406 16.1846 76.582 16.8382 76.3916 17.2806L76.8509 17.4783ZM79.3034 15.1502L79.261 15.6484C79.5965 15.677 79.9094 15.8497 80.1904 16.1142C80.4714 16.3787 80.6912 16.7085 80.8316 16.9816L81.2763 16.7529L81.7209 16.5243C81.5428 16.1779 81.2598 15.7475 80.8758 15.3861C80.4919 15.0247 79.9776 14.7058 79.3457 14.652L79.3034 15.1502ZM81.2763 16.7529L80.8316 16.9815C80.8822 17.0799 80.9132 17.2014 80.9251 17.3501L81.4235 17.3103L81.9219 17.2704C81.9028 17.0312 81.8483 16.7721 81.721 16.5244L81.2763 16.7529ZM81.4235 17.3103L80.9251 17.3501C81.0235 18.5814 81.1112 20.3844 81.0554 21.8862L81.5551 21.9048L82.0547 21.9234C82.1126 20.367 82.0219 18.5213 81.9219 17.2704L81.4235 17.3103ZM81.5551 21.9048L81.0554 21.8862C81.0263 22.6703 81.2575 23.553 81.6273 24.3363C81.9969 25.1192 82.5318 25.8594 83.1633 26.3308L83.4623 25.9301L83.7614 25.5295C83.299 25.1843 82.8548 24.5939 82.5316 23.9093C82.2086 23.2251 82.0331 22.5035 82.0547 21.9234L81.5551 21.9048ZM83.4623 25.9301L83.1633 26.3308C83.7808 26.7917 84.2902 27.3312 84.531 27.9359L84.9955 27.751L85.46 27.566C85.1216 26.7159 84.4469 26.0411 83.7614 25.5294L83.4623 25.9301ZM84.9955 27.751L84.531 27.9359C85.0737 29.2991 86.1725 30.1533 86.8426 30.5224L87.0838 30.0845L87.3251 29.6466C86.7806 29.3466 85.8892 28.6441 85.4601 27.5661L84.9955 27.751ZM87.0838 30.0845L86.8427 30.5225C87.0687 30.6469 87.3059 30.706 87.5187 30.736L87.5886 30.2409L87.6585 29.7458C87.5195 29.7262 87.4102 29.6934 87.325 29.6465L87.0838 30.0845ZM87.5886 30.2409L87.5187 30.736L91.1161 31.2442L91.186 30.7492L91.2559 30.2541L87.6586 29.7458L87.5886 30.2409ZM91.186 30.7492L91.1161 31.2442C91.6937 31.3258 92.0201 31.6793 92.0144 32.0425L92.5144 32.0503L93.0143 32.0581C93.031 30.9862 92.0995 30.3732 91.2559 30.2541L91.186 30.7492ZM92.5144 32.0503L92.0144 32.0425C92.0013 32.8805 91.6751 34.0637 90.4682 35.2095L90.8125 35.5721L91.1567 35.9347C92.566 34.5968 92.9971 33.1546 93.0143 32.0581L92.5144 32.0503ZM90.8125 35.5721L90.4683 35.2095C89.9489 35.7025 88.861 36.1932 87.4034 36.6144L87.5422 37.0947L87.681 37.5751C89.1488 37.151 90.4472 36.6083 91.1567 35.9347L90.8125 35.5721ZM87.5422 37.0947L87.2907 37.5269C87.4277 37.6066 87.5427 37.6896 87.6348 37.7788L87.9827 37.4197L88.3305 37.0605C88.1644 36.8996 87.9784 36.7701 87.7936 36.6626L87.5422 37.0947ZM87.9827 37.4197L87.6348 37.7788C88.1241 38.2528 88.7878 39.0686 89.2288 39.8898C89.4495 40.3008 89.6006 40.6878 89.6575 41.017C89.7146 41.3475 89.6683 41.5621 89.5738 41.6992L89.9854 41.983L90.397 42.2669C90.6949 41.8349 90.7248 41.3207 90.6429 40.8467C90.5608 40.3715 90.3576 39.8781 90.1098 39.4167C89.6139 38.4933 88.8838 37.5965 88.3306 37.0606L87.9827 37.4197ZM89.9854 41.983L89.5738 41.6991C89.404 41.9452 89.0773 42.1978 88.5889 42.4378C88.109 42.6737 87.518 42.8758 86.8753 43.0453L87.0028 43.5288L87.1303 44.0123C87.8095 43.8331 88.4694 43.6108 89.03 43.3353C89.5822 43.0639 90.0858 42.7179 90.3969 42.267L89.9854 41.983ZM87.0028 43.5288L86.8815 44.0139C87.3428 44.1292 87.7299 44.46 87.9107 44.9143L88.3752 44.7294L88.8398 44.5444C88.5383 43.7872 87.8931 43.236 87.1241 43.0437L87.0028 43.5288ZM88.3752 44.7294L87.9107 44.9143L89.0452 47.7642L89.5098 47.5792L89.9743 47.3943L88.8398 44.5444L88.3752 44.7294ZM89.5098 47.5792L89.0452 47.7641C89.4706 48.8328 89.6797 50.3931 89.7572 51.9619L90.2566 51.9372L90.756 51.9126C90.6774 50.321 90.4635 48.6232 89.9743 47.3943L89.5098 47.5792ZM90.2566 51.9372L89.7572 51.9616C89.7576 51.9689 89.7553 51.9111 89.808 51.8474C89.854 51.7918 89.8987 51.785 89.8797 51.7899C89.8179 51.8058 89.6965 51.8041 89.4702 51.7867C89.3753 51.7794 89.2593 51.7697 89.1529 51.7672C89.0518 51.7648 88.9134 51.7669 88.7797 51.8026C88.6435 51.8389 88.4239 51.936 88.3187 52.1876C88.2229 52.4165 88.282 52.6378 88.3369 52.7759L88.8015 52.5911L89.2661 52.4063C89.2464 52.3567 89.2962 52.4421 89.2412 52.5735C89.1767 52.7277 89.0479 52.766 89.0372 52.7688C89.029 52.771 89.0508 52.7651 89.1293 52.7669C89.2024 52.7687 89.2855 52.7755 89.3935 52.7838C89.5733 52.7976 89.8741 52.8237 90.1281 52.7586C90.267 52.723 90.443 52.6486 90.5784 52.485C90.7204 52.3134 90.7655 52.1073 90.756 51.9128L90.2566 51.9372ZM88.8015 52.5911L88.337 52.7761C88.3435 52.7924 88.3616 52.8604 88.3677 53.009C88.3735 53.1487 88.3676 53.3274 88.3493 53.5433C88.3126 53.9747 88.2294 54.5179 88.1143 55.1254C87.8846 56.3383 87.536 57.7663 87.2118 58.9847L87.695 59.1133L88.1782 59.2419C88.5053 58.0126 88.8607 56.5583 89.0969 55.3114C89.2148 54.689 89.3049 54.108 89.3457 53.6279C89.3661 53.3881 89.3749 53.1643 89.3669 52.968C89.3592 52.7806 89.335 52.5792 89.2661 52.4062L88.8015 52.5911ZM87.695 59.1133L87.2118 58.9848C86.9188 60.0859 87.401 61.3083 88.5709 61.7035L88.731 61.2298L88.891 60.7561C88.308 60.5592 87.9954 59.9288 88.1782 59.2419L87.695 59.1133ZM88.731 61.2298L88.5709 61.7035C90.0559 62.2052 91.9367 62.7025 93.3674 63.3184L93.5651 62.8592L93.7628 62.3999C92.2881 61.765 90.2715 61.2225 88.891 60.7561L88.731 61.2298ZM93.5651 62.8592L93.3674 63.3184C93.5957 63.4167 93.9137 63.5204 94.2181 63.6223C94.5359 63.7288 94.8598 63.84 95.1441 63.9623C95.4391 64.0892 95.6386 64.2067 95.7416 64.3056C95.7895 64.3515 95.7902 64.369 95.7856 64.3541C95.7828 64.345 95.7805 64.3317 95.7814 64.3169C95.7823 64.3024 95.7856 64.2953 95.7846 64.2976L96.2439 64.4951L96.7033 64.6926C96.7922 64.4856 96.8058 64.2663 96.7402 64.0561C96.6784 63.8581 96.5573 63.7024 96.4342 63.5842C96.1952 63.3548 95.856 63.18 95.5394 63.0437C95.2121 62.9029 94.8515 62.7799 94.5358 62.6741C94.2067 62.5639 93.9422 62.4772 93.7628 62.3999L93.5651 62.8592ZM96.2439 64.4951L95.7846 64.2974C95.742 64.3965 95.6801 64.5848 95.6325 64.7252C95.6059 64.8036 95.5806 64.8772 95.558 64.9389C95.5467 64.9696 95.5369 64.9951 95.5287 65.0152C95.5246 65.0252 95.5214 65.0329 95.5188 65.0386C95.5162 65.0445 95.5151 65.0466 95.5154 65.0459L95.9608 65.2732L96.4062 65.5004C96.4641 65.3869 96.5319 65.1868 96.5796 65.0462C96.6388 64.8715 96.6812 64.7438 96.7032 64.6928L96.2439 64.4951ZM95.9608 65.2732L95.5156 65.0456C95.4169 65.2387 95.2778 65.518 95.0903 65.9112L95.5416 66.1264L95.9929 66.3416C96.1769 65.9559 96.3119 65.6849 96.4061 65.5007L95.9608 65.2732ZM95.5416 66.1264L95.0903 65.9112C94.3331 67.499 92.6901 67.7567 91.3528 68.0088L91.4455 68.5002L91.5382 68.9915C92.7527 68.7625 94.9812 68.4632 95.9929 66.3416L95.5416 66.1264ZM91.4455 68.5002L91.3529 68.0088C91.1749 68.0424 90.998 68.0497 90.8251 68.0292L90.7662 68.5257L90.7072 69.0222C90.9879 69.0555 91.2672 69.0426 91.5381 68.9915L91.4455 68.5002ZM90.7662 68.5257L90.8251 68.0292C89.7119 67.897 88.1976 67.7681 86.996 67.7861C86.4046 67.795 85.8433 67.8394 85.4385 67.957C85.2445 68.0134 85.013 68.1064 84.8467 68.2828C84.7559 68.3791 84.6794 68.5061 84.6503 68.6628C84.6213 68.8189 84.6465 68.9659 84.6963 69.0915L85.1611 68.9071L85.6259 68.7227C85.6318 68.7377 85.6451 68.7829 85.6335 68.8454C85.6218 68.9085 85.5919 68.9501 85.5743 68.9688C85.5544 68.99 85.5752 68.9587 85.7176 68.9173C85.9857 68.8394 86.4333 68.7946 87.011 68.786C88.1474 68.769 89.6112 68.8921 90.7072 69.0222L90.7662 68.5257ZM85.1611 68.9071L84.6966 69.0921C84.6722 69.0308 84.6971 69.0117 84.6734 69.0853C84.6512 69.1542 84.6004 69.2588 84.506 69.401C84.3179 69.684 84.0095 70.0379 83.6088 70.4388C82.8119 71.2362 81.7178 72.1526 80.6896 72.9572L80.9978 73.351L81.3059 73.7448C82.3458 72.931 83.4767 71.9856 84.3161 71.1457C84.7336 70.728 85.0963 70.3194 85.3388 69.9545C85.4596 69.7727 85.564 69.5821 85.6253 69.3917C85.6851 69.206 85.7217 68.9636 85.6257 68.7222L85.1611 68.9071ZM80.9978 73.351L80.6897 72.9572C80.0388 73.4664 79.0739 73.3039 78.5587 72.5806L78.1515 72.8707L77.7442 73.1607C78.5538 74.2973 80.1584 74.6426 81.3059 73.7448L80.9978 73.351ZM78.1515 72.8707L78.5588 72.5806C78.4321 72.4028 78.3108 72.2387 78.2256 72.144C78.2047 72.1209 78.1707 72.0843 78.1293 72.0509C78.1108 72.0358 78.0682 72.0027 78.0082 71.9754C77.9707 71.9585 77.7855 71.8773 77.574 71.9805C77.3363 72.0965 77.2985 72.3234 77.2921 72.3875C77.2844 72.4656 77.2964 72.5285 77.3014 72.5531C77.3132 72.6103 77.3327 72.6621 77.3454 72.6941L77.8101 72.5094L78.2747 72.3247C78.2674 72.3063 78.2745 72.3203 78.2808 72.3513C78.2832 72.3628 78.2943 72.4155 78.2872 72.4862C78.2816 72.5428 78.2462 72.7652 78.0125 72.8792C77.8051 72.9804 77.6255 72.8999 77.5952 72.8862C77.5424 72.8623 77.5085 72.8349 77.5002 72.8281C77.4792 72.8111 77.4714 72.8008 77.482 72.8127C77.523 72.8582 77.6124 72.9755 77.7442 73.1607L78.1515 72.8707ZM77.8101 72.5094L77.3455 72.6943C77.3029 72.5873 77.314 72.4948 77.3253 72.4475C77.3361 72.402 77.3516 72.3769 77.3517 72.3768C77.3531 72.3745 77.349 72.3816 77.3347 72.3989C77.3209 72.4155 77.3012 72.4374 77.2743 72.4647C77.162 72.5786 76.9743 72.7363 76.7135 72.933C76.1973 73.3225 75.4572 73.8181 74.6249 74.3482L74.8934 74.77L75.162 75.1917C76.0003 74.6579 76.7672 74.1452 77.3158 73.7313C77.5875 73.5263 77.8218 73.3337 77.9862 73.167C78.0662 73.0859 78.1496 72.9912 78.2106 72.889C78.2532 72.8175 78.3799 72.5889 78.2746 72.3245L77.8101 72.5094ZM74.8934 74.77L74.6249 74.3482C74.5568 74.3916 74.5503 74.373 74.5825 74.3781C74.6064 74.3819 74.5937 74.3906 74.5434 74.3397C74.4236 74.2188 74.3036 73.9897 74.145 73.661C74.0738 73.5134 73.9946 73.3472 73.9124 73.1994C73.8326 73.0559 73.7295 72.8912 73.5966 72.7613C73.4602 72.6279 73.2389 72.4812 72.944 72.5075C72.6666 72.5322 72.4561 72.6999 72.3056 72.8687L72.6787 73.2015L73.0519 73.5343C73.1293 73.4475 73.1228 73.4955 73.0326 73.5036C72.9248 73.5131 72.8736 73.4529 72.8973 73.4761C72.9246 73.5028 72.9715 73.565 73.0386 73.6855C73.1033 73.8019 73.168 73.9372 73.2444 74.0955C73.381 74.3788 73.5714 74.7794 73.8328 75.0434C73.973 75.185 74.1686 75.3248 74.4252 75.3657C74.6903 75.4079 74.9412 75.3323 75.162 75.1917L74.8934 74.77ZM72.6787 73.2015L72.3057 72.8686C72.233 72.95 72.0609 73.0917 71.7702 73.29C71.4905 73.4807 71.1328 73.7028 70.7184 73.946C69.8904 74.4319 68.8562 74.9902 67.8098 75.533C65.7091 76.6225 63.6 77.6281 63.0419 77.8504L63.2269 78.3149L63.4119 78.7794C64.0216 78.5366 66.1708 77.5095 68.2702 76.4207C69.3238 75.8742 70.3752 75.3069 71.2245 74.8084C71.6489 74.5594 72.0279 74.3246 72.3337 74.1161C72.6285 73.9151 72.8906 73.715 73.0518 73.5344L72.6787 73.2015ZM63.2269 78.3149L63.0006 77.869C61.5594 78.6002 59.7669 78.8428 57.8526 78.7793C55.943 78.7159 53.9521 78.3496 52.1423 77.8997C50.3342 77.4501 48.722 76.921 47.5668 76.537C46.9954 76.347 46.5211 76.1875 46.1993 76.0952C46.046 76.0512 45.8907 76.0114 45.767 75.9988C45.7284 75.9949 45.5843 75.9785 45.4386 76.0414C45.3456 76.0816 45.2128 76.1724 45.1506 76.3475C45.093 76.5101 45.1311 76.6502 45.1582 76.7195L45.6239 76.5375L46.0896 76.3554C46.1096 76.4066 46.1464 76.5315 46.0931 76.6818C46.0354 76.8446 45.9125 76.926 45.8351 76.9594C45.7205 77.0089 45.6298 76.99 45.6655 76.9937C45.6905 76.9962 45.7682 77.0119 45.9237 77.0565C46.2196 77.1413 46.6662 77.2914 47.2514 77.4859C48.4094 77.8709 50.0528 78.4106 51.901 78.8701C53.7474 79.3292 55.8133 79.7122 57.8194 79.7787C59.8208 79.8451 61.8028 79.5981 63.4531 78.7608L63.2269 78.3149ZM45.6239 76.5375L45.1593 76.7224C45.1218 76.6281 45.1401 76.5626 45.1375 76.575C45.1364 76.5803 45.1287 76.6087 45.1019 76.6659C45.0487 76.7798 44.9531 76.9385 44.8141 77.1424C44.5372 77.5484 44.1443 78.053 43.7215 78.6075C43.3059 79.1527 42.8664 79.7399 42.5228 80.2828C42.3507 80.5547 42.1967 80.8248 42.0803 81.0804C41.9664 81.3306 41.8747 81.5963 41.8529 81.8532L42.3511 81.8955L42.8493 81.9379C42.8572 81.845 42.8973 81.6992 42.9904 81.4948C43.0811 81.2958 43.2093 81.068 43.3678 80.8176C43.6853 80.3159 44.1001 79.7604 44.5168 79.2138C44.9264 78.6766 45.3439 78.1404 45.6403 77.7057C45.788 77.4892 45.9198 77.2776 46.0077 77.0897C46.0515 76.9961 46.0929 76.8907 46.1159 76.7818C46.1374 76.68 46.155 76.5197 46.0884 76.3525L45.6239 76.5375ZM42.3511 81.8955L41.8529 81.8531C41.848 81.91 41.8146 82.0192 41.7038 82.1856C41.5965 82.347 41.4378 82.5306 41.2319 82.7307C40.8201 83.131 40.2633 83.5559 39.6758 83.9557C38.4924 84.7612 37.2726 85.4066 37.0298 85.5033L37.2147 85.9678L37.3997 86.4324C37.7405 86.2967 39.0294 85.6054 40.2385 84.7824C40.8472 84.3681 41.4576 83.9059 41.9289 83.4478C42.1645 83.2188 42.3763 82.9803 42.5364 82.7395C42.6932 82.5039 42.8244 82.2307 42.8493 81.9379L42.3511 81.8955ZM37.2147 85.9678L37.0298 85.5033C36.8324 85.5819 36.5553 85.745 36.2755 85.9315C35.9859 86.1245 35.6606 86.3647 35.3603 86.618C35.064 86.8678 34.7734 87.146 34.5679 87.4155C34.4658 87.5494 34.3688 87.7015 34.3085 87.8633C34.2494 88.0218 34.2049 88.2476 34.2977 88.4808L34.7622 88.2959L35.2268 88.111C35.2616 88.1983 35.2319 88.2492 35.2456 88.2125C35.258 88.179 35.2916 88.1155 35.363 88.0219C35.5044 87.8365 35.7321 87.6126 36.005 87.3824C36.274 87.1556 36.5688 86.9377 36.8301 86.7636C37.1011 86.583 37.3054 86.4699 37.3997 86.4324L37.2147 85.9678ZM34.7622 88.2959L34.2975 88.4804C34.2975 88.4803 34.2998 88.4863 34.3039 88.5003C34.3078 88.5139 34.3126 88.532 34.3179 88.5553C34.3287 88.6023 34.3403 88.6635 34.3519 88.739C34.3753 88.8901 34.3968 89.086 34.413 89.3172C34.4454 89.7794 34.4552 90.3664 34.4189 90.993C34.345 92.273 34.0846 93.6106 33.5245 94.4226L33.936 94.7065L34.3476 94.9904C35.0726 93.9394 35.3414 92.3641 35.4173 91.0507C35.456 90.3806 35.4459 89.7508 35.4106 89.2473C35.393 88.9957 35.3688 88.7714 35.3403 88.5866C35.3135 88.4132 35.278 88.2401 35.2269 88.1114L34.7622 88.2959ZM33.936 94.7065L33.5245 94.4225C33.2551 94.8129 33.0272 94.9235 32.8542 94.9503C32.6602 94.9805 32.4144 94.9252 32.0787 94.7534C31.7427 94.5814 31.3935 94.3349 30.9876 94.0583C30.5981 93.793 30.1616 93.504 29.7043 93.3071L29.5066 93.7664L29.3089 94.2256C29.6672 94.3799 30.0314 94.6169 30.4245 94.8847C30.8012 95.1414 31.2164 95.4354 31.6231 95.6436C32.0302 95.852 32.5056 96.0165 33.0077 95.9385C33.5309 95.8572 33.9741 95.5317 34.3476 94.9904L33.936 94.7065ZM29.5066 93.7664L29.7044 93.3072C29.5554 93.2429 29.4663 93.137 29.4149 92.9578C29.3576 92.7579 29.3536 92.4769 29.4129 92.126C29.5309 91.427 29.8696 90.6193 30.1837 90.026L29.7418 89.7921L29.3 89.5581C28.9622 90.1959 28.5701 91.1112 28.4268 91.9595C28.3555 92.3822 28.3382 92.8309 28.4537 93.2334C28.575 93.6565 28.8446 94.0256 29.3088 94.2256L29.5066 93.7664ZM29.7418 89.7921L30.1837 90.026C30.2752 89.8532 30.3599 89.6583 30.4119 89.4414L29.9258 89.3247L29.4396 89.2079C29.413 89.3187 29.3661 89.4332 29.2999 89.5581L29.7418 89.7921ZM29.9258 89.3247L30.4119 89.4414C30.5391 88.9115 30.6755 88.1629 30.7349 87.3745C30.7939 86.5929 30.7804 85.7345 30.5837 85.0037L30.1009 85.1336L29.6181 85.2635C29.7722 85.8363 29.7931 86.5652 29.7378 87.2993C29.6829 88.0264 29.5563 88.7216 29.4396 89.208L29.9258 89.3247ZM30.1009 85.1336L30.5837 85.0036C30.4938 84.6696 30.3049 84.4016 30.1346 84.1963L29.7498 84.5155L29.3649 84.8347C29.5007 84.9985 29.5834 85.1346 29.6181 85.2636L30.1009 85.1336ZM29.7498 84.5155L30.1346 84.1963C28.552 82.2882 28.5757 80.3308 29.0417 78.8794L28.5657 78.7266L28.0896 78.5737C27.5411 80.2819 27.522 82.6129 29.3649 84.8347L29.7498 84.5155ZM28.5657 78.7266L29.0417 78.8794C29.1397 78.5745 29.0622 78.2916 28.9636 78.083C28.8659 77.8765 28.7207 77.6855 28.5914 77.528C28.5249 77.447 28.4556 77.3667 28.3922 77.293C28.3272 77.2175 28.2681 77.1484 28.2141 77.0817C28.0995 76.9403 28.0406 76.8477 28.0172 76.7891L27.5527 76.974L27.0881 77.159C27.1712 77.3677 27.3141 77.5594 27.437 77.7111C27.5016 77.7909 27.57 77.8706 27.6341 77.9451C27.6997 78.0214 27.7608 78.0923 27.8186 78.1626C27.9379 78.308 28.017 78.4206 28.0596 78.5105C28.1011 78.5983 28.0797 78.6046 28.0896 78.5737L28.5657 78.7266ZM27.5527 76.974L28.0176 76.7901C28.047 76.8643 28.0435 76.9197 28.0433 76.9249C28.0427 76.9355 28.0418 76.9316 28.0475 76.9082C28.0589 76.8612 28.0847 76.7836 28.1317 76.6713C28.2246 76.4492 28.3766 76.147 28.5787 75.7826C28.9811 75.0571 29.5581 74.1278 30.1886 73.183L29.7727 72.9054L29.3567 72.6279C28.717 73.5866 28.1242 74.5403 27.7042 75.2976C27.4951 75.6746 27.3228 76.0137 27.2091 76.2854C27.1529 76.4199 27.1048 76.5524 27.0757 76.6726C27.0611 76.7328 27.0482 76.8018 27.0446 76.8739C27.0412 76.9405 27.0434 77.0459 27.0877 77.158L27.5527 76.974ZM29.7727 72.9054L30.1886 73.1829C30.8085 72.2535 30.6951 71.1702 30.2481 70.5415C30.0275 70.2314 29.6479 69.9393 29.1673 70.0083C28.691 70.0768 28.3596 70.4666 28.1519 70.9491L28.6111 71.1468L29.0704 71.3446C29.2226 70.9911 29.3426 70.9934 29.3094 70.9982C29.2718 71.0036 29.327 70.9717 29.4331 71.121C29.6393 71.411 29.7468 72.043 29.3567 72.628L29.7727 72.9054ZM28.6111 71.1468L29.0704 71.3446L30.712 67.5314L30.2528 67.3337L29.7935 67.136L28.1519 70.9491L28.6111 71.1468ZM30.2528 67.3337L30.712 67.5314C30.7686 67.4001 30.8441 67.2768 30.9358 67.1664L30.551 66.8471L30.1662 66.5279C30.0138 66.7114 29.888 66.9165 29.7935 67.136L30.2528 67.3337ZM30.551 66.8471L30.9357 67.1664L35.5079 61.6558L35.1232 61.3365L34.7384 61.0173L30.1662 66.5279L30.551 66.8471ZM35.1232 61.3365L35.5079 61.6558C35.6416 61.4948 35.7985 61.3689 35.9804 61.2782L35.7574 60.8307L35.5344 60.3832C35.2227 60.5385 34.9569 60.7539 34.7384 61.0173L35.1232 61.3365ZM35.7574 60.8307L35.9804 61.2783C36.9802 60.7802 39.8867 59.3433 42.9792 57.9177C46.0892 56.4841 49.3334 55.0876 51.0339 54.6452L50.908 54.1613L50.7821 53.6774C48.9786 54.1466 45.6492 55.5858 42.5606 57.0095C39.4547 58.4412 36.5379 59.8833 35.5344 60.3832L35.7574 60.8307ZM50.908 54.1613L51.0339 54.6452C52.0297 54.3861 53.0509 53.7052 54.0406 52.8151C55.0381 51.918 56.0431 50.7721 57.0046 49.5257C58.9279 47.0323 60.7097 44.0935 61.9438 41.8256L61.5046 41.5866L61.0654 41.3476C59.8467 43.5873 58.0931 46.4772 56.2128 48.9149C55.2724 50.134 54.3085 51.2293 53.3719 52.0716C52.4274 52.921 51.5492 53.4778 50.7821 53.6774L50.908 54.1613ZM61.5046 41.5866L61.9438 41.8256C62.0696 41.5943 62.2463 41.404 62.4528 41.2654L62.1742 40.8502L61.8956 40.435C61.5566 40.6625 61.2691 40.9732 61.0654 41.3476L61.5046 41.5866ZM62.1742 40.8502L62.6698 40.784L62.5595 39.9576L62.0639 40.0238L61.5683 40.09L61.6786 40.9164L62.1742 40.8502ZM62.0639 40.0238L62.5594 39.9571C62.5101 39.5909 62.3581 39.2445 62.1186 38.9605L61.7363 39.2828L61.3541 39.6052C61.4697 39.7422 61.5442 39.9108 61.5684 40.0906L62.0639 40.0238ZM61.7363 39.2828L62.1179 38.9597L61.8303 38.6201L61.4487 38.9433L61.0672 39.2664L61.3548 39.606L61.7363 39.2828ZM61.4487 38.9433L61.831 38.6209C61.6298 38.3823 61.6743 38.0224 61.9275 37.84L61.6353 37.4342L61.343 37.0285C60.6173 37.5513 60.4898 38.5818 61.0665 39.2656L61.4487 38.9433ZM61.6353 37.4342L61.9301 37.8381L61.9586 37.8173L61.6638 37.4134L61.369 37.0096L61.3405 37.0304L61.6353 37.4342ZM61.6638 37.4134L61.9559 37.8193C62.8035 37.2092 62.7923 35.9434 61.9323 35.3496L61.6482 35.761L61.3641 36.1725C61.6545 36.373 61.6589 36.8009 61.3717 37.0076L61.6638 37.4134ZM61.6482 35.761L61.9328 35.35L61.6774 35.1731L61.3928 35.5841L61.1081 35.9952L61.3635 36.1721L61.6482 35.761ZM61.3928 35.5841L61.6768 35.1726C61.6248 35.1367 61.6054 35.0695 61.6304 35.0113L61.1712 34.8136L60.7119 34.6159C60.4985 35.1117 60.6643 35.689 61.1088 35.9957L61.3928 35.5841ZM61.1712 34.8136L61.6305 35.0112C61.7924 34.635 61.7369 34.2051 61.4968 33.8816L61.0953 34.1795L60.6938 34.4775C60.7255 34.5202 60.7303 34.5733 60.7119 34.616L61.1712 34.8136ZM61.0953 34.1795L61.4968 33.8815C60.308 32.2803 58.7211 29.8529 57.6257 27.5019C57.0774 26.3253 56.662 25.1883 56.4746 24.1957C56.2847 23.1904 56.3438 22.4132 56.6425 21.8882L56.2079 21.641L55.7733 21.3938C55.301 22.224 55.2853 23.2872 55.4919 24.3813C55.7009 25.4881 56.1532 26.7095 56.7192 27.9243C57.8523 30.3559 59.48 32.8425 60.6939 34.4776L61.0953 34.1795Z" fill="#DD9A46"/>
<path d="M60.013 25.1351C59.0497 26.3983 61.824 29.0685 63.4944 30.3804C63.7476 29.1214 65.3135 27.8098 66.1809 27.2461C64.5416 25.996 61.0131 23.8237 60.013 25.1351Z" fill="#B57626"/>
<path d="M63.6807 30.5247C62.0414 29.2746 59.0129 26.4465 60.013 25.1351C61.0131 23.8237 64.5416 25.996 66.1809 27.2461C65.1732 27.901 63.2227 29.5654 63.483 30.9839" stroke="#B57626"/>
<path d="M73.1684 30.2943C73.7219 30.0741 74.2725 30.051 74.7066 30.1687C75.1405 30.2863 75.4273 30.5321 75.5484 30.8363C75.6694 31.1405 75.6302 31.5162 75.3958 31.8998C75.1613 32.2837 74.7455 32.6453 74.1921 32.8657C73.6385 33.086 73.0872 33.1094 72.653 32.9917C72.2192 32.8741 71.9323 32.6281 71.8112 32.3241C71.6901 32.02 71.7296 31.6441 71.9638 31.2606C72.1984 30.8766 72.6149 30.5147 73.1684 30.2943Z" fill="white" stroke="white"/>
<circle cx="74.2631" cy="31.3479" r="1.88356" transform="rotate(-21.7073 74.2631 31.3479)" fill="#805014"/>
<path d="M74.762 30.7806C74.8276 30.7546 74.9021 30.7866 74.9282 30.8521C74.9543 30.9177 74.9221 30.9921 74.8566 31.0183C74.791 31.0444 74.7166 31.0124 74.6904 30.9468C74.6643 30.8811 74.6964 30.8067 74.762 30.7806Z" fill="white" stroke="white"/>
<path d="M74.5066 24.0458C74.5801 23.8752 74.7384 23.7564 74.9233 23.738C77.3636 23.4969 81.6295 23.4798 81.2688 25.1798C80.9121 26.8602 82.4163 28.3273 83.3341 28.9393C83.4284 29.0022 83.5341 29.0431 83.6451 29.0657C84.8193 29.3048 87.0718 29.6804 88.4756 30.1552C89.0635 30.3541 89.0763 31.0179 88.6578 31.4764C87.4066 32.8475 88.1268 33.627 89.419 34.0723C90.3893 34.4066 90.6902 35.8886 89.7752 36.3533L87.0512 37.7352C86.9913 37.7655 86.9283 37.79 86.8635 37.8078L81.6213 39.2483C81.5267 39.2742 81.4287 39.2866 81.3307 39.284L78.2449 39.2028C77.7601 39.1902 77.5431 39.8061 77.9284 40.1003L79.2868 41.1362C79.4942 41.2943 79.755 41.365 80.0138 41.3334L90.4646 40.0572C91.1456 39.9744 91.7059 40.5862 91.5636 41.2574L91.5157 41.4856C91.4357 41.8622 91.1461 42.159 90.7718 42.2495L87.97 42.9265C88.5129 43.2056 88.9868 43.6523 89.3939 44.1823C89.9979 44.969 90.4984 45.9916 90.902 47.0915C91.7096 49.2921 92.1641 51.9038 92.2407 53.8365L92.2788 54.7904L91.4729 54.2788L89.6121 53.095L88.7907 55.0028L88.5169 55.6405L87.9987 55.1783L87.4678 54.7054L87.0405 55.6996L86.8077 56.2421L86.3115 55.9225C85.5605 55.4393 84.4654 54.7788 83.6135 54.3572C83.3965 54.2499 83.208 54.1647 83.0527 54.1023C83.0375 54.2907 82.9763 54.4691 82.8737 54.6297C82.6946 54.91 82.4145 55.1091 82.1477 55.2509C81.6099 55.5365 80.9268 55.6923 80.4696 55.7539L80.1246 55.8008L79.9614 55.4937L78.4878 52.7294L78.2727 54.5126C78.2126 55.0063 77.5463 55.1191 77.3273 54.6724L75.8478 51.653C75.4188 50.7785 74.1197 50.9709 73.963 51.9324L73.8891 52.3886C73.8826 52.4289 73.8611 52.478 73.8294 52.4523C73.5509 52.2258 72.264 49.287 69.693 45.3307C66.953 41.1138 70.5798 37.836 72.8476 36.6551C72.9307 36.6119 73.0176 36.584 73.1094 36.5656C75.2567 36.1354 79.4735 34.475 80.2094 31.0073C80.9039 27.7346 77.207 25.5953 74.8325 24.7643C74.5383 24.6613 74.3833 24.3322 74.5066 24.0458Z" fill="white"/>
<path d="M74.5066 24.0458L74.0474 23.8478L74.0473 23.8481L74.5066 24.0458ZM74.9233 23.738L74.8741 23.2404L74.8738 23.2405L74.9233 23.738ZM81.2688 25.1798L81.7579 25.2836L81.7579 25.2836L81.2688 25.1798ZM83.3341 28.9393L83.0567 29.3553L83.0568 29.3554L83.3341 28.9393ZM83.6451 29.0657L83.5453 29.5556L83.5453 29.5556L83.6451 29.0657ZM88.4756 30.1552L88.6358 29.6816L88.6358 29.6815L88.4756 30.1552ZM88.6578 31.4764L88.2885 31.1393L88.2885 31.1393L88.6578 31.4764ZM89.419 34.0723L89.2561 34.545L89.2561 34.545L89.419 34.0723ZM89.7752 36.3533L90.0014 36.7992L90.0016 36.7991L89.7752 36.3533ZM87.0512 37.7352L86.825 37.2893L86.8249 37.2893L87.0512 37.7352ZM86.8635 37.8078L86.996 38.2899L86.996 38.2899L86.8635 37.8078ZM81.6213 39.2483L81.7535 39.7304L81.7537 39.7304L81.6213 39.2483ZM81.3307 39.284L81.3175 39.7839L81.3177 39.7839L81.3307 39.284ZM78.2449 39.2028L78.2581 38.703L78.2579 38.703L78.2449 39.2028ZM77.9284 40.1003L77.625 40.4977L77.6252 40.4979L77.9284 40.1003ZM79.2868 41.1362L78.9836 41.5338L78.9837 41.5339L79.2868 41.1362ZM80.0138 41.3334L80.0744 41.8297L80.0745 41.8297L80.0138 41.3334ZM90.4646 40.0572L90.4042 39.5609L90.404 39.5609L90.4646 40.0572ZM91.5636 41.2574L91.0744 41.1536L91.0742 41.1547L91.5636 41.2574ZM91.5157 41.4856L92.0048 41.5894L92.005 41.5883L91.5157 41.4856ZM90.7718 42.2495L90.6544 41.7635L90.6544 41.7635L90.7718 42.2495ZM87.97 42.9265L87.8526 42.4405L86.5453 42.7564L87.7415 43.3712L87.97 42.9265ZM89.3939 44.1823L89.7905 43.8778L89.7904 43.8778L89.3939 44.1823ZM90.902 47.0915L91.3714 46.9193L91.3714 46.9193L90.902 47.0915ZM92.2407 53.8365L91.7411 53.8562L91.7411 53.8564L92.2407 53.8365ZM92.2788 54.7904L92.0109 55.2125L92.8166 55.724L92.7784 54.7704L92.2788 54.7904ZM91.4729 54.2788L91.2045 54.7006L91.2049 54.7009L91.4729 54.2788ZM89.6121 53.095L89.8804 52.6731L89.385 52.3579L89.1528 52.8973L89.6121 53.095ZM88.7907 55.0028L88.3315 54.8051L88.3313 54.8055L88.7907 55.0028ZM88.5169 55.6405L88.1841 56.0137L88.7024 56.4759L88.9764 55.8378L88.5169 55.6405ZM87.9987 55.1783L88.3315 54.8052L88.3312 54.805L87.9987 55.1783ZM87.4678 54.7054L87.8003 54.332L87.2823 53.8706L87.0084 54.508L87.4678 54.7054ZM87.0405 55.6996L86.5811 55.5021L86.581 55.5024L87.0405 55.6996ZM86.8077 56.2421L86.5369 56.6625L87.034 56.9827L87.2672 56.4393L86.8077 56.2421ZM86.3115 55.9225L86.5823 55.5022L86.582 55.502L86.3115 55.9225ZM83.6135 54.3572L83.8353 53.9091L83.8352 53.9091L83.6135 54.3572ZM83.0527 54.1023L83.239 53.6383L82.6088 53.3851L82.5543 54.0621L83.0527 54.1023ZM82.8737 54.6297L83.295 54.8989L83.2951 54.8988L82.8737 54.6297ZM82.1477 55.2509L82.3823 55.6924L82.3823 55.6924L82.1477 55.2509ZM80.4696 55.7539L80.4029 55.2583L80.4022 55.2584L80.4696 55.7539ZM80.1246 55.8008L79.6831 56.0355L79.8467 56.3432L80.1921 56.2962L80.1246 55.8008ZM79.9614 55.4937L80.4029 55.259L80.4026 55.2585L79.9614 55.4937ZM78.4878 52.7294L78.929 52.4942L78.1817 51.0923L77.9914 52.6695L78.4878 52.7294ZM78.2727 54.5126L78.769 54.573L78.7691 54.5725L78.2727 54.5126ZM77.3273 54.6724L76.8783 54.8924L76.8784 54.8926L77.3273 54.6724ZM75.8478 51.653L76.2968 51.433L76.2967 51.4328L75.8478 51.653ZM73.963 51.9324L73.4695 51.852L73.4694 51.8525L73.963 51.9324ZM73.8891 52.3886L74.3826 52.469L74.3827 52.4685L73.8891 52.3886ZM73.8294 52.4523L73.5139 52.8402L73.5145 52.8407L73.8294 52.4523ZM69.693 45.3307L69.2738 45.6031L69.2738 45.6031L69.693 45.3307ZM72.8476 36.6551L72.6167 36.2117L72.6167 36.2117L72.8476 36.6551ZM73.1094 36.5656L73.0112 36.0754L73.0112 36.0754L73.1094 36.5656ZM80.2094 31.0073L80.6985 31.1111L80.6985 31.1111L80.2094 31.0073ZM74.8325 24.7643L74.9977 24.2923L74.9977 24.2923L74.8325 24.7643ZM74.5066 24.0458L74.9657 24.2438C74.9675 24.2396 74.9697 24.2374 74.9711 24.2364C74.9722 24.2355 74.9726 24.2356 74.9727 24.2356L74.9233 23.738L74.8738 23.2405C74.5027 23.2773 74.1908 23.5153 74.0474 23.8478L74.5066 24.0458ZM74.9233 23.738L74.9724 24.2356C76.1764 24.1166 77.809 24.0559 79.0799 24.2266C79.724 24.313 80.2167 24.452 80.5144 24.6316C80.6581 24.7183 80.7276 24.7975 80.7593 24.8565C80.7858 24.9057 80.8023 24.9695 80.7797 25.076L81.2688 25.1798L81.7579 25.2836C81.8255 24.9651 81.7876 24.6575 81.6403 24.3833C81.4982 24.1188 81.2746 23.9223 81.031 23.7753C80.554 23.4875 79.8953 23.3271 79.213 23.2354C77.831 23.0499 76.1105 23.1183 74.8741 23.2404L74.9233 23.738ZM81.2688 25.1798L80.7797 25.076C80.563 26.097 80.9197 27.0233 81.4106 27.7422C81.9013 28.4606 82.5582 29.0229 83.0567 29.3553L83.3341 28.9393L83.6115 28.5234C83.1922 28.2437 82.6382 27.7665 82.2364 27.1782C81.835 26.5905 81.618 25.943 81.7579 25.2836L81.2688 25.1798ZM83.3341 28.9393L83.0568 29.3554C83.2118 29.4587 83.3796 29.5219 83.5453 29.5556L83.6451 29.0657L83.7449 28.5758C83.6886 28.5643 83.645 28.5456 83.6114 28.5233L83.3341 28.9393ZM83.6451 29.0657L83.5453 29.5556C84.7565 29.8023 86.9512 30.1674 88.3154 30.6288L88.4756 30.1552L88.6358 29.6815C87.1925 29.1934 84.8821 28.8073 83.7449 28.5758L83.6451 29.0657ZM88.4756 30.1552L88.3153 30.6288C88.3806 30.6509 88.4078 30.6775 88.4194 30.6921C88.4315 30.7073 88.4428 30.73 88.4465 30.7673C88.4545 30.8491 88.4209 30.9943 88.2885 31.1393L88.6578 31.4764L89.0271 31.8134C89.3133 31.4999 89.4824 31.084 89.4417 30.6696C89.3981 30.2258 89.1159 29.844 88.6358 29.6816L88.4756 30.1552ZM88.6578 31.4764L88.2885 31.1393C87.6188 31.8732 87.32 32.6234 87.6268 33.3225C87.9032 33.9523 88.5936 34.3167 89.2561 34.545L89.419 34.0723L89.5819 33.5996C88.9522 33.3826 88.6364 33.1346 88.5425 32.9206C88.4789 32.7758 88.4456 32.4506 89.0271 31.8134L88.6578 31.4764ZM89.419 34.0723L89.2561 34.545C89.5378 34.6421 89.7546 34.9236 89.8115 35.2499C89.8675 35.5702 89.7562 35.8022 89.5488 35.9075L89.7752 36.3533L90.0016 36.7991C90.7092 36.4397 90.905 35.6984 90.7966 35.0779C90.6894 34.4635 90.2705 33.8368 89.5819 33.5996L89.419 34.0723ZM89.7752 36.3533L89.549 35.9074L86.825 37.2893L87.0512 37.7352L87.2774 38.1811L90.0014 36.7992L89.7752 36.3533ZM87.0512 37.7352L86.8249 37.2893C86.7947 37.3046 86.7631 37.3168 86.731 37.3256L86.8635 37.8078L86.996 38.2899C87.0935 38.2631 87.1878 38.2265 87.2774 38.181L87.0512 37.7352ZM86.8635 37.8078L86.7311 37.3256L81.4888 38.7661L81.6213 39.2483L81.7537 39.7304L86.996 38.2899L86.8635 37.8078ZM81.6213 39.2483L81.489 38.7661C81.44 38.7795 81.391 38.7854 81.3437 38.7842L81.3307 39.284L81.3177 39.7839C81.4665 39.7878 81.6133 39.7689 81.7535 39.7304L81.6213 39.2483ZM81.3307 39.284L81.3438 38.7842L78.2581 38.703L78.2449 39.2028L78.2317 39.7026L81.3175 39.7839L81.3307 39.284ZM78.2449 39.2028L78.2579 38.703C77.288 38.6777 76.8544 39.9094 77.625 40.4977L77.9284 40.1003L78.2319 39.7029L78.2319 39.7026L78.2449 39.2028ZM77.9284 40.1003L77.6252 40.4979L78.9836 41.5338L79.2868 41.1362L79.59 40.7386L78.2316 39.7027L77.9284 40.1003ZM79.2868 41.1362L78.9837 41.5339C79.2949 41.771 79.6861 41.8771 80.0744 41.8297L80.0138 41.3334L79.9533 40.8371C79.8238 40.8529 79.6936 40.8176 79.5899 40.7385L79.2868 41.1362ZM80.0138 41.3334L80.0745 41.8297L90.5252 40.5536L90.4646 40.0572L90.404 39.5609L79.9532 40.8371L80.0138 41.3334ZM90.4646 40.0572L90.525 40.5536C90.8654 40.5121 91.1456 40.818 91.0744 41.1536L91.5636 41.2574L92.0527 41.3611C92.2661 40.3544 91.4257 39.4366 90.4042 39.5609L90.4646 40.0572ZM91.5636 41.2574L91.0742 41.1547L91.0263 41.3829L91.5157 41.4856L92.005 41.5883L92.0529 41.36L91.5636 41.2574ZM91.5157 41.4856L91.0266 41.3818C90.9867 41.5693 90.8423 41.7181 90.6544 41.7635L90.7718 42.2495L90.8893 42.7355C91.4499 42.6 91.8847 42.1552 92.0048 41.5894L91.5157 41.4856ZM90.7718 42.2495L90.6544 41.7635L87.8526 42.4405L87.97 42.9265L88.0875 43.4125L90.8893 42.7355L90.7718 42.2495ZM87.97 42.9265L87.7415 43.3712C88.1987 43.6062 88.6191 43.9944 88.9973 44.4868L89.3939 44.1823L89.7904 43.8778C89.3546 43.3102 88.8272 42.8049 88.1986 42.4818L87.97 42.9265ZM89.3939 44.1823L88.9973 44.4868C89.559 45.2185 90.0385 46.1898 90.4326 47.2638L90.902 47.0915L91.3714 46.9193C90.9582 45.7935 90.4367 44.7195 89.7905 43.8778L89.3939 44.1823ZM90.902 47.0915L90.4326 47.2638C91.2208 49.4115 91.6664 51.9714 91.7411 53.8562L92.2407 53.8365L92.7403 53.8167C92.6618 51.8363 92.1984 49.1727 91.3714 46.9193L90.902 47.0915ZM92.2407 53.8365L91.7411 53.8564L91.7792 54.8104L92.2788 54.7904L92.7784 54.7704L92.7403 53.8165L92.2407 53.8365ZM92.2788 54.7904L92.5468 54.3683L91.7409 53.8566L91.4729 54.2788L91.2049 54.7009L92.0109 55.2125L92.2788 54.7904ZM91.4729 54.2788L91.7413 53.8569L89.8804 52.6731L89.6121 53.095L89.3437 53.5168L91.2045 54.7006L91.4729 54.2788ZM89.6121 53.095L89.1528 52.8973L88.3315 54.8051L88.7907 55.0028L89.25 55.2005L90.0713 53.2927L89.6121 53.095ZM88.7907 55.0028L88.3313 54.8055L88.0575 55.4432L88.5169 55.6405L88.9764 55.8378L89.2502 55.2001L88.7907 55.0028ZM88.5169 55.6405L88.8497 55.2673L88.3315 54.8052L87.9987 55.1783L87.6659 55.5515L88.1841 56.0137L88.5169 55.6405ZM87.9987 55.1783L88.3312 54.805L87.8003 54.332L87.4678 54.7054L87.1352 55.0788L87.6661 55.5517L87.9987 55.1783ZM87.4678 54.7054L87.0084 54.508L86.5811 55.5021L87.0405 55.6996L87.4999 55.897L87.9271 54.9028L87.4678 54.7054ZM87.0405 55.6996L86.581 55.5024L86.3482 56.0449L86.8077 56.2421L87.2672 56.4393L87.5 55.8967L87.0405 55.6996ZM86.8077 56.2421L87.0785 55.8218L86.5823 55.5022L86.3115 55.9225L86.0407 56.3428L86.5369 56.6625L86.8077 56.2421ZM86.3115 55.9225L86.582 55.502C85.8248 55.0149 84.7117 54.3428 83.8353 53.9091L83.6135 54.3572L83.3918 54.8054C84.219 55.2148 85.2961 55.8638 86.041 56.343L86.3115 55.9225ZM83.6135 54.3572L83.8352 53.9091C83.6102 53.7978 83.4095 53.7068 83.239 53.6383L83.0527 54.1023L82.8663 54.5662C83.0065 54.6225 83.1829 54.702 83.3918 54.8054L83.6135 54.3572ZM83.0527 54.1023L82.5543 54.0621C82.5459 54.1667 82.5123 54.2667 82.4524 54.3605L82.8737 54.6297L83.2951 54.8988C83.4404 54.6714 83.5291 54.4148 83.5511 54.1424L83.0527 54.1023ZM82.8737 54.6297L82.4524 54.3604C82.3397 54.5368 82.1455 54.6858 81.9131 54.8093L82.1477 55.2509L82.3823 55.6924C82.6836 55.5323 83.0494 55.2832 83.295 54.8989L82.8737 54.6297ZM82.1477 55.2509L81.9132 54.8093C81.4484 55.0561 80.8304 55.2007 80.4029 55.2583L80.4696 55.7539L80.5364 56.2494C81.0232 56.1838 81.7714 56.0169 82.3823 55.6924L82.1477 55.2509ZM80.4696 55.7539L80.4022 55.2584L80.0572 55.3054L80.1246 55.8008L80.1921 56.2962L80.537 56.2493L80.4696 55.7539ZM80.1246 55.8008L80.5661 55.5661L80.4029 55.259L79.9614 55.4937L79.5199 55.7284L79.6831 56.0355L80.1246 55.8008ZM79.9614 55.4937L80.4026 55.2585L78.929 52.4942L78.4878 52.7294L78.0466 52.9646L79.5202 55.7289L79.9614 55.4937ZM78.4878 52.7294L77.9914 52.6695L77.7763 54.4527L78.2727 54.5126L78.7691 54.5725L78.9842 52.7893L78.4878 52.7294ZM78.2727 54.5126L77.7764 54.4521L77.7762 54.4523L77.3273 54.6724L76.8784 54.8926C77.3167 55.7863 78.6488 55.5603 78.769 54.573L78.2727 54.5126ZM77.3273 54.6724L77.7763 54.4524L76.2968 51.433L75.8478 51.653L75.3988 51.873L76.8783 54.8924L77.3273 54.6724ZM75.8478 51.653L76.2967 51.4328C75.6533 50.1212 73.7046 50.4094 73.4695 51.852L73.963 51.9324L74.4565 52.0129C74.5348 51.5323 75.1843 51.4358 75.3989 51.8732L75.8478 51.653ZM73.963 51.9324L73.4694 51.8525L73.3956 52.3087L73.8891 52.3886L74.3827 52.4685L74.4565 52.0123L73.963 51.9324ZM73.8891 52.3886L73.3956 52.3081C73.3976 52.2963 73.4074 52.2303 73.4628 52.1532C73.4908 52.1143 73.5742 52.0121 73.7319 51.9733C73.9172 51.9278 74.0666 52.0009 74.1443 52.0639L73.8294 52.4523L73.5145 52.8407C73.608 52.9165 73.772 52.9932 73.9705 52.9444C74.1413 52.9025 74.2364 52.7902 74.2746 52.7372C74.3503 52.6319 74.3741 52.5212 74.3826 52.469L73.8891 52.3886ZM73.8294 52.4523L74.1449 52.0644C74.1802 52.0931 74.19 52.1124 74.1699 52.0848C74.1557 52.0652 74.1342 52.0327 74.1042 51.9834C74.0443 51.8852 73.9662 51.7457 73.8668 51.5622C73.6607 51.1818 73.4107 50.7017 73.061 50.0529C72.3794 48.7885 71.4078 47.0519 70.1123 45.0582L69.693 45.3307L69.2738 45.6031C70.5492 47.5658 71.5066 49.2768 72.1808 50.5274C72.5089 51.1362 72.7936 51.6806 72.9875 52.0385C73.0881 52.2242 73.1763 52.3824 73.2501 52.5037C73.287 52.5641 73.3242 52.6219 73.3606 52.6721C73.3913 52.7144 73.4438 52.7832 73.5139 52.8402L73.8294 52.4523ZM69.693 45.3307L70.1123 45.0583C69.4726 44.0738 69.2198 43.1697 69.211 42.3568C69.2023 41.5418 69.4387 40.786 69.8273 40.1011C70.6121 38.7177 71.9978 37.6614 73.0785 37.0986L72.8476 36.6551L72.6167 36.2117C71.4295 36.8298 69.868 38.0028 68.9575 39.6077C68.4984 40.417 68.2001 41.3451 68.2111 42.3676C68.2221 43.3922 68.5434 44.4791 69.2738 45.6031L69.693 45.3307ZM72.8476 36.6551L73.0785 37.0986C73.1117 37.0813 73.1521 37.067 73.2076 37.0559L73.1094 36.5656L73.0112 36.0754C72.883 36.101 72.7496 36.1424 72.6167 36.2117L72.8476 36.6551ZM73.1094 36.5656L73.2076 37.0559C74.3291 36.8312 75.9808 36.289 77.4575 35.347C78.9317 34.4067 80.2918 33.0273 80.6985 31.1111L80.2094 31.0073L79.7203 30.9035C79.391 32.455 78.2748 33.6396 76.9198 34.504C75.5673 35.3667 74.037 35.8698 73.0112 36.0754L73.1094 36.5656ZM80.2094 31.0073L80.6985 31.1111C81.096 29.238 80.2179 27.7177 79.0111 26.6029C77.8093 25.4927 76.2228 24.7211 74.9977 24.2923L74.8325 24.7643L74.6674 25.2362C75.8167 25.6385 77.2659 26.352 78.3326 27.3374C79.3942 28.3182 80.0173 29.5039 79.7203 30.9035L80.2094 31.0073ZM74.8325 24.7643L74.9977 24.2923C74.9833 24.2873 74.9729 24.2772 74.9674 24.2652C74.9647 24.2595 74.964 24.2549 74.964 24.2521C74.9639 24.2498 74.9642 24.2474 74.9658 24.2435L74.5066 24.0458L74.0473 23.8481C73.803 24.4155 74.1149 25.0429 74.6674 25.2362L74.8325 24.7643Z" fill="#DD9A46"/>
<path d="M48.1388 70.9713C48.5104 71.9046 46.6551 75.1661 45.681 76.6801C48.5921 78.9001 58.5029 80.1875 61.5332 79.1545C70.4586 76.1121 73.2993 72.4837 73.3186 73.1112C73.3753 74.951 74.4042 74.7064 74.8308 75.2123C75.4142 74.9801 76.8379 74.143 77.8664 72.6524C81.7685 75.6643 83.9697 71.5742 84.8663 69.8657L84.6341 69.2824C83.7393 69.8639 81.7164 71.1197 80.783 71.4913C79.8497 71.8628 78.6082 70.555 78.1042 69.8546C77.8323 69.7376 77.1719 69.5499 76.7053 69.7357C76.2386 69.9215 75.1138 68.5672 74.6097 67.8668L72.5086 69.3791C72.0423 69.3394 70.6907 68.8864 69.0142 67.3913C62.4787 71.3446 47.6744 69.8046 48.1388 70.9713Z" fill="white"/>
</svg>
