<svg xmlns="http://www.w3.org/2000/svg" viewBox="0 0 1027.86 356.64"><path d="M319.03 232.76h6.86V297h-6.86zM341.3 253h6.69v6.51q2.28-3.345 6.12-5.37c2.55-1.35 5.5-2.02 8.84-2.02 5.92 0 10.59 1.8 13.99 5.41q5.1 5.415 5.1 15v24.46h-6.86v-24.46c0-4.28-1.1-7.73-3.3-10.34s-5.5-3.92-9.9-3.92c-2 0-3.84.37-5.54 1.1s-3.17 1.75-4.4 3.04-2.2 2.82-2.9 4.58-1.06 3.64-1.06 5.63V297h-6.78zm49.27 0h7.39l13.2 34.76L424.18 253h7.3l-17.07 44h-6.78l-17.07-44Zm71.11 44.88c-3.52 0-6.7-.57-9.55-1.72-2.85-1.14-5.28-2.71-7.3-4.71-2.02-1.99-3.58-4.37-4.66-7.13-1.09-2.76-1.63-5.75-1.63-8.98s.57-6.35 1.72-9.2c1.14-2.84 2.73-5.31 4.75-7.39s4.43-3.71 7.22-4.88 5.82-1.76 9.11-1.76 6.12.53 8.84 1.58c2.73 1.06 5.1 2.55 7.13 4.49 2.02 1.94 3.62 4.27 4.8 7 1.17 2.73 1.76 5.76 1.76 9.11v2.9h-38.72c.23 2.17.81 4.15 1.72 5.94s2.1 3.33 3.56 4.62a15.9 15.9 0 0 0 5.06 2.99c1.91.7 3.97 1.06 6.2 1.06 3.58 0 6.61-.84 9.11-2.51 2.49-1.67 4.41-3.86 5.76-6.56l5.9 2.9c-2.05 3.87-4.78 6.88-8.18 9.02s-7.6 3.21-12.58 3.21Zm-.35-39.69c-2 0-3.86.32-5.59.97s-3.29 1.53-4.66 2.64c-1.38 1.12-2.55 2.46-3.52 4.05s-1.66 3.29-2.07 5.1h31.42c-.65-3.99-2.33-7.11-5.06-9.37s-6.23-3.39-10.52-3.39m49.54 39.69c-4.17 0-7.82-.66-10.96-1.98s-5.82-3.3-8.05-5.94l5.37-4.75c1.82 2.11 3.83 3.75 6.03 4.93 2.2 1.17 4.85 1.76 7.96 1.76q5.28 0 7.92-2.16c1.76-1.44 2.64-3.18 2.64-5.24 0-1.23-.37-2.23-1.1-2.99s-1.69-1.39-2.86-1.89-2.49-.92-3.96-1.28c-1.47-.35-2.96-.7-4.49-1.06-1.76-.41-3.54-.89-5.32-1.45-1.79-.56-3.39-1.29-4.8-2.2a11.55 11.55 0 0 1-3.48-3.48c-.91-1.41-1.36-3.2-1.36-5.37 0-1.64.37-3.23 1.1-4.75.73-1.53 1.8-2.89 3.21-4.09s3.12-2.16 5.15-2.86c2.02-.7 4.3-1.06 6.82-1.06 3.58 0 6.82.56 9.72 1.67q4.35 1.68 7.44 5.1l-5.19 4.22c-1.53-1.76-3.21-3.07-5.06-3.92s-4.15-1.28-6.91-1.28c-3.17 0-5.56.67-7.17 2.02s-2.42 2.96-2.42 4.84c0 1.12.31 2.02.92 2.73s1.45 1.29 2.51 1.76 2.3.88 3.74 1.23q2.16.525 4.71 1.14c1.82.41 3.65.89 5.5 1.45s3.5 1.32 4.97 2.29 2.67 2.19 3.61 3.65c.94 1.47 1.41 3.32 1.41 5.54 0 1.7-.37 3.34-1.1 4.93s-1.83 3.01-3.3 4.27-3.3 2.27-5.5 3.04-4.77 1.14-7.7 1.14ZM536.48 253h7.57v-10.38l6.86-3.78v14.17h10.38v6.16h-10.38v20.94c0 2.23.13 4.04.4 5.41.26 1.38.78 2.45 1.54 3.21s1.82 1.26 3.17 1.5 3.11.35 5.28.35V297h-.97c-3.23 0-5.88-.26-7.96-.79s-3.74-1.42-4.97-2.68-2.1-2.98-2.6-5.15-.75-4.9-.75-8.18v-21.03h-7.57v-6.16Zm36.78 0h6.69v5.98c1.47-2.11 3.39-3.78 5.76-5.02 2.38-1.23 5.15-1.85 8.32-1.85 3.99 0 7.29.84 9.9 2.51s4.53 3.83 5.76 6.47c1.41-2.7 3.49-4.87 6.25-6.51s5.98-2.46 9.68-2.46q4.755 0 8.4 1.41c2.43.94 4.49 2.24 6.16 3.92s2.93 3.67 3.78 5.98c.85 2.32 1.28 4.88 1.28 7.7V297h-6.86v-26.31c0-3.7-1.14-6.7-3.43-9.02q-3.435-3.48-9.42-3.48c-1.82 0-3.51.29-5.06.88a11.6 11.6 0 0 0-4.09 2.6c-1.17 1.14-2.1 2.54-2.77 4.18s-1.01 3.49-1.01 5.54V297h-6.78v-27.1q0-5.28-3.39-8.49c-2.26-2.14-5.24-3.21-8.93-3.21-1.94 0-3.73.32-5.37.97s-3.07 1.55-4.27 2.73c-1.2 1.17-2.14 2.64-2.82 4.4-.67 1.76-1.01 3.73-1.01 5.9v24.82h-6.78v-44Zm107.1 44.88c-3.52 0-6.7-.57-9.55-1.72-2.85-1.14-5.28-2.71-7.3-4.71-2.02-1.99-3.58-4.37-4.66-7.13-1.09-2.76-1.63-5.75-1.63-8.98s.57-6.35 1.72-9.2c1.14-2.84 2.73-5.31 4.75-7.39s4.43-3.71 7.22-4.88 5.82-1.76 9.11-1.76 6.12.53 8.84 1.58c2.73 1.06 5.1 2.55 7.13 4.49 2.02 1.94 3.62 4.27 4.8 7 1.17 2.73 1.76 5.76 1.76 9.11v2.9h-38.72c.23 2.17.81 4.15 1.72 5.94s2.1 3.33 3.56 4.62a15.9 15.9 0 0 0 5.06 2.99c1.91.7 3.97 1.06 6.2 1.06 3.58 0 6.61-.84 9.11-2.51 2.49-1.67 4.41-3.86 5.76-6.56l5.9 2.9c-2.05 3.87-4.78 6.88-8.18 9.02s-7.6 3.21-12.58 3.21Zm-.35-39.69c-2 0-3.86.32-5.59.97s-3.29 1.53-4.66 2.64c-1.38 1.12-2.55 2.46-3.52 4.05s-1.66 3.29-2.07 5.1h31.42c-.65-3.99-2.33-7.11-5.06-9.37s-6.23-3.39-10.52-3.39m34.67-5.19h6.69v6.51q2.28-3.345 6.12-5.37c2.55-1.35 5.5-2.02 8.84-2.02 5.92 0 10.59 1.8 13.99 5.41q5.1 5.415 5.1 15v24.46h-6.86v-24.46c0-4.28-1.1-7.73-3.3-10.34s-5.5-3.92-9.9-3.92c-2 0-3.84.37-5.54 1.1s-3.17 1.75-4.4 3.04-2.2 2.82-2.9 4.58-1.06 3.64-1.06 5.63V297h-6.78zm49.19 0h7.57v-10.38l6.86-3.78v14.17h10.38v6.16H778.3v20.94c0 2.23.13 4.04.4 5.41.26 1.38.78 2.45 1.54 3.21s1.82 1.26 3.17 1.5 3.11.35 5.28.35V297h-.97c-3.23 0-5.88-.26-7.96-.79s-3.74-1.42-4.97-2.68-2.1-2.98-2.6-5.15-.75-4.9-.75-8.18v-21.03h-7.57v-6.16Zm52.53 44.88c-4.17 0-7.82-.66-10.96-1.98s-5.82-3.3-8.05-5.94l5.37-4.75c1.82 2.11 3.83 3.75 6.03 4.93 2.2 1.17 4.85 1.76 7.96 1.76q5.28 0 7.92-2.16c1.76-1.44 2.64-3.18 2.64-5.24 0-1.23-.37-2.23-1.1-2.99s-1.69-1.39-2.86-1.89-2.49-.92-3.96-1.28c-1.47-.35-2.96-.7-4.49-1.06-1.76-.41-3.54-.89-5.32-1.45-1.79-.56-3.39-1.29-4.8-2.2a11.55 11.55 0 0 1-3.48-3.48c-.91-1.41-1.36-3.2-1.36-5.37 0-1.64.37-3.23 1.1-4.75.73-1.53 1.8-2.89 3.21-4.09s3.12-2.16 5.15-2.86c2.02-.7 4.3-1.06 6.82-1.06 3.58 0 6.82.56 9.72 1.67q4.35 1.68 7.44 5.1l-5.19 4.22c-1.53-1.76-3.21-3.07-5.06-3.92s-4.15-1.28-6.91-1.28c-3.17 0-5.56.67-7.17 2.02s-2.42 2.96-2.42 4.84c0 1.12.31 2.02.92 2.73s1.45 1.29 2.51 1.76 2.3.88 3.74 1.23q2.16.525 4.71 1.14c1.82.41 3.65.89 5.5 1.45s3.5 1.32 4.97 2.29 2.67 2.19 3.61 3.65c.94 1.47 1.41 3.32 1.41 5.54 0 1.7-.37 3.34-1.1 4.93s-1.83 3.01-3.3 4.27-3.3 2.27-5.5 3.04-4.77 1.14-7.7 1.14Zm-364.94-98.23c-6.57 0-12.58-1.11-18.04-3.34s-10.1-5.26-13.94-9.1-6.82-8.4-8.93-13.69c-2.12-5.29-3.17-10.94-3.17-16.95s1.11-11.86 3.34-17.2 5.29-9.96 9.19-13.86 8.49-6.99 13.78-9.27 10.99-3.42 17.12-3.42 11.83 1.06 17.12 3.17c5.29 2.12 9.82 5.07 13.61 8.85 3.78 3.79 6.76 8.29 8.93 13.53 2.17 5.23 3.26 10.91 3.26 17.03v7.01h-69.14c1.22 6.46 4.18 11.63 8.85 15.53 4.68 3.9 10.69 5.85 18.04 5.85 5.68 0 10.6-1.36 14.78-4.09s7.37-6.37 9.6-10.94l14.7 8.18c-3.67 6.9-8.77 12.42-15.28 16.53-6.51 4.12-14.45 6.18-23.8 6.18Zm-.67-71.14c-6.24 0-11.61 1.73-16.12 5.18q-6.765 5.175-9.27 13.53h50.1c-1.34-6.01-4.17-10.63-8.52-13.86-4.34-3.23-9.74-4.84-16.2-4.84ZM701 199.65c-6.57 0-12.58-1.11-18.04-3.34s-10.1-5.26-13.94-9.1-6.82-8.4-8.93-13.69c-2.12-5.29-3.17-10.94-3.17-16.95s1.11-11.86 3.34-17.2 5.29-9.96 9.19-13.86 8.49-6.99 13.78-9.27 10.99-3.42 17.12-3.42 11.83 1.06 17.12 3.17c5.29 2.12 9.83 5.07 13.61 8.85 3.78 3.79 6.76 8.29 8.93 13.53 2.17 5.23 3.26 10.91 3.26 17.03v7.01h-69.14c1.22 6.46 4.17 11.63 8.85 15.53s10.69 5.85 18.04 5.85c5.68 0 10.6-1.36 14.78-4.09s7.37-6.37 9.6-10.94l14.7 8.18c-3.67 6.9-8.77 12.42-15.28 16.53-6.51 4.12-14.45 6.18-23.8 6.18Zm-.66-71.14c-6.24 0-11.61 1.73-16.12 5.18q-6.765 5.175-9.27 13.53h50.1c-1.34-6.01-4.17-10.63-8.52-13.86-4.34-3.23-9.74-4.84-16.2-4.84Zm96.69 71.07c-6.57 0-12.58-1.11-18.04-3.34s-10.1-5.26-13.94-9.1-6.82-8.4-8.94-13.69-3.17-10.94-3.17-16.95 1.11-11.86 3.34-17.2c2.22-5.34 5.29-9.96 9.18-13.86 3.9-3.9 8.49-6.99 13.78-9.27s10.99-3.42 17.12-3.42 11.83 1.06 17.12 3.17c5.29 2.12 9.82 5.07 13.61 8.85 3.78 3.79 6.76 8.29 8.93 13.53 2.17 5.23 3.26 10.91 3.26 17.03v7.01h-69.14c1.22 6.46 4.17 11.63 8.85 15.53s10.69 5.85 18.04 5.85c5.68 0 10.6-1.36 14.78-4.09 4.17-2.73 7.37-6.37 9.6-10.94l14.7 8.18c-3.67 6.9-8.77 12.42-15.28 16.53-6.51 4.12-14.45 6.18-23.8 6.18m-.67-71.14c-6.24 0-11.61 1.73-16.12 5.18q-6.765 5.175-9.27 13.53h50.1c-1.34-6.01-4.17-10.63-8.52-13.86-4.34-3.23-9.74-4.84-16.2-4.84Zm-441.61 54.85q5.46 0 10.26-2.07c3.2-1.38 5.98-3.28 8.35-5.71s4.22-5.29 5.54-8.6 1.99-6.84 1.99-10.59-.66-7.25-1.99-10.51c-1.32-3.25-3.17-6.09-5.54-8.52-2.37-2.42-5.16-4.33-8.35-5.71q-4.8-2.07-10.26-2.07c-5.46 0-7.2.72-10.34 2.15a26.4 26.4 0 0 0-8.19 5.79q-3.48 3.645-5.46 8.52c-1.32 3.25-1.99 6.7-1.99 10.34s.66 7.25 1.99 10.51c1.32 3.25 3.14 6.1 5.46 8.52q3.48 3.645 8.19 5.79c3.14 1.43 6.59 2.15 10.34 2.15Zm2.65 16.21c-5.62 0-10.89-1.13-15.8-3.39s-8.91-5.43-11.99-9.51v11.38h-17.37V77.07h17.54v49.14c3.09-3.86 7.03-6.95 11.83-9.27s10.01-3.47 15.64-3.47 10.59.99 15.55 2.98 9.35 4.85 13.15 8.6c3.81 3.75 6.84 8.27 9.1 13.57 2.26 5.29 3.39 11.25 3.39 17.87s-1.16 12.57-3.47 17.87c-2.32 5.29-5.38 9.79-9.18 13.48a41.5 41.5 0 0 1-13.07 8.6 39.5 39.5 0 0 1-15.31 3.06Zm255.41-18.36q4.71-2.145 8.19-5.79c2.32-2.42 4.14-5.27 5.46-8.52s1.99-6.76 1.99-10.51-.66-7.09-1.99-10.34q-1.98-4.875-5.46-8.52a26.4 26.4 0 0 0-8.19-5.79c-3.14-1.43-6.59-2.15-10.34-2.15s-7.06.69-10.26 2.07-5.98 3.28-8.35 5.71-4.22 5.27-5.54 8.52-1.99 6.76-1.99 10.51.66 7.28 1.99 10.59c1.32 3.31 3.17 6.18 5.54 8.6 2.37 2.43 5.16 4.33 8.35 5.71q4.8 2.07 10.26 2.07c5.46 0 7.2-.72 10.34-2.15Zm-28.29 15.3a41.5 41.5 0 0 1-13.07-8.6c-3.81-3.69-6.87-8.19-9.18-13.48-2.31-5.3-3.47-11.25-3.47-17.87s1.13-12.57 3.39-17.87c2.26-5.29 5.29-9.82 9.1-13.57 3.8-3.75 8.19-6.62 13.15-8.6 4.96-1.99 10.15-2.98 15.55-2.98s10.84 1.16 15.64 3.47c4.8 2.32 8.74 5.41 11.83 9.27V77.07H645v120.91h-17.37V186.6c-3.09 4.08-7.08 7.25-11.99 9.51s-10.18 3.39-15.8 3.39a39.5 39.5 0 0 1-15.3-3.06Zm-79.03-82.97h17.72v12.75c2.21-4.08 5.19-7.23 8.94-9.44s8.39-3.31 13.91-3.31h9.77v16.89h-12.42c-7.28 0-12.45 1.99-15.48 5.96-3.04 3.97-4.55 10.27-4.55 18.87l.08 42.79h-17.97v-84.52Zm388.26 18.32c13.48 0 24.44 10.96 24.44 24.44v41.75h18.32v-41.75c0-23.62-19.15-42.76-42.76-42.76-23.62 0-42.76 19.15-42.76 42.76v41.75h18.32v-41.75c0-13.48 10.96-24.44 24.44-24.44m-612.89 35.1c-1.32 3.31-3.17 6.18-5.54 8.6-2.37 2.43-5.16 4.33-8.36 5.71q-4.8 2.07-10.26 2.07c-5.46 0-7.2-.72-10.34-2.15q-4.71-2.145-8.19-5.79c-2.32-2.42-4.14-5.27-5.46-8.52s-1.99-6.76-1.99-10.51.66-7.09 1.99-10.34q1.98-4.875 5.46-8.52c2.32-2.42 5.05-4.36 8.19-5.79s6.59-2.15 10.34-2.15 7.06.69 10.26 2.07 5.98 3.28 8.36 5.71c2.37 2.43 4.22 5.27 5.54 8.52s1.99 6.76 1.99 10.51-.66 7.28-1.99 10.59Zm15.98-27.37c-2.21-5.25-5.22-9.81-9.03-13.67-3.81-3.87-8.32-6.9-13.51-9.12-5.2-2.21-10.77-3.31-16.74-3.31s-11.55 1.11-16.74 3.31c-5.19 2.21-9.75 5.25-13.67 9.12s-6.99 8.43-9.2 13.67c-2.21 5.25-3.32 10.91-3.32 16.99s1.1 11.74 3.32 16.99q3.315 7.875 9.03 13.59c3.81 3.81 8.29 6.82 13.43 9.03s10.69 3.31 16.66 3.31c5.52 0 10.47-1.08 14.83-3.23 4.36-2.16 7.98-5.16 10.86-9.03v10.8h17.4V156.5c0-6.08-1.11-11.74-3.32-16.99Zm-127.6 52.19c-1.66 0-3.01 1.35-3.01 3.01s1.35 3.01 3.01 3.01 3.01-1.35 3.01-3.01-1.35-3.01-3.01-3.01m-6.03 0c-1.66 0-3.01 1.35-3.01 3.01s1.35 3.01 3.01 3.01 3.01-1.35 3.01-3.01-1.35-3.01-3.01-3.01m18.08 0c-1.66 0-3.01 1.35-3.01 3.01s1.35 3.01 3.01 3.01 3.01-1.35 3.01-3.01-1.35-3.01-3.01-3.01m-6.03 0c-1.66 0-3.01 1.35-3.01 3.01s1.35 3.01 3.01 3.01 3.01-1.35 3.01-3.01-1.35-3.01-3.01-3.01m-6.02-6.02c-1.66 0-3.01 1.35-3.01 3.01s1.35 3.01 3.01 3.01 3.01-1.35 3.01-3.01-1.35-3.01-3.01-3.01m-6.03 0c-1.66 0-3.01 1.35-3.01 3.01s1.35 3.01 3.01 3.01 3.01-1.35 3.01-3.01-1.35-3.01-3.01-3.01m18.08 0c-1.66 0-3.01 1.35-3.01 3.01s1.35 3.01 3.01 3.01 3.01-1.35 3.01-3.01-1.35-3.01-3.01-3.01m-6.03 0c-1.66 0-3.01 1.35-3.01 3.01s1.35 3.01 3.01 3.01 3.01-1.35 3.01-3.01-1.35-3.01-3.01-3.01m-6.02-6.03c-1.66 0-3.01 1.35-3.01 3.01s1.35 3.01 3.01 3.01 3.01-1.35 3.01-3.01-1.35-3.01-3.01-3.01m-6.03 0c-1.66 0-3.01 1.35-3.01 3.01s1.35 3.01 3.01 3.01 3.01-1.35 3.01-3.01-1.35-3.01-3.01-3.01m18.08 0c-1.66 0-3.01 1.35-3.01 3.01s1.35 3.01 3.01 3.01 3.01-1.35 3.01-3.01-1.35-3.01-3.01-3.01m-6.03 0c-1.66 0-3.01 1.35-3.01 3.01s1.35 3.01 3.01 3.01 3.01-1.35 3.01-3.01-1.35-3.01-3.01-3.01m-6.02-6.02c-1.66 0-3.01 1.35-3.01 3.01s1.35 3.01 3.01 3.01 3.01-1.35 3.01-3.01-1.35-3.01-3.01-3.01m-6.03 0c-1.66 0-3.01 1.35-3.01 3.01s1.35 3.01 3.01 3.01 3.01-1.35 3.01-3.01-1.35-3.01-3.01-3.01m18.08 0c-1.66 0-3.01 1.35-3.01 3.01s1.35 3.01 3.01 3.01 3.01-1.35 3.01-3.01-1.35-3.01-3.01-3.01m-6.03 0c-1.66 0-3.01 1.35-3.01 3.01s1.35 3.01 3.01 3.01 3.01-1.35 3.01-3.01-1.35-3.01-3.01-3.01m-6.02-6.03c-1.66 0-3.01 1.35-3.01 3.01s1.35 3.01 3.01 3.01 3.01-1.35 3.01-3.01-1.35-3.01-3.01-3.01m-6.03 0c-1.66 0-3.01 1.35-3.01 3.01s1.35 3.01 3.01 3.01 3.01-1.35 3.01-3.01-1.35-3.01-3.01-3.01m18.08 0c-1.66 0-3.01 1.35-3.01 3.01s1.35 3.01 3.01 3.01 3.01-1.35 3.01-3.01-1.35-3.01-3.01-3.01m-6.03 0c-1.66 0-3.01 1.35-3.01 3.01s1.35 3.01 3.01 3.01 3.01-1.35 3.01-3.01-1.35-3.01-3.01-3.01m-6.02-6.02c-1.66 0-3.01 1.35-3.01 3.01s1.35 3.01 3.01 3.01 3.01-1.35 3.01-3.01-1.35-3.01-3.01-3.01m-6.03 0c-1.66 0-3.01 1.35-3.01 3.01s1.35 3.01 3.01 3.01 3.01-1.35 3.01-3.01-1.35-3.01-3.01-3.01m18.08 0c-1.66 0-3.01 1.35-3.01 3.01s1.35 3.01 3.01 3.01 3.01-1.35 3.01-3.01-1.35-3.01-3.01-3.01m-6.03 0c-1.66 0-3.01 1.35-3.01 3.01s1.35 3.01 3.01 3.01 3.01-1.35 3.01-3.01-1.35-3.01-3.01-3.01m-6.02-6.03c-1.66 0-3.01 1.35-3.01 3.01s1.35 3.01 3.01 3.01 3.01-1.35 3.01-3.01-1.35-3.01-3.01-3.01m-6.03 0c-1.66 0-3.01 1.35-3.01 3.01s1.35 3.01 3.01 3.01 3.01-1.35 3.01-3.01-1.35-3.01-3.01-3.01m18.08 0c-1.66 0-3.01 1.35-3.01 3.01s1.35 3.01 3.01 3.01 3.01-1.35 3.01-3.01-1.35-3.01-3.01-3.01m-6.03 0c-1.66 0-3.01 1.35-3.01 3.01s1.35 3.01 3.01 3.01 3.01-1.35 3.01-3.01-1.35-3.01-3.01-3.01m-6.02-6.02c-1.66 0-3.01 1.35-3.01 3.01s1.35 3.01 3.01 3.01 3.01-1.35 3.01-3.01-1.35-3.01-3.01-3.01m-6.03 0c-1.66 0-3.01 1.35-3.01 3.01s1.35 3.01 3.01 3.01 3.01-1.35 3.01-3.01-1.35-3.01-3.01-3.01m18.08 0c-1.66 0-3.01 1.35-3.01 3.01s1.35 3.01 3.01 3.01 3.01-1.35 3.01-3.01-1.35-3.01-3.01-3.01m-6.03 0c-1.66 0-3.01 1.35-3.01 3.01s1.35 3.01 3.01 3.01 3.01-1.35 3.01-3.01-1.35-3.01-3.01-3.01m-6.02-6.03c-1.66 0-3.01 1.35-3.01 3.01s1.35 3.01 3.01 3.01 3.01-1.35 3.01-3.01-1.35-3.01-3.01-3.01m-6.03 0c-1.66 0-3.01 1.35-3.01 3.01s1.35 3.01 3.01 3.01 3.01-1.35 3.01-3.01-1.35-3.01-3.01-3.01m18.08 0c-1.66 0-3.01 1.35-3.01 3.01s1.35 3.01 3.01 3.01 3.01-1.35 3.01-3.01-1.35-3.01-3.01-3.01m-6.03 0c-1.66 0-3.01 1.35-3.01 3.01s1.35 3.01 3.01 3.01 3.01-1.35 3.01-3.01-1.35-3.01-3.01-3.01m-6.02-6.02c-1.66 0-3.01 1.35-3.01 3.01s1.35 3.01 3.01 3.01 3.01-1.35 3.01-3.01-1.35-3.01-3.01-3.01m-6.03 0c-1.66 0-3.01 1.35-3.01 3.01s1.35 3.01 3.01 3.01 3.01-1.35 3.01-3.01-1.35-3.01-3.01-3.01m18.08 0c-1.66 0-3.01 1.35-3.01 3.01s1.35 3.01 3.01 3.01 3.01-1.35 3.01-3.01-1.35-3.01-3.01-3.01m-6.03 0c-1.66 0-3.01 1.35-3.01 3.01s1.35 3.01 3.01 3.01 3.01-1.35 3.01-3.01-1.35-3.01-3.01-3.01m-6.02-6.02c-1.66 0-3.01 1.35-3.01 3.01s1.35 3.01 3.01 3.01 3.01-1.35 3.01-3.01-1.35-3.01-3.01-3.01m-6.03 0c-1.66 0-3.01 1.35-3.01 3.01s1.35 3.01 3.01 3.01 3.01-1.35 3.01-3.01-1.35-3.01-3.01-3.01m18.08 0c-1.66 0-3.01 1.35-3.01 3.01s1.35 3.01 3.01 3.01 3.01-1.35 3.01-3.01-1.35-3.01-3.01-3.01m-6.03 0c-1.66 0-3.01 1.35-3.01 3.01s1.35 3.01 3.01 3.01 3.01-1.35 3.01-3.01-1.35-3.01-3.01-3.01m-6.02-6.03c-1.66 0-3.01 1.35-3.01 3.01s1.35 3.01 3.01 3.01 3.01-1.35 3.01-3.01-1.35-3.01-3.01-3.01m-6.03 0c-1.66 0-3.01 1.35-3.01 3.01s1.35 3.01 3.01 3.01 3.01-1.35 3.01-3.01-1.35-3.01-3.01-3.01m18.08 0c-1.66 0-3.01 1.35-3.01 3.01s1.35 3.01 3.01 3.01 3.01-1.35 3.01-3.01-1.35-3.01-3.01-3.01m-6.03 0c-1.66 0-3.01 1.35-3.01 3.01s1.35 3.01 3.01 3.01 3.01-1.35 3.01-3.01-1.35-3.01-3.01-3.01"/><path d="M169.24 119.42c-1.66 0-3.01 1.35-3.01 3.01s1.35 3.01 3.01 3.01 3.01-1.35 3.01-3.01-1.35-3.01-3.01-3.01m-6.03 0c-1.66 0-3.01 1.35-3.01 3.01s1.35 3.01 3.01 3.01 3.01-1.35 3.01-3.01-1.35-3.01-3.01-3.01m18.08 0c-1.66 0-3.01 1.35-3.01 3.01s1.35 3.01 3.01 3.01 3.01-1.35 3.01-3.01-1.35-3.01-3.01-3.01m-6.03 0c-1.66 0-3.01 1.35-3.01 3.01s1.35 3.01 3.01 3.01 3.01-1.35 3.01-3.01-1.35-3.01-3.01-3.01m-6.02-6.03c-1.66 0-3.01 1.35-3.01 3.01s1.35 3.01 3.01 3.01 3.01-1.35 3.01-3.01-1.35-3.01-3.01-3.01m-6.03 0c-1.66 0-3.01 1.35-3.01 3.01s1.35 3.01 3.01 3.01 3.01-1.35 3.01-3.01-1.35-3.01-3.01-3.01m18.08 0c-1.66 0-3.01 1.35-3.01 3.01s1.35 3.01 3.01 3.01 3.01-1.35 3.01-3.01-1.35-3.01-3.01-3.01m-6.03 0c-1.66 0-3.01 1.35-3.01 3.01s1.35 3.01 3.01 3.01 3.01-1.35 3.01-3.01-1.35-3.01-3.01-3.01"/><path d="M169.24 107.37c-1.66 0-3.01 1.35-3.01 3.01s1.35 3.01 3.01 3.01 3.01-1.35 3.01-3.01-1.35-3.01-3.01-3.01m-6.03 0c-1.66 0-3.01 1.35-3.01 3.01s1.35 3.01 3.01 3.01 3.01-1.35 3.01-3.01-1.35-3.01-3.01-3.01m18.08 0c-1.66 0-3.01 1.35-3.01 3.01s1.35 3.01 3.01 3.01 3.01-1.35 3.01-3.01-1.35-3.01-3.01-3.01m-6.03 0c-1.66 0-3.01 1.35-3.01 3.01s1.35 3.01 3.01 3.01 3.01-1.35 3.01-3.01-1.35-3.01-3.01-3.01m-6.02-6.03c-1.66 0-3.01 1.35-3.01 3.01s1.35 3.01 3.01 3.01 3.01-1.35 3.01-3.01-1.35-3.01-3.01-3.01m-6.03 0c-1.66 0-3.01 1.35-3.01 3.01s1.35 3.01 3.01 3.01 3.01-1.35 3.01-3.01-1.35-3.01-3.01-3.01m18.08 0c-1.66 0-3.01 1.35-3.01 3.01s1.35 3.01 3.01 3.01 3.01-1.35 3.01-3.01-1.35-3.01-3.01-3.01m-6.03 0c-1.66 0-3.01 1.35-3.01 3.01s1.35 3.01 3.01 3.01 3.01-1.35 3.01-3.01-1.35-3.01-3.01-3.01m-6.02-6.02c-1.66 0-3.01 1.35-3.01 3.01s1.35 3.01 3.01 3.01 3.01-1.35 3.01-3.01-1.35-3.01-3.01-3.01m-6.03 0c-1.66 0-3.01 1.35-3.01 3.01s1.35 3.01 3.01 3.01 3.01-1.35 3.01-3.01-1.35-3.01-3.01-3.01m18.08 0c-1.66 0-3.01 1.35-3.01 3.01s1.35 3.01 3.01 3.01 3.01-1.35 3.01-3.01-1.35-3.01-3.01-3.01m-6.03 0c-1.66 0-3.01 1.35-3.01 3.01s1.35 3.01 3.01 3.01 3.01-1.35 3.01-3.01-1.35-3.01-3.01-3.01m-6.02-6.03c-1.66 0-3.01 1.35-3.01 3.01s1.35 3.01 3.01 3.01 3.01-1.35 3.01-3.01-1.35-3.01-3.01-3.01m-6.03 0c-1.66 0-3.01 1.35-3.01 3.01s1.35 3.01 3.01 3.01 3.01-1.35 3.01-3.01-1.35-3.01-3.01-3.01m18.08 0c-1.66 0-3.01 1.35-3.01 3.01s1.35 3.01 3.01 3.01 3.01-1.35 3.01-3.01-1.35-3.01-3.01-3.01m-6.03 0c-1.66 0-3.01 1.35-3.01 3.01s1.35 3.01 3.01 3.01 3.01-1.35 3.01-3.01-1.35-3.01-3.01-3.01m-36.15 102.42c-1.66 0-3.01 1.35-3.01 3.01s1.35 3.01 3.01 3.01 3.01-1.35 3.01-3.01-1.35-3.01-3.01-3.01m6.03-6.02c-1.66 0-3.01 1.35-3.01 3.01s1.35 3.01 3.01 3.01 3.01-1.35 3.01-3.01-1.35-3.01-3.01-3.01m-6.03 0c-1.66 0-3.01 1.35-3.01 3.01s1.35 3.01 3.01 3.01 3.01-1.35 3.01-3.01-1.35-3.01-3.01-3.01m6.03-6.03c-1.66 0-3.01 1.35-3.01 3.01s1.35 3.01 3.01 3.01 3.01-1.35 3.01-3.01-1.35-3.01-3.01-3.01m-6.03 0c-1.66 0-3.01 1.35-3.01 3.01s1.35 3.01 3.01 3.01 3.01-1.35 3.01-3.01-1.35-3.01-3.01-3.01m12.05 0c-1.66 0-3.01 1.35-3.01 3.01s1.35 3.01 3.01 3.01 3.01-1.35 3.01-3.01-1.35-3.01-3.01-3.01m-6.02-6.02c-1.66 0-3.01 1.35-3.01 3.01s1.35 3.01 3.01 3.01 3.01-1.35 3.01-3.01-1.35-3.01-3.01-3.01m-6.03 0c-1.66 0-3.01 1.35-3.01 3.01s1.35 3.01 3.01 3.01 3.01-1.35 3.01-3.01-1.35-3.01-3.01-3.01m18.08 0c-1.66 0-3.01 1.35-3.01 3.01s1.35 3.01 3.01 3.01 3.01-1.35 3.01-3.01-1.35-3.01-3.01-3.01m-6.03 0c-1.66 0-3.01 1.35-3.01 3.01s1.35 3.01 3.01 3.01 3.01-1.35 3.01-3.01-1.35-3.01-3.01-3.01m-6.02-66.27c-1.66 0-3.01 1.35-3.01 3.01s1.35 3.01 3.01 3.01 3.01-1.35 3.01-3.01-1.35-3.01-3.01-3.01m-6.03 0c-1.66 0-3.01 1.35-3.01 3.01s1.35 3.01 3.01 3.01 3.01-1.35 3.01-3.01-1.35-3.01-3.01-3.01m18.08 0c-1.66 0-3.01 1.35-3.01 3.01s1.35 3.01 3.01 3.01 3.01-1.35 3.01-3.01-1.35-3.01-3.01-3.01m-6.03 0c-1.66 0-3.01 1.35-3.01 3.01s1.35 3.01 3.01 3.01 3.01-1.35 3.01-3.01-1.35-3.01-3.01-3.01m-6.02-6.03c-1.66 0-3.01 1.35-3.01 3.01s1.35 3.01 3.01 3.01 3.01-1.35 3.01-3.01-1.35-3.01-3.01-3.01m-6.03 0c-1.66 0-3.01 1.35-3.01 3.01s1.35 3.01 3.01 3.01 3.01-1.35 3.01-3.01-1.35-3.01-3.01-3.01m18.08 0c-1.66 0-3.01 1.35-3.01 3.01s1.35 3.01 3.01 3.01 3.01-1.35 3.01-3.01-1.35-3.01-3.01-3.01m-6.03 0c-1.66 0-3.01 1.35-3.01 3.01s1.35 3.01 3.01 3.01 3.01-1.35 3.01-3.01-1.35-3.01-3.01-3.01m-6.02-6.02c-1.66 0-3.01 1.35-3.01 3.01s1.35 3.01 3.01 3.01 3.01-1.35 3.01-3.01-1.35-3.01-3.01-3.01m-6.03 0c-1.66 0-3.01 1.35-3.01 3.01s1.35 3.01 3.01 3.01 3.01-1.35 3.01-3.01-1.35-3.01-3.01-3.01m18.08 0c-1.66 0-3.01 1.35-3.01 3.01s1.35 3.01 3.01 3.01 3.01-1.35 3.01-3.01-1.35-3.01-3.01-3.01m-6.03 0c-1.66 0-3.01 1.35-3.01 3.01s1.35 3.01 3.01 3.01 3.01-1.35 3.01-3.01-1.35-3.01-3.01-3.01m-6.02-6.03c-1.66 0-3.01 1.35-3.01 3.01s1.35 3.01 3.01 3.01 3.01-1.35 3.01-3.01-1.35-3.01-3.01-3.01m-6.03 0c-1.66 0-3.01 1.35-3.01 3.01s1.35 3.01 3.01 3.01 3.01-1.35 3.01-3.01-1.35-3.01-3.01-3.01m18.08 0c-1.66 0-3.01 1.35-3.01 3.01s1.35 3.01 3.01 3.01 3.01-1.35 3.01-3.01-1.35-3.01-3.01-3.01m-6.03 0c-1.66 0-3.01 1.35-3.01 3.01s1.35 3.01 3.01 3.01 3.01-1.35 3.01-3.01-1.35-3.01-3.01-3.01m-30.12 102.42c-1.66 0-3.01 1.35-3.01 3.01s1.35 3.01 3.01 3.01 3.01-1.35 3.01-3.01-1.35-3.01-3.01-3.01m-6.03 0c-1.66 0-3.01 1.35-3.01 3.01s1.35 3.01 3.01 3.01 3.01-1.35 3.01-3.01-1.35-3.01-3.01-3.01m18.08 0c-1.66 0-3.01 1.35-3.01 3.01s1.35 3.01 3.01 3.01 3.01-1.35 3.01-3.01-1.35-3.01-3.01-3.01m-6.03 0c-1.66 0-3.01 1.35-3.01 3.01s1.35 3.01 3.01 3.01 3.01-1.35 3.01-3.01-1.35-3.01-3.01-3.01m-6.02-6.02c-1.66 0-3.01 1.35-3.01 3.01s1.35 3.01 3.01 3.01 3.01-1.35 3.01-3.01-1.35-3.01-3.01-3.01m-6.03 0c-1.66 0-3.01 1.35-3.01 3.01s1.35 3.01 3.01 3.01 3.01-1.35 3.01-3.01-1.35-3.01-3.01-3.01m18.08 0c-1.66 0-3.01 1.35-3.01 3.01s1.35 3.01 3.01 3.01 3.01-1.35 3.01-3.01-1.35-3.01-3.01-3.01m-6.03 0c-1.66 0-3.01 1.35-3.01 3.01s1.35 3.01 3.01 3.01 3.01-1.35 3.01-3.01-1.35-3.01-3.01-3.01m-6.02-6.03c-1.66 0-3.01 1.35-3.01 3.01s1.35 3.01 3.01 3.01 3.01-1.35 3.01-3.01-1.35-3.01-3.01-3.01m-6.03 0c-1.66 0-3.01 1.35-3.01 3.01s1.35 3.01 3.01 3.01 3.01-1.35 3.01-3.01-1.35-3.01-3.01-3.01m18.08 0c-1.66 0-3.01 1.35-3.01 3.01s1.35 3.01 3.01 3.01 3.01-1.35 3.01-3.01-1.35-3.01-3.01-3.01m-6.03 0c-1.66 0-3.01 1.35-3.01 3.01s1.35 3.01 3.01 3.01 3.01-1.35 3.01-3.01-1.35-3.01-3.01-3.01m-6.02-6.02c-1.66 0-3.01 1.35-3.01 3.01s1.35 3.01 3.01 3.01 3.01-1.35 3.01-3.01-1.35-3.01-3.01-3.01m-6.03 0c-1.66 0-3.01 1.35-3.01 3.01s1.35 3.01 3.01 3.01 3.01-1.35 3.01-3.01-1.35-3.01-3.01-3.01m18.08 0c-1.66 0-3.01 1.35-3.01 3.01s1.35 3.01 3.01 3.01 3.01-1.35 3.01-3.01-1.35-3.01-3.01-3.01m-6.03 0c-1.66 0-3.01 1.35-3.01 3.01s1.35 3.01 3.01 3.01 3.01-1.35 3.01-3.01-1.35-3.01-3.01-3.01m-6.02-66.27c-1.66 0-3.01 1.35-3.01 3.01s1.35 3.01 3.01 3.01 3.01-1.35 3.01-3.01-1.35-3.01-3.01-3.01m-6.03 0c-1.66 0-3.01 1.35-3.01 3.01s1.35 3.01 3.01 3.01 3.01-1.35 3.01-3.01-1.35-3.01-3.01-3.01m18.08 0c-1.66 0-3.01 1.35-3.01 3.01s1.35 3.01 3.01 3.01 3.01-1.35 3.01-3.01-1.35-3.01-3.01-3.01m-6.03 0c-1.66 0-3.01 1.35-3.01 3.01s1.35 3.01 3.01 3.01 3.01-1.35 3.01-3.01-1.35-3.01-3.01-3.01m-6.02-6.03c-1.66 0-3.01 1.35-3.01 3.01s1.35 3.01 3.01 3.01 3.01-1.35 3.01-3.01-1.35-3.01-3.01-3.01m-6.03 0c-1.66 0-3.01 1.35-3.01 3.01s1.35 3.01 3.01 3.01 3.01-1.35 3.01-3.01-1.35-3.01-3.01-3.01m18.08 0c-1.66 0-3.01 1.35-3.01 3.01s1.35 3.01 3.01 3.01 3.01-1.35 3.01-3.01-1.35-3.01-3.01-3.01"/><path d="M127.06 101.34c-1.66 0-3.01 1.35-3.01 3.01s1.35 3.01 3.01 3.01 3.01-1.35 3.01-3.01-1.35-3.01-3.01-3.01m-6.02-6.02c-1.66 0-3.01 1.35-3.01 3.01s1.35 3.01 3.01 3.01 3.01-1.35 3.01-3.01-1.35-3.01-3.01-3.01m-6.03 0c-1.66 0-3.01 1.35-3.01 3.01s1.35 3.01 3.01 3.01 3.01-1.35 3.01-3.01-1.35-3.01-3.01-3.01m18.08 0c-1.66 0-3.01 1.35-3.01 3.01s1.35 3.01 3.01 3.01 3.01-1.35 3.01-3.01-1.35-3.01-3.01-3.01m-6.03 0c-1.66 0-3.01 1.35-3.01 3.01s1.35 3.01 3.01 3.01 3.01-1.35 3.01-3.01-1.35-3.01-3.01-3.01m-6.02-6.03c-1.66 0-3.01 1.35-3.01 3.01s1.35 3.01 3.01 3.01 3.01-1.35 3.01-3.01-1.35-3.01-3.01-3.01m-6.03 0c-1.66 0-3.01 1.35-3.01 3.01s1.35 3.01 3.01 3.01 3.01-1.35 3.01-3.01-1.35-3.01-3.01-3.01m18.08 0c-1.66 0-3.01 1.35-3.01 3.01s1.35 3.01 3.01 3.01 3.01-1.35 3.01-3.01-1.35-3.01-3.01-3.01m-6.03 0c-1.66 0-3.01 1.35-3.01 3.01s1.35 3.01 3.01 3.01 3.01-1.35 3.01-3.01-1.35-3.01-3.01-3.01M96.94 191.71c-1.66 0-3.01 1.35-3.01 3.01s1.35 3.01 3.01 3.01 3.01-1.35 3.01-3.01-1.35-3.01-3.01-3.01m12.05 0c-1.66 0-3.01 1.35-3.01 3.01s1.35 3.01 3.01 3.01 3.01-1.35 3.01-3.01-1.35-3.01-3.01-3.01"/><path d="M102.96 191.71c-1.66 0-3.01 1.35-3.01 3.01s1.35 3.01 3.01 3.01 3.01-1.35 3.01-3.01-1.35-3.01-3.01-3.01m-6.02-6.02c-1.66 0-3.01 1.35-3.01 3.01s1.35 3.01 3.01 3.01 3.01-1.35 3.01-3.01-1.35-3.01-3.01-3.01m-6.03 0c-1.66 0-3.01 1.35-3.01 3.01s1.35 3.01 3.01 3.01 3.01-1.35 3.01-3.01-1.35-3.01-3.01-3.01m18.08 0c-1.66 0-3.01 1.35-3.01 3.01s1.35 3.01 3.01 3.01 3.01-1.35 3.01-3.01-1.35-3.01-3.01-3.01"/><path d="M102.96 185.69c-1.66 0-3.01 1.35-3.01 3.01s1.35 3.01 3.01 3.01 3.01-1.35 3.01-3.01-1.35-3.01-3.01-3.01m-6.02-6.03c-1.66 0-3.01 1.35-3.01 3.01s1.35 3.01 3.01 3.01 3.01-1.35 3.01-3.01-1.35-3.01-3.01-3.01m-6.03 0c-1.66 0-3.01 1.35-3.01 3.01s1.35 3.01 3.01 3.01 3.01-1.35 3.01-3.01-1.35-3.01-3.01-3.01m18.08 0c-1.66 0-3.01 1.35-3.01 3.01s1.35 3.01 3.01 3.01 3.01-1.35 3.01-3.01-1.35-3.01-3.01-3.01"/><path d="M102.96 179.66c-1.66 0-3.01 1.35-3.01 3.01s1.35 3.01 3.01 3.01 3.01-1.35 3.01-3.01-1.35-3.01-3.01-3.01m-6.02-6.02c-1.66 0-3.01 1.35-3.01 3.01s1.35 3.01 3.01 3.01 3.01-1.35 3.01-3.01-1.35-3.01-3.01-3.01m-6.03 0c-1.66 0-3.01 1.35-3.01 3.01s1.35 3.01 3.01 3.01 3.01-1.35 3.01-3.01-1.35-3.01-3.01-3.01m18.08 0c-1.66 0-3.01 1.35-3.01 3.01s1.35 3.01 3.01 3.01 3.01-1.35 3.01-3.01-1.35-3.01-3.01-3.01"/><path d="M102.96 173.64c-1.66 0-3.01 1.35-3.01 3.01s1.35 3.01 3.01 3.01 3.01-1.35 3.01-3.01-1.35-3.01-3.01-3.01m-6.02-6.03c-1.66 0-3.01 1.35-3.01 3.01s1.35 3.01 3.01 3.01 3.01-1.35 3.01-3.01-1.35-3.01-3.01-3.01m-6.03 0c-1.66 0-3.01 1.35-3.01 3.01s1.35 3.01 3.01 3.01 3.01-1.35 3.01-3.01-1.35-3.01-3.01-3.01m6.03-6.02c-1.66 0-3.01 1.35-3.01 3.01s1.35 3.01 3.01 3.01 3.01-1.35 3.01-3.01-1.35-3.01-3.01-3.01m-6.03 0c-1.66 0-3.01 1.35-3.01 3.01s1.35 3.01 3.01 3.01 3.01-1.35 3.01-3.01-1.35-3.01-3.01-3.01m6.03-6.03c-1.66 0-3.01 1.35-3.01 3.01s1.35 3.01 3.01 3.01 3.01-1.35 3.01-3.01-1.35-3.01-3.01-3.01m-6.03 0c-1.66 0-3.01 1.35-3.01 3.01s1.35 3.01 3.01 3.01 3.01-1.35 3.01-3.01-1.35-3.01-3.01-3.01m6.03-6.02c-1.66 0-3.01 1.35-3.01 3.01s1.35 3.01 3.01 3.01 3.01-1.35 3.01-3.01-1.35-3.01-3.01-3.01m-6.03 0c-1.66 0-3.01 1.35-3.01 3.01s1.35 3.01 3.01 3.01 3.01-1.35 3.01-3.01-1.35-3.01-3.01-3.01m6.03-6.03c-1.66 0-3.01 1.35-3.01 3.01s1.35 3.01 3.01 3.01 3.01-1.35 3.01-3.01-1.35-3.01-3.01-3.01m-6.03 0c-1.66 0-3.01 1.35-3.01 3.01s1.35 3.01 3.01 3.01 3.01-1.35 3.01-3.01-1.35-3.01-3.01-3.01m6.03-6.02c-1.66 0-3.01 1.35-3.01 3.01s1.35 3.01 3.01 3.01 3.01-1.35 3.01-3.01-1.35-3.01-3.01-3.01m-6.03 0c-1.66 0-3.01 1.35-3.01 3.01s1.35 3.01 3.01 3.01 3.01-1.35 3.01-3.01-1.35-3.01-3.01-3.01m6.03-6.02c-1.66 0-3.01 1.35-3.01 3.01s1.35 3.01 3.01 3.01 3.01-1.35 3.01-3.01-1.35-3.01-3.01-3.01m-6.03 0c-1.66 0-3.01 1.35-3.01 3.01s1.35 3.01 3.01 3.01 3.01-1.35 3.01-3.01-1.35-3.01-3.01-3.01m6.03-6.03c-1.66 0-3.01 1.35-3.01 3.01s1.35 3.01 3.01 3.01 3.01-1.35 3.01-3.01-1.35-3.01-3.01-3.01m-6.03 0c-1.66 0-3.01 1.35-3.01 3.01s1.35 3.01 3.01 3.01 3.01-1.35 3.01-3.01-1.35-3.01-3.01-3.01"/><path d="M96.94 119.42c-1.66 0-3.01 1.35-3.01 3.01s1.35 3.01 3.01 3.01 3.01-1.35 3.01-3.01-1.35-3.01-3.01-3.01m-6.03 0c-1.66 0-3.01 1.35-3.01 3.01s1.35 3.01 3.01 3.01 3.01-1.35 3.01-3.01-1.35-3.01-3.01-3.01m6.03-6.03c-1.66 0-3.01 1.35-3.01 3.01s1.35 3.01 3.01 3.01 3.01-1.35 3.01-3.01-1.35-3.01-3.01-3.01m-6.03 0c-1.66 0-3.01 1.35-3.01 3.01s1.35 3.01 3.01 3.01 3.01-1.35 3.01-3.01-1.35-3.01-3.01-3.01"/><path d="M96.94 107.37c-1.66 0-3.01 1.35-3.01 3.01s1.35 3.01 3.01 3.01 3.01-1.35 3.01-3.01-1.35-3.01-3.01-3.01m12.05 0c-1.66 0-3.01 1.35-3.01 3.01s1.35 3.01 3.01 3.01 3.01-1.35 3.01-3.01-1.35-3.01-3.01-3.01"/><path d="M102.96 107.37c-1.66 0-3.01 1.35-3.01 3.01s1.35 3.01 3.01 3.01 3.01-1.35 3.01-3.01-1.35-3.01-3.01-3.01m6.03-6.03c-1.66 0-3.01 1.35-3.01 3.01s1.35 3.01 3.01 3.01 3.01-1.35 3.01-3.01-1.35-3.01-3.01-3.01m-6.03 0c-1.66 0-3.01 1.35-3.01 3.01s1.35 3.01 3.01 3.01 3.01-1.35 3.01-3.01-1.35-3.01-3.01-3.01m6.03-6.02c-1.66 0-3.01 1.35-3.01 3.01s1.35 3.01 3.01 3.01 3.01-1.35 3.01-3.01-1.35-3.01-3.01-3.01m-24.1 84.34c-1.66 0-3.01 1.35-3.01 3.01s1.35 3.01 3.01 3.01 3.01-1.35 3.01-3.01-1.35-3.01-3.01-3.01m0-6.02c-1.66 0-3.01 1.35-3.01 3.01s1.35 3.01 3.01 3.01 3.01-1.35 3.01-3.01-1.35-3.01-3.01-3.01m-6.03 0c-1.66 0-3.01 1.35-3.01 3.01s1.35 3.01 3.01 3.01 3.01-1.35 3.01-3.01-1.35-3.01-3.01-3.01m6.03-6.03c-1.66 0-3.01 1.35-3.01 3.01s1.35 3.01 3.01 3.01 3.01-1.35 3.01-3.01-1.35-3.01-3.01-3.01m-6.03 0c-1.66 0-3.01 1.35-3.01 3.01s1.35 3.01 3.01 3.01 3.01-1.35 3.01-3.01-1.35-3.01-3.01-3.01m6.03-6.02c-1.66 0-3.01 1.35-3.01 3.01s1.35 3.01 3.01 3.01 3.01-1.35 3.01-3.01-1.35-3.01-3.01-3.01m-6.03 0c-1.66 0-3.01 1.35-3.01 3.01s1.35 3.01 3.01 3.01 3.01-1.35 3.01-3.01-1.35-3.01-3.01-3.01m6.03-6.03c-1.66 0-3.01 1.35-3.01 3.01s1.35 3.01 3.01 3.01 3.01-1.35 3.01-3.01-1.35-3.01-3.01-3.01m-6.03 0c-1.66 0-3.01 1.35-3.01 3.01s1.35 3.01 3.01 3.01 3.01-1.35 3.01-3.01-1.35-3.01-3.01-3.01m6.03-6.02c-1.66 0-3.01 1.35-3.01 3.01s1.35 3.01 3.01 3.01 3.01-1.35 3.01-3.01-1.35-3.01-3.01-3.01m-6.03 0c-1.66 0-3.01 1.35-3.01 3.01s1.35 3.01 3.01 3.01 3.01-1.35 3.01-3.01-1.35-3.01-3.01-3.01m6.03-6.03c-1.66 0-3.01 1.35-3.01 3.01s1.35 3.01 3.01 3.01 3.01-1.35 3.01-3.01-1.35-3.01-3.01-3.01m-6.03 0c-1.66 0-3.01 1.35-3.01 3.01s1.35 3.01 3.01 3.01 3.01-1.35 3.01-3.01-1.35-3.01-3.01-3.01m6.03-6.02c-1.66 0-3.01 1.35-3.01 3.01s1.35 3.01 3.01 3.01 3.01-1.35 3.01-3.01-1.35-3.01-3.01-3.01m-6.03 0c-1.66 0-3.01 1.35-3.01 3.01s1.35 3.01 3.01 3.01 3.01-1.35 3.01-3.01-1.35-3.01-3.01-3.01m6.03-6.02c-1.66 0-3.01 1.35-3.01 3.01s1.35 3.01 3.01 3.01 3.01-1.35 3.01-3.01-1.35-3.01-3.01-3.01m-6.03 0c-1.66 0-3.01 1.35-3.01 3.01s1.35 3.01 3.01 3.01 3.01-1.35 3.01-3.01-1.35-3.01-3.01-3.01m6.03-6.03c-1.66 0-3.01 1.35-3.01 3.01s1.35 3.01 3.01 3.01 3.01-1.35 3.01-3.01-1.35-3.01-3.01-3.01m-6.03 0c-1.66 0-3.01 1.35-3.01 3.01s1.35 3.01 3.01 3.01 3.01-1.35 3.01-3.01-1.35-3.01-3.01-3.01"/><path d="M84.89 119.42c-1.66 0-3.01 1.35-3.01 3.01s1.35 3.01 3.01 3.01 3.01-1.35 3.01-3.01-1.35-3.01-3.01-3.01"/></svg>