<svg xmlns="http://www.w3.org/2000/svg" width="1024" height="259" viewBox="-1.614 -1.614 225.102 57.026"><path d="M70.5 48.154c.46-1 .5-1.416.5-4.066-1.187.19-2.787.422-4.749.84-3.373.733-3.949 1.998-3.949 3.267 0 1.457 1.152 2.687 3.414 2.687 2.105 0 3.909-.848 4.785-2.728m4.17 5.005-3.17.015s-.275-1.284-.362-2.675c-.922.952-2.63 2.93-6.074 2.93-3.527 0-6.145-2.095-6.145-5.158 0-.964.269-1.92.804-2.725 1.04-1.536 2.966-2.762 8.367-3.185l2.87-.23v-.46c0-1.88 0-5.024-4.046-5.024-2.548 0-3.41 1.234-3.71 2.35L60.4 37.825c.046-.097.097-.199.148-.296 1.08-1.991 3.19-3.22 6.252-3.22 1.677 0 3.853.422 5.275 1.534 2.017 1.533 1.976 4.55 1.976 4.55l.118 9.305s.113 2.7.5 3.46zm101.242-5.005c.459-1 .496-1.416.496-4.066-1.183.19-2.788.422-4.75.84-3.369.733-3.943 1.998-3.943 3.267 0 1.457 1.152 2.687 3.408 2.687 2.11 0 3.91-.848 4.79-2.728m4.164 5.005-3.17.015s-.274-1.284-.361-2.675c-.917.952-2.623 2.93-6.074 2.93-3.525 0-6.14-2.095-6.14-5.158 0-.964.27-1.92.804-2.725 1.04-1.536 2.96-2.762 8.362-3.185l2.874-.23v-.46c0-1.88 0-5.024-4.051-5.024-2.542 0-3.414 1.234-3.704 2.35l-2.803-1.172c.039-.097.091-.199.147-.296 1.077-1.991 3.19-3.22 6.248-3.22 1.683 0 3.858.422 5.28 1.534 2.016 1.533 1.967 4.55 1.967 4.55l.125 9.305s.104 2.7.496 3.46zm-34.601-3.477c-1.04 1.769-3.043 3.791-6.996 3.791-5.356 0-8.434-3.638-8.434-9.744 0-6.812 4.495-9.42 8.321-9.42 3.333 0 6.52 1.84 7.592 6.396.343 1.533.343 2.913.343 3.678h-13.035c-.075 3.031 1.198 6.869 5.482 6.798 1.75-.032 2.982-.826 3.768-2.069zm-12.128-7.485h9.62c-.269-4.744-3.005-5.55-4.829-5.55-2.604 0-4.45 1.911-4.79 5.55m-22.493 7.485c-1.04 1.769-3.041 3.791-6.99 3.791-5.361 0-8.444-3.638-8.444-9.744 0-6.812 4.5-9.42 8.326-9.42 3.327 0 6.52 1.84 7.593 6.396.34 1.533.34 2.913.34 3.678H98.651c-.083 3.031 1.193 6.869 5.478 6.798 1.748-.032 2.98-.826 3.767-2.069zm-12.128-7.485h9.621c-.268-4.744-3.005-5.55-4.83-5.55-2.603 0-4.448 1.911-4.79 5.55m62.012 6.568c-.638 1.244-1.834 2.37-4.19 2.37-2.048 0-5.484-1.29-5.484-7.272 0-1.61.29-7.312 5.295-7.312 2.53 0 3.692 1.376 4.23 2.564l2.854-1.192c-1.757-2.927-4.928-3.609-7.196-3.609-5.778 0-8.57 4.649-8.57 9.779 0 4.438 2.42 9.38 8.835 9.38 3.716 0 5.786-1.793 6.918-3.583zm-47.305-13.758v18.152h3.046V42.864c0-1.345 0-2.721 1.347-4.06.962-.958 2.12-1.377 3.464-1.377 1.657 0 3.353.765 3.888 2.487.194.611.194 1.146.194 2.987v10.258h3.037V42.4c0-1.534 0-2.64-.31-3.715-.88-2.992-3.648-4.149-5.964-4.149-1.074 0-3.962.271-5.656 3.233v-2.763zm-36.608-5.713v2.942H90.39l-13.576 17.82v3.103H94.35v-2.866H80.5L94.007 32.27v-2.976zm-27.273 5.713v18.152h3.042v-8.347c0-1.556-.041-3.4.77-4.715.988-1.61 2.456-2.22 5.442-2.242v-3.143c-1.228.04-4.485.117-6.212 3.54v-3.245zm-6.048-5.719-3.14 1.311v4.408h-2.88v2.537h2.88V49.2c-.04 2.37-.04 4.082 3.486 4.082 1.153 0 2.416-.23 2.95-.306v-2.513c-.612.19-1.417.42-1.992.42-1.304 0-1.304-.918-1.304-3.06V37.545H46.8v-2.537h-3.296zm-9.872 18.814c0 1.948-1.58 2.981-4.274 2.981-2.177 0-3.638-.611-4.448-2.017l-3.221.564c1.252 2.565 3.862 3.793 7.536 3.793 4.988 0 7.593-2.762 7.593-5.702 0-3.781-3.486-4.805-7.497-5.615-1.935-.388-4.209-1.107-4.209-2.823 0-1.223 1.193-2.636 3.583-2.636 2.44 0 3.899 1.66 4.121 2.318l2.83-1.176c-1.295-2.472-3.888-3.48-6.606-3.48-4.192 0-6.974 2.07-6.974 5.356 0 3.739 3.204 4.473 6.308 5.147 2.67.575 5.258 1.232 5.258 3.29M17.744 53.16h3.349l-8.69-23.87H9.09L0 53.158h3.379l2.67-7.32h9.096zM7.062 43.166l3.655-9.918 3.481 9.918z" style="fill:#830050;fill-opacity:1;fill-rule:nonzero;stroke:none"/><path d="M214.127 22.37c-3.573-1.243-12.413-4.537-21.74-5.765-3.205-.421-4.499.719-3.174 3.776 1.298 3.016 4.677 8.072 8.216 11.865 3.535 3.79 7.373 4.809 8.59-1.031q.069-.315.127-.621c.296-1.504.516-2.96.627-4.234a209 209 0 0 0-5.086-2.214c.098 1.34.256 3.654.338 5.433q.016.344.026.663c.106 2.884-.877 2.874-2.518 1.697-1.912-1.367-7.761-9.096-8.433-12.51-.03-.224.076-.231.192-.194l.144.057h.015c1.32.518 5.717 2.254 10.186 4.136 1.783.752 3.573 1.523 5.182 2.253 1.584.716 2.996 1.384 4.052 1.95 1.931 1.031 2.68 1.735 1.87 2.561-4.021 4.081-18.054 9.885-22.9 17.062 0 0-.02.024-.052.069a2 2 0 0 0-.157.255c-.016.027-.027.057-.042.082a6.3 6.3 0 0 0-.702 2.131c-.204 1.569.611 3 2.864 3.608.565.168 1.206.29 1.91.36.122.011.26.022.397.026 4.326.21 15.558-2.25 18.976-3.77 3.532-1.568 2.477-3.128 1.454-3.938-.765-.611-4.7-2.804-6.607-3.86-.507.327-.91.582-1.413.909 3.244 1.982 4.53 2.966 5.289 3.547.29.229.13.498-.302.528-.117.011-.214.016-.347.026-3.082.214-8.922.624-11.664.77-.402.025-.856.045-1.106.055a19 19 0 0 1 1.82-1.476c5.86-4.122 15.635-9.917 18.514-12.408 2.12-1.835 7.907-7.454-4.545-11.802zm-14.222 15.51c-.474.3-.948.601-1.418.913-5.467-3.038-17.218-8.894-18.238-9.424-1.09-.564-2.992-1.328-2.75-3.137.337-2.54 4.743-8.1 6.613-10.383C193.772 4.035 198.352.007 201.366 0q.223 0 .434.028c3.211.42 4.993 3.738 5.207 19.275a112 112 0 0 0-5.875-1.65c-.172-2.255-.593-5.663-.754-6.84-.179-1.327-.437-1.832-.972-1.904-.608-.078-2.086 1.34-3.425 2.714-.613.622-2.335 2.365-4.236 4.28-1.589-.104-2.65.229-3.236 1.002-.467.624-.57 1.478-.29 2.55-1.029 1.027-1.91 1.913-2.47 2.471-2.116 2.109-4.348 3.851-4.464 4.708-.092.696.978 1.422 2.5 2.33 3.72 2.221 12.878 7.174 16.12 8.918" style="fill:#efab00;fill-opacity:1;fill-rule:nonzero;stroke:none"/></svg>