<svg xmlns="http://www.w3.org/2000/svg" width="120" height="38" viewBox="0 0 675.2 208.3"><path d="M322 131c0 25.3-20.5 45.8-45.8 45.8s-45.8-20.5-45.8-45.8V44.2h-31.6V131c0 42.7 34.6 77.3 77.3 77.3s77.3-34.6 77.3-77.3V44.2h-31.6V131Zm101-1.6V0h-31.6v129.4c0 42.7 34.6 77.3 77.3 77.3v-31.6c-25.3 0-45.8-20.5-45.8-45.8Zm166.4-18.6c20.6-14.9 34-39.2 34-66.6h-31.6c0 30.5-24.7 55.2-55.2 55.2h-4.7V0h-31.6v205.2h31.6V131h20.5c30.5 0 55.2 24.7 55.2 55.2v18.9h31.6v-18.9c0-33.9-20.5-63-49.8-75.5ZM86.8 41C65.4 41 46 49.7 31.6 63.8V0H0v205.2h31.6v-19.7c14.4 14.1 33.9 22.8 55.2 22.8 44.5 0 80.5-37.4 80.5-83.7s-36-83.7-80.5-83.7Zm-3.1 135.8c-28.8 0-52.1-23.3-52.1-52.1s23.3-52.1 52.1-52.1 52.1 23.3 52.1 52.1-23.3 52.1-52.1 52.1M663.3 25.4c-3.4 0-6.3-1.1-8.6-3.5-2.3-2.3-3.4-5.1-3.4-8.5s1.1-6.2 3.4-8.5 5.1-3.4 8.5-3.4 6.3 1.2 8.5 3.4c2.2 2.3 3.4 5.1 3.4 8.5s-1.1 6.2-3.3 8.5-5.1 3.4-8.5 3.4Zm-.1-21.9c-2.8 0-5.2 1-7.1 2.9s-2.8 4.3-2.8 7.1 1 5.1 2.8 7.1c1.9 2 4.3 2.9 7.1 2.9s5.2-1 7.1-2.9 2.8-4.3 2.8-7.1-1-5.2-2.8-7.1c-1.9-1.9-4.3-2.9-7.1-2.9m-2.3 12v4.7h-2.6V6.9h5c1.7 0 3 .3 3.9 1s1.3 1.6 1.3 2.9-.2 2.2-.5 2.9q-.45.9-1.8 1.5l2.5 5h-2.8l-2.3-4.7zm0-6.5v4.4h2.7c.8 0 1.4-.2 1.8-.5s.5-.9.5-1.7c0-1.5-.9-2.2-2.8-2.2z"/></svg>