<svg xmlns="http://www.w3.org/2000/svg" id="svg2002" width="161.021" height="41.471" viewBox="0 0 42.603 10.972"><defs id="defs1996"><clipPath id="clip-path"><path id="rect2006" d="M0 0h159.98v40.44H0z" style="fill:none"/></clipPath><style id="style2004">.cls-3{fill:#ffce34}.cls-4{fill:#f57f29}.cls-5{fill:#6a634d}</style></defs><g id="layer1" transform="translate(31.752 -317.844)"><g id="g2104" transform="translate(.132 -.132)"><path id="path2013" d="M-27.538 318.108v3.705a3.215 3.215 0 0 0 3.218-3.207v-.498z" class="cls-3" style="fill:#ffce34;stroke-width:.26458332"/><path id="path2015" d="M-24.32 325.723v-3.704a3.21 3.21 0 0 0-3.215 3.207v.497z" class="cls-3" style="fill:#ffce34;stroke-width:.26458332"/><path id="path2017" d="M-28.636 325.723a3.884 3.884 0 0 1 0-7.615z" class="cls-4" style="fill:#f57f29;stroke-width:.26458332"/><path id="path2019" d="M-18.849 324.988c-1.058 0-1.908-.326-2.516-.966a3 3 0 0 1-.828-2.146 3.23 3.23 0 0 1 .897-2.286 3.56 3.56 0 0 1 2.696-1.058 4 4 0 0 1 1.817.397.07.07 0 0 1 .038.06v1.323a.07.07 0 0 1-.056.067h-.013a.07.07 0 0 1-.061-.043c-.32-.804-.945-1.188-1.908-1.188a2.21 2.21 0 0 0-1.786.794 2.65 2.65 0 0 0-.603 1.765 2.73 2.73 0 0 0 .624 1.81 2.32 2.32 0 0 0 1.868.82 2.68 2.68 0 0 0 1.99-.924.1.1 0 0 1 .04-.013h.024a.07.07 0 0 1 .042.064v.59a.07.07 0 0 1-.019.047 3 3 0 0 1-2.246.887" class="cls-5" style="fill:#6a634d;stroke-width:.26458332"/><path id="path2021" d="M-6.162 319.14a3 3 0 0 0-2.201.852 2.9 2.9 0 0 0-.858 2.133 2.8 2.8 0 0 0 .794 2.056 2.84 2.84 0 0 0 2.103.807 2.98 2.98 0 0 0 2.212-.873 2.9 2.9 0 0 0 .831-2.117 2.746 2.746 0 0 0-2.881-2.858m1.979 3.051a2.25 2.25 0 0 1-.548 1.569 1.84 1.84 0 0 1-1.413.595 1.97 1.97 0 0 1-1.56-.69 2.63 2.63 0 0 1-.599-1.784 2.18 2.18 0 0 1 .53-1.537 1.85 1.85 0 0 1 1.426-.571 1.98 1.98 0 0 1 1.566.674 2.56 2.56 0 0 1 .593 1.741" class="cls-5" style="fill:#6a634d;stroke-width:.26458332"/><path id="path2023" d="M-1.095 319.855v-.045a.43.43 0 0 1 .34-.355.09.09 0 0 0 .07-.098.095.095 0 0 0-.093-.084h-1.571a.093.093 0 0 0-.019.185.434.434 0 0 1 .35.423v4.379a.434.434 0 0 1-.35.423.05.05 0 0 0-.04.019.1.1 0 0 0-.026.074.095.095 0 0 0 .092.087h1.567a.093.093 0 0 0 .092-.092.08.08 0 0 0-.066-.085.434.434 0 0 1-.354-.423v-4.408" class="cls-5" style="fill:#6a634d;stroke-width:.26458332"/><path id="path2025" d="M5.207 323.498a.09.09 0 0 0-.103.024 2.36 2.36 0 0 1-1.754.815 2.04 2.04 0 0 1-1.643-.723 2.42 2.42 0 0 1-.55-1.587 2.34 2.34 0 0 1 .528-1.556 1.95 1.95 0 0 1 1.572-.696c.852 0 1.402.336 1.683 1.03a.09.09 0 0 0 .103.058.095.095 0 0 0 .077-.093v-1.188a.1.1 0 0 0-.05-.085 3.6 3.6 0 0 0-1.628-.357 3.2 3.2 0 0 0-2.434.963 2.9 2.9 0 0 0-.812 2.08 2.7 2.7 0 0 0 .749 1.94 3 3 0 0 0 2.272.873 2.7 2.7 0 0 0 2.032-.818.1.1 0 0 0 .027-.064v-.529a.09.09 0 0 0-.058-.087" class="cls-5" style="fill:#6a634d;stroke-width:.26458332"/><path id="path2027" d="M10.512 323.44a.095.095 0 0 0-.111.053l-.019.037a1.12 1.12 0 0 1-1.058.733H7.517v-1.964h1.675c.349 0 .529.1.568.305a.093.093 0 0 0 .093.08.093.093 0 0 0 .085-.094v-1.164a.093.093 0 0 0-.185-.018c-.043.206-.233.307-.58.307H7.506v-1.91h1.89a.794.794 0 0 1 .77.637.1.1 0 0 0 .09.074.093.093 0 0 0 .081-.092v-1.059a.093.093 0 0 0-.092-.092H6.247a.093.093 0 0 0-.013.185.434.434 0 0 1 .383.426v4.368a.434.434 0 0 1-.338.42H6.26a.093.093 0 0 0 .013.186h4.009a.095.095 0 0 0 .092-.08l.212-1.232a.095.095 0 0 0-.066-.106" class="cls-5" style="fill:#6a634d;stroke-width:.26458332"/><path id="path2029" d="M-10.385 319.879a.434.434 0 0 1 .333-.424.093.093 0 0 0 .072-.098.095.095 0 0 0-.072-.087h-1.587a.093.093 0 0 0-.019.183.43.43 0 0 1 .342.423v1.833h-3.05v-1.83a.44.44 0 0 1 .346-.424.09.09 0 0 0 .066-.095.09.09 0 0 0-.066-.09h-1.588a.093.093 0 0 0-.092.087.09.09 0 0 0 .068.095h.04a.43.43 0 0 1 .312.358v4.439a.434.434 0 0 1-.328.421l-.034.016a.09.09 0 0 0-.058.09.095.095 0 0 0 .092.087h1.588a.093.093 0 0 0 .092-.087.09.09 0 0 0-.058-.093h-.034a.434.434 0 0 1-.334-.42v-1.948h3.051v1.89a.5.5 0 0 1-.021.195.43.43 0 0 1-.307.265l-.037.016a.093.093 0 0 0 .04.177h1.587a.093.093 0 0 0 .04-.177l-.05-.01a.43.43 0 0 1-.334-.422z" class="cls-5" style="fill:#6a634d;stroke-width:.26458332"/><path id="polygon2031" d="M71.17 36.52h3.11v-2.71h1.14v6.52h-1.14v-2.75h-3.11v2.75h-1.14v-6.52h1.14z" class="cls-4" style="fill:#f57f29" transform="translate(-31.747 318.108)scale(.26458)"/><path id="path2033" d="M-9.623 328.808a.892.892 0 1 1 .894-.894.876.876 0 0 1-.904.894m0-1.505a.585.585 0 0 0-.583.61.593.593 0 0 0 .588.617.585.585 0 0 0 .582-.61.593.593 0 0 0-.587-.617" class="cls-4" style="fill:#f57f29;stroke-width:.26458332"/><path id="polygon2035" d="M92.96 40.33v-5.46h-2.07v-1.06h5.29v1.06h-2.07v5.46z" class="cls-4" style="fill:#f57f29" transform="translate(-31.747 318.108)scale(.26458)"/><path id="polygon2037" d="M102.26 37.55v1.75h3.73v1.03h-4.88v-6.52h4.83v1.03h-3.68v1.69h3.27v1.02z" class="cls-4" style="fill:#f57f29" transform="translate(-31.747 318.108)scale(.26458)"/><path id="polygon2039" d="M111.71 40.33v-6.52h1.14v5.48h3.43v1.04z" class="cls-4" style="fill:#f57f29" transform="translate(-31.747 318.108)scale(.26458)"/><path id="path2041" d="M.722 327.779c.365.09.553.22.553.508s-.264.53-.616.53a1.06 1.06 0 0 1-.72-.265l.183-.217a.8.8 0 0 0 .545.225.265.265 0 0 0 .304-.22c0-.124-.069-.193-.389-.265-.368-.09-.574-.198-.574-.529a.53.53 0 0 1 .587-.503.95.95 0 0 1 .625.217l-.159.215a.8.8 0 0 0-.468-.178.24.24 0 0 0-.28.207c0 .135.079.196.41.264" class="cls-4" style="fill:#f57f29;stroke-width:.26458332"/><path id="path2043" d="M1.672 327.427a.34.34 0 0 1 .03-.138.4.4 0 0 1 .076-.113.4.4 0 0 1 .114-.077.36.36 0 0 1 .264 0 .36.36 0 0 1 .19.19.36.36 0 0 1 0 .265.4.4 0 0 1-.076.114.4.4 0 0 1-.114.077.36.36 0 0 1-.264 0 .36.36 0 0 1-.19-.19.34.34 0 0 1-.03-.141m.064 0a.3.3 0 0 0 .023.114.3.3 0 0 0 .157.156.3.3 0 0 0 .227 0 .3.3 0 0 0 .156-.156.3.3 0 0 0 .024-.114.3.3 0 0 0-.024-.114.3.3 0 0 0-.156-.156.3.3 0 0 0-.227 0 .3.3 0 0 0-.157.156.3.3 0 0 0-.023.114m.156-.207h.159a.16.16 0 0 1 .108.032.12.12 0 0 1 .034.09.1.1 0 0 1-.026.08.12.12 0 0 1-.069.031l.106.172h-.085l-.103-.166h-.055v.188h-.075v-.413zm.074.178h.122a.05.05 0 0 0 .031-.048.05.05 0 0 0-.031-.047h-.122v.113z" style="fill:#231f20;stroke-width:.26458332"/></g></g></svg>