<svg xmlns="http://www.w3.org/2000/svg" xmlns:xlink="http://www.w3.org/1999/xlink" xml:space="preserve" width="1000" height="314.721" viewBox="0.002 14.004 1000 314.721"><defs><radialGradient xlink:href="#a" id="b" cx="194.004" cy="-278.335" r="171.622" fx="194.004" fy="-278.335" gradientTransform="rotate(179.99 -101.936 -26.293)scale(-3.36404 .89912)" gradientUnits="userSpaceOnUse"/><linearGradient id="a"><stop offset="0" style="stop-color:#3e98d3;stop-opacity:1"/><stop offset="1" style="stop-color:#192777;stop-opacity:1"/></linearGradient></defs><path d="M488.741 328.509c-47.666-1.736-96.632-13.36-146.692-34.824-20.373-8.735-41.92-19.556-63.844-32.062-14.46-8.249-47.563-28.509-49.406-30.239-1.159-1.088-1.613-2.109-1.613-3.628 0-2.81 2.02-4.82 4.844-4.815 1.464.002 1.818.157 5.274 2.3 13.873 8.598 33.061 18.337 51.758 26.27 87.078 36.948 190.24 49.923 289.269 36.38 67.63-9.248 132.635-30.888 183.343-61.033 7.316-4.349 7.991-4.578 10.183-3.448 3.028 1.56 3.685 5.38 1.327 7.716-.928.918-2.066 1.647-18.711 11.982-44.392 27.561-80.232 45.757-117.55 59.68-50.192 18.726-100.491 27.457-148.182 25.72" style="fill:#e30613;fill-opacity:1;stroke-width:.28502"/><path d="M.002 18.868s.939 2.954 1.847 11.35C2.937 51.13 2.995 68.466 3.12 87.795c.251 14.927.104 29.47-.025 43.476-.087 9.484-.152 14.654-.152 23.278 0 25.66-2.036 43.646-2.036 43.646s18.972 4.082 47.608 4.082c28.646 0 59.04-9.912 76.578-24.785 17.533-14.872 33.313-36.16 33.313-74.355s-16.365-59.191-37.99-72.894C98.787 16.535 65.762 13.915 40.332 15.08 14.91 16.25.882 18.87.002 18.87ZM996.001 162.62l-38.257-9.037c-10.038 9.91-20.884 14.833-34.81 14.577-28.677-.525-42.927-17.389-48.226-45.197h123.328c1.752-9.914 2.328-20.41 1.747-30.324-1.171-20.023-7.335-38.452-19.872-54.232-12.41-15.623-33.761-23.817-60.159-23.62-24.787.187-45.047 8.662-61.085 25.662-15.073 15.971-24.095 40.326-23.675 72.017.403 30.106 8.081 52.522 26.888 70.858 13.092 12.765 30.691 19.583 53.776 19.533 43.988-1.323 62.265-15.468 80.345-40.237m-31.316-70.56h-88.529c1.562-22.846 22.526-44.123 44.736-44.017 22.989.105 42.733 16.51 43.793 44.016M576.479 49.353c29.277 0 53.02 26.442 53.02 59.05 0 32.606-23.743 59.05-53.02 59.05-29.267 0-53.013-26.444-53.013-59.05 0-32.608 23.746-59.05 53.013-59.05m1.14-35.35c49.129 0 88.965 42.587 88.965 94.4 0 51.812-40.976 93.828-90.105 93.828-49.119 0-88.959-42.016-88.959-93.829s40.98-94.399 90.1-94.399m96.674 181.858h39.717V76.018c36.34 31.785 63.116 71.735 79.19 119.844l34.118.203V20.033h-38.031l-.041 86.243c-11.906-19.866-26.486-36.204-40.82-50.289-14.357-14.107-26.019-26.051-40.553-35.954h-33.58Zm-346.96 0h38.578V76.018c36.338 31.785 62.55 71.735 78.623 119.844h34.485V20.032h-38.582v84.839c-22.417-32.224-49.574-61.168-80.659-84.838h-32.446Zm-110.18-175.83h37.41c36.325 40.097 58.56 98.415 66.053 175.83h-40.629a381 381 0 0 0-4.935-38.21h-80.2a371 371 0 0 0-4.88 38.21h-39.455c7.117-77.881 30.96-138.14 66.637-175.83m50.413 104.685c-8.72-27.789-19.104-50.65-33.157-71.734-13.962 21.166-24.882 45.029-32.6 71.734ZM40.672 49.485s7.843-.293 17.491-.293 30.719 1.75 46.205 16.914c15.488 15.164 15.782 32.365 15.782 44.323 0 11.955-4.118 37.904-29.547 49.565-25.424 11.668-50.223 7.294-50.223 7.294z" style="fill:url(#b);fill-opacity:1;fill-rule:evenodd;stroke:none;stroke-width:5.24611"/></svg>