<svg xmlns="http://www.w3.org/2000/svg" width="620.085" height="158.241"><path d="M118.958 557.34h620.085V399.099H118.957z" style="fill:#0e8102;fill-opacity:1;fill-rule:nonzero;stroke:none" transform="translate(-118.957 -399.099)"/><path d="M427.507 506.758c-128.86 0-220.432 7.947-220.432 7.947v3.455H435.11l2.418-11.402c-2.916-.011-6.426 0-10.02 0m16.93 0-2.073 11.402h207.994v-3.455s-85.92-7.297-205.92-7.947" style="fill:#ffea00;fill-opacity:1;fill-rule:nonzero;stroke:none" transform="translate(-118.957 -399.099)"/><path d="M263.392 439.039 251.3 496.047h43.533l1.728-10.71h-29.713l2.764-13.13h26.949l2.073-11.401h-26.95l2.42-10.71h30.058l1.728-11.057zm145.458 13.82c-16.971 0-23.826 9.025-26.604 22.113-2.778 13.073 3.704 22.457 17.276 22.457 16.128 0 23.826-9.038 26.603-22.112 2.792-13.088-1.617-22.458-17.275-22.458m97.087 0c-16.971 0-23.48 9.039-26.258 22.113-2.778 13.087 3.358 22.457 16.93 22.457 13.764 0 21.545-6.55 25.221-16.584h-12.783c-1.742 4.077-4.547 6.91-10.366 6.91-7.614 0-8.32-6.509-6.91-13.129s4.824-13.13 12.439-13.13c5.873 0 7.49 4.12 7.255 8.984h12.438c.747-10.49-4.325-17.62-17.966-17.62m-44.57.691c-3.814 0-9.992.912-13.13 4.146l.692-3.11H436.49c-.415 2.737-12.784 63.574-12.784 63.574H435.8l5.182-24.877c2.391 3.704 9.135 4.492 12.093 4.492 12.175 0 17.773-11.789 20.04-22.458 2.376-11.18.11-21.767-11.748-21.767m91.904 0c-21.725-.595-20.73 13.475-20.73 13.475h11.402s-.153-5.528 7.946-5.528c0 0 7.311-.332 6.22 4.837 0 0-.153 4.464-5.183 4.146 0 0-24.075-2.501-25.913 15.202 0 0-.995 12.438 13.13 12.438 0 0 9.272-.276 13.474-4.837 0 0 1.175 2.764 5.182 2.764h6.91l2.074-8.292-1.036-.69s-.843.11-.345-2.074l4.491-21.767c1.949-9.494-17.62-9.674-17.62-9.674zm-243.235 1.036-5.874 26.95c-.304 1.41-.801 3.994-.69 6.564.207 6.04 7.614 8.983 11.746 8.983 5.79 0 9.48-1.437 12.438-3.8v2.764h12.439a109 109 0 0 1 1.036-7.256l7.255-34.205h-12.438l-5.183 23.84c-1.45 6.053-5.887 7.256-8.983 7.256-5.334 0-5.68-2.322-4.837-6.22l5.528-24.876zm46.643 0c-.483 3.068-8.292 41.46-8.292 41.46h13.129l4.491-21.42c.553-2.71.373-5.515 2.074-7.947 1.354-1.949 4.809-2.598 6.91-2.764h5.873l2.419-9.329c-5.708 0-9.426-.125-14.166 3.11v-3.11zm225.615 0c-.485 3.068-8.292 41.46-8.292 41.46h13.129l4.146-21.42c.553-2.71.719-5.515 2.418-7.947 1.369-1.949 4.81-2.598 6.91-2.764h5.529l2.764-9.329c-5.708 0-9.426-.125-14.166 3.11v-3.11zm-175.171 6.91c7.615 0 7.974 6.855 6.564 13.475s-3.69 12.784-12.092 12.784c-7.615 0-8.32-6.51-6.91-13.13s4.823-13.129 12.438-13.129m48.716 1.728c5.652 0 7.228 5.376 5.873 11.747-1.354 6.385-4.685 11.747-11.056 11.747-6.703 0-7.435-6.04-6.219-11.747 1.216-5.722 4.699-11.747 11.402-11.747m99.16 14.511s-1.81 11.402-11.056 11.402c0 0-5.183.345-5.183-3.8 0 0 .125-5.308 7.601-6.22 0 0 5.805-.4 8.638-1.382" style="fill:#fff;fill-opacity:1;fill-rule:nonzero;stroke:none" transform="translate(-118.957 -399.099)"/></svg>