<svg xmlns="http://www.w3.org/2000/svg" width="300" height="40" viewBox="0 0 90 12"><title>Formula 1 logo</title><path d="M86.432 1.074c-1.357 1.344-2.438 2.065-4.384 2.065l-1.667 2.32h2.497l-2.354 3.448h-2.072l-1.955 2.753h8.076l1.957-2.753h-2.328l5.422-7.833z" style="fill:#ed1f24;stroke:none"/><path d="M65.567 1.629h-3.461L55.09 11.656h3.46zm-16.751 10.24c1.242 0 3.615.018 5.497-2.626l3.705-5.264h-3.452s-3.001 4.29-3.271 4.673c-.88 1.262-2.047.674-1.49-.12.3-.421 3.19-4.554 3.19-4.554h-3.478s-2.276 3.188-2.902 4.094c-1.62 2.338.109 3.797 2.2 3.797M.09 11.656h3.824l2.436-3.48h3.119l1.993-2.844H8.338l1.51-2.154c2.4 0 3.453-.552 5.314-2.787h-7.17zm18.33-8.003c-2.153 0-4.562 1.348-5.985 3.438-1.516 2.223-1.312 4.75 1.719 4.75 2.936 0 5.388-1.97 6.472-4 1.317-2.464.56-4.188-2.205-4.188M15.11 9.385c-1.572-.181 1.056-3.818 2.432-3.452 1.515.403-1.066 3.615-2.432 3.452m10.965-1.542c.677-.964 2.47-2.104 3.606-.611l2.665-2.66s-.857-1.973-4.325.504l.729-1.097h-3.426l-5.375 7.677h3.438s2.41-3.415 2.688-3.813m12.779 3.809h3.375s3.082-4.375 3.493-4.972c1.76-2.541-1.307-3.92-4.16-1.71-.57-1.844-2.934-1.04-4.583.19l.819-1.167H34.38l-5.366 7.663h3.354s2.975-4.217 3.262-4.632c.722-1.04 2.108-.817 1.542 0l-3.24 4.628 3.378.004s2.96-4.217 3.253-4.632c.724-1.04 2.122-.817 1.554 0-.268.384-3.263 4.628-3.263 4.628m31.155.004 5.375-7.664h-3.502l-.477.615c-.15-.398-.695-.867-1.663-.867-3.018 0-5.468 2.215-6.422 4.343-.955 2.122-.316 3.762 1.56 3.762 1.18 0 2.22-.724 2.586-.968l-.552.778zM66.856 9.46c-.78-.088-.816-.866-.122-1.862.636-.9 1.859-1.78 2.554-1.59 1.515.402-1.065 3.594-2.432 3.452" style="fill:#000;stroke:none"/></svg>