<svg xmlns="http://www.w3.org/2000/svg" width="241" height="42" fill="none" viewBox="0 0 241 42"><g clip-path="url(#a)"><path fill="#01a982" d="M96.574.086v41.5H241V.087zM232.75 33.284H104.829V8.388H232.75V33.29z"/><path fill="#292d3a" d="M0 .086h1.179v4.417h5.096V.086h1.178V9.83H6.275V5.496H1.179v4.335H0zm10.156 0h5.653v.966h-4.475v3.314h3.607v.966h-3.607V8.86h4.715v.966H10.15V.086zm7.168 0h1.206l1.964 7.863L22.775.086h.84l2.276 7.89 1.991-7.89h1.097L26.458 9.83h-1.086L23.18 2.133 20.914 9.83h-1.069zm13.598 0H32.1v8.78h4.431v.965h-5.609zm7.511 0h5.653v.966h-4.474v3.314h3.606v.966h-3.606V8.86h4.714v.966h-5.898V.086zm9.925.966h-2.82V.086h6.82v.966h-2.822v8.78h-1.178zm7.863 0h-2.82V.086h6.82v.966H57.4v8.78h-1.18zM0 15.898h2.75c1.855 0 3.388.818 3.388 2.848v.055c0 2.075-1.544 2.876-3.388 2.876H1.179v3.967H0zm2.832 4.84c1.38 0 2.128-.68 2.128-1.937v-.055c0-1.377-.813-1.893-2.128-1.893H1.179v3.885zm7.23-4.84h1.544l3.28 9.746h-1.168l-.95-2.81h-4l-.932 2.81H6.723l3.333-9.746zm-.966 5.998h3.361l-1.68-5.015zm6.738-1.059v-.11c0-2.892 1.926-4.977 4.556-4.977 2.018 0 3.726 1.076 3.928 3.188H23.15c-.245-1.487-1.096-2.25-2.75-2.25-2.008 0-3.35 1.57-3.35 4.023v.11c0 2.48 1.25 3.978 3.334 3.978 1.588 0 2.685-.807 2.93-2.387h1.097c-.338 2.25-1.883 3.352-4.054 3.352-2.805 0-4.529-1.937-4.529-4.933zm10.629-4.935h1.179v4.691l4.212-4.702h1.315l-4.31 4.74 4.528 5.016h-1.424l-4.321-4.757v4.757h-1.179zm11.212-.004h1.544l3.28 9.746H41.33l-.95-2.81h-3.999l-.933 2.81h-1.113l3.334-9.746zm-.966 5.998h3.361l-1.68-5.015zm7.76-5.992h2.913c1.855 0 3.389.763 3.389 2.71v.055c0 1.608-1.07 2.398-2.401 2.656l2.968 4.319h-1.315l-2.886-4.242h-1.49v4.242H44.47v-9.746zm2.995 4.565c1.38 0 2.128-.598 2.128-1.8v-.054c0-1.323-.813-1.756-2.128-1.756h-1.817v3.61zm5.774-4.571h2.559c3.334 0 4.905 2.075 4.905 4.785v.121c0 2.7-1.544 4.84-4.932 4.84h-2.538v-9.746zm2.51 8.78c2.493 0 3.743-1.498 3.743-3.885v-.11c0-2.25-1.086-3.83-3.754-3.83h-1.315v7.825h1.331zM0 31.716h5.653v.966H1.179v3.315h3.606v.965H1.18v3.529h4.714v.965H0v-9.745zm7.932.003h1.533l4.714 8.055V31.72h1.124v9.745H13.95l-4.894-8.357v8.357H7.932zm12.065.966h-2.821v-.966h6.82v.965h-2.82v8.78h-1.18zm5.87-.969h5.652v.966h-4.474v3.315h3.607v.965h-3.607v3.529h4.714v.965h-5.898v-9.745zm7.926 0h2.914c1.855 0 3.388.763 3.388 2.711v.055c0 1.608-1.07 2.398-2.4 2.656l2.967 4.319h-1.315l-2.886-4.242h-1.49v4.241h-1.178v-9.745zm2.995 4.571c1.38 0 2.128-.598 2.128-1.8v-.054c0-1.323-.813-1.756-2.128-1.756h-1.816v3.61zm5.78-4.568h2.75c1.855 0 3.389.817 3.389 2.848v.055c0 2.074-1.544 2.875-3.389 2.875h-1.571v3.967h-1.179zm2.832 4.84c1.38 0 2.128-.68 2.128-1.937v-.055c0-1.378-.813-1.894-2.128-1.894h-1.653v3.886zm5.305-4.843h2.914c1.855 0 3.388.763 3.388 2.711v.055c0 1.608-1.07 2.398-2.4 2.656l2.967 4.319H56.26l-2.887-4.242h-1.49v4.241h-1.178v-9.745zm2.99 4.571c1.38 0 2.128-.598 2.128-1.8v-.054c0-1.323-.813-1.756-2.128-1.756h-1.817v3.61zm5.848-4.568h1.178v9.745h-1.178zm3.373 6.775h1.14c.147 1.157.611 2.14 2.559 2.14 1.25 0 2.21-.736 2.21-1.839s-.502-1.569-2.347-1.865c-2.035-.313-3.24-.955-3.24-2.684 0-1.498 1.287-2.644 3.115-2.644 1.937 0 3.143.954 3.334 2.683h-1.059c-.229-1.23-.933-1.729-2.275-1.729s-2.019.67-2.019 1.58c0 .912.355 1.444 2.33 1.746 2.155.34 3.296.993 3.296 2.837 0 1.635-1.424 2.875-3.35 2.875-2.587 0-3.525-1.432-3.7-3.095zm9.33-6.778h5.652v.966h-4.474v3.315h3.607v.965h-3.607v3.529h4.714v.965H72.24v-9.745z"/></g><defs><clipPath id="a"><path fill="#fff" d="M0 0h241v42H0z"/></clipPath></defs></svg>