<svg xmlns="http://www.w3.org/2000/svg" width="1196" height="261" viewBox="0 0 1196 261"><g fill="none"><path fill="#e42926" d="M109.382.363c9.97.948 17.283 9.775 16.335 19.727l-8.049 84.566c3.06-8.834 12.202-14.344 21.682-12.56 9.43 1.779 15.92 10.166 15.613 19.452 4.222-5.837 11.566-9.06 19.124-7.64 8.859 1.665 15.117 9.154 15.6 17.742l18.057-58.435c2.915-9.562 13.043-14.953 22.624-12.05 9.587 2.909 14.99 13.017 12.075 22.58l-19.394 62.75a46.6 46.6 0 0 1 19.905-4.437c25.778 0 46.68 20.86 46.68 46.587s-20.902 46.58-46.68 46.58c-17.032 0-31.933-9.103-40.084-22.7-2.548 9.204-6.004 18.214-10.695 26.56-9.556 17.001-23.415 28.549-43.382 30.415-33.952 3.179-61.244-7.829-79.979-37.571-16.36-25.98-36.32-48.83-61.08-67.357-8.922-6.672-10.04-15.72-3.79-25.106 6.34-9.518 16.556-12.502 25.754-6.785 11.554 7.187 22.335 15.48 32.52 24.553.681.61 1.32 1.375 1.96 2.166l.443.549c1.877 2.321 3.851 4.587 7.04 3.486 3.53-1.22 3.769-6.672 4.454-10.279.96-5.013 1.928-10.121 2.927-15.436L89.516 17.728C90.559 6.721 99.41-.58 109.382.363m133.572 148.08c-16.713 0-30.264 13.521-30.264 30.202 0 16.68 13.551 30.2 30.264 30.2 16.718 0 30.263-13.52 30.263-30.2s-13.545-30.201-30.263-30.201"/><path fill="#fff" d="M178.995 133.793c-5.435-2.626-11.485-1.357-15.412 3.518-7.709 9.563-15.323 19.2-22.957 28.82-2.833 3.568-2.79 3.568-5.547.1-7.835-9.858-15.707-19.69-23.536-29.56-3.103-3.908-7.306-4.694-11.805-3.864-3.707.678-6.898 2.444-7.721 6.678.037 17.058.094 34.11.1 51.167 0 9.248-.081 18.502-.125 27.757 1.174 4.51 4.812 6.936 9.58 6.377 4.788-.56 6.723-3.475 6.73-8.28.018-17.706-.73-35.417-.73-53.121v-3.62c10.198 9.33 14.394 18.026 21.035 26.671 5.253 6.842 12.007 6.78 17.303-.107 5.705-7.426 11.56-14.871 17.246-22.31.955-1.237 2.023-2.463 3.399-4.215 0 19.47.031 38.104.057 56.739 0 5.039 3.392 8.343 8.443 8.369 5.152.025 8.633-3.173 8.64-8.143.03-25.206.006-50.413.03-75.619.007-3.524-1.627-5.855-4.73-7.357"/><path fill="#e42926" d="M308.231 132.165c12.496-.05 25.03-.873 37.489.446 13.376 1.414 24.1 11.887 26.689 25.54 2.463 12.992-3.889 26.192-15.807 32.462-2.036 1.068-2.306 1.841-1.207 3.883 3.192 5.931 6.145 11.994 9.13 18.038 2.4 4.863.86 9.305-3.902 11.585-4.681 2.243-9.286.666-11.68-4.046-3.914-7.696-7.835-15.386-11.654-23.133-.742-1.483-1.477-2.186-3.286-2.123-4.876.163-9.757.131-14.633.012-1.715-.038-2.11.522-2.086 2.143.082 6.559.057 13.118.026 19.677-.026 4.963-3.682 8.5-8.658 8.463-5.202-.044-8.708-3.305-8.733-8.381-.057-12.805-.019-25.609-.019-38.413 0-12.383-.012-24.76.006-37.143.007-5.617 2.771-8.985 8.325-9.01m10.75 16.612c-1.514-.025-1.697.634-1.684 1.885.05 4.222.019 8.45.019 12.678 0 4.335.025 8.664-.013 13v.263c.01 1.03.166 1.714 1.627 1.696 7.414-.1 14.847.214 22.235-.213 7.79-.453 13.596-7.194 13.533-14.878-.057-7.439-6-13.828-13.81-14.218-7.287-.358-14.607-.106-21.907-.213m71.66-16.6c12.396-.093 24.842-.923 37.2.41 15.393 1.658 27.035 14.512 27.406 29.66.39 16.121-10.229 29.36-25.891 31.979-8.627 1.445-17.353.509-26.036.56-2.89.018-3.682.71-3.569 3.6.24 6.131.132 12.282.088 18.42-.031 4.794-3.556 8.25-8.444 8.307-5.177.055-8.62-3.237-8.777-8.244-.006-.214.233-.421.233-.635v-37.81c0-12.389-.251-24.778-.233-37.168.007-5.692 2.457-9.04 8.023-9.078m10.77 16.593c-1.59-.018-1.647.748-1.628 1.936.019 2.114.022 4.228.02 6.342l-.008 6.342c0 4.33.026 8.664-.018 13-.013 1.23.157 1.928 1.683 1.91 7.307-.095 14.626.188 21.914-.183 7.942-.402 13.917-7.175 13.804-14.96-.107-7.457-6.026-13.79-13.86-14.173-7.288-.352-14.601-.1-21.908-.214m135.938 29.63c0 12.81 0 25.627-.006 38.437 0 4.995-3.204 8.08-8.438 8.18-5.183.095-8.77-3.216-8.79-8.236-.043-9.324-.062-18.64.026-27.958.019-1.86-.327-2.551-2.394-2.526-10.925.107-21.857.107-32.783 0-2.004-.019-2.444.553-2.425 2.47.1 9.21.063 18.427.038 27.637-.013 5.296-3.519 8.77-8.702 8.689-5.403-.075-8.689-3.298-8.689-8.714-.031-25.52-.031-51.047-.006-76.568.006-5.49 3.235-8.613 8.714-8.607 5.353 0 8.676 3.292 8.689 8.67.012 9.11.069 18.22-.05 27.324-.026 1.985.521 2.45 2.462 2.431 10.826-.1 21.65-.132 32.47.013 2.393.031 2.707-.81 2.682-2.89-.107-9.004-.056-18-.037-27.004.006-4.253 1.652-6.66 5.359-7.979 3.619-1.288 7.96-.339 10.24 2.281 1.226 1.414 1.678 3.047 1.672 4.957-.063 13.131-.032 26.262-.032 39.393"/><path fill="#1d1d1b" d="M549.447 179.328v-.258c0-25.658 19.175-46.907 45.87-46.907 14.639 0 23.968 4.794 32.394 11.793 1.036.905 2.073 2.33 2.073 4.147 0 2.72-2.463 5.05-5.183 5.05-1.427 0-2.595-.646-3.368-1.168-6.999-6.22-14.903-10.366-26.048-10.366-20.086 0-35.114 16.329-35.114 37.187v.264c0 20.99 15.16 37.445 35.114 37.445 11.271 0 19.175-3.889 26.953-11.013.779-.78 1.941-1.427 3.235-1.427 2.595 0 4.926 2.331 4.926 4.926 0 1.552-.779 2.846-1.684 3.625-8.94 8.168-18.785 13.345-33.688 13.345-26.173 0-45.48-20.601-45.48-46.643m129.06-47.165c27.6 0 46.127 21.638 46.127 46.643v.264c0 25.005-18.785 46.9-46.385 46.9s-46.128-21.637-46.128-46.642v-.258c0-25.011 18.785-46.907 46.385-46.907m-.258 9.456c-20.733 0-35.504 16.586-35.504 37.187v.264c0 20.601 15.028 37.445 35.761 37.445s35.504-16.586 35.504-37.187v-.258c0-20.6-15.028-37.451-35.761-37.451m51.834 71.915c-1.168-.779-1.941-2.205-1.941-3.889 0-2.846 2.199-5.051 4.92-5.051 1.3 0 2.462.515 3.11 1.168 8.55 7.25 17.107 10.75 28.636 10.75 12.182 0 20.218-6.477 20.218-15.418v-.257c0-8.425-4.537-13.22-23.586-17.234-20.858-4.536-30.452-11.271-30.452-26.174v-.257c0-14.256 12.572-24.748 29.805-24.748 11.918 0 20.601 2.978 28.894 8.94 1.037.78 2.206 2.2 2.206 4.147a4.92 4.92 0 0 1-4.926 4.92c-1.169 0-2.073-.258-2.984-.905-7.64-5.573-15.029-7.904-23.448-7.904-11.792 0-19.306 6.477-19.306 14.639v.264c0 8.55 4.661 13.344 24.615 17.616 20.212 4.41 29.542 11.793 29.542 25.659v.258c0 15.55-12.955 25.658-30.968 25.658-13.212 0-24.226-4.146-34.335-12.182m97.184-70.358H800.96c-2.588 0-4.794-2.073-4.794-4.668 0-2.588 2.206-4.787 4.794-4.787h62.978c2.589 0 4.794 2.199 4.794 4.787 0 2.595-2.205 4.668-4.794 4.668h-26.306v76.706a5.196 5.196 0 0 1-5.183 5.183 5.196 5.196 0 0 1-5.183-5.183zm45.616 43.278v-48.201c0-2.853 2.331-5.184 5.051-5.184a5.196 5.196 0 0 1 5.184 5.184v47.553c0 19.565 10.498 30.579 27.732 30.579 16.712 0 27.336-10.103 27.336-29.931v-48.201a5.196 5.196 0 0 1 5.183-5.184c2.72 0 5.051 2.331 5.051 5.184v47.422c0 26.437-15.16 40.171-37.834 40.171-22.417 0-37.703-13.734-37.703-39.392m86.818-48.072c0-2.72 2.33-5.051 5.051-5.051h1.169c2.205 0 3.757 1.162 4.794 2.72l32.393 48.716 32.394-48.716c1.037-1.684 2.72-2.72 4.794-2.72h1.162c2.727 0 5.058 2.33 5.058 5.051v81.5c0 2.852-2.331 5.183-5.058 5.183-2.846 0-5.177-2.457-5.177-5.184v-67.633l-29.026 42.628c-1.169 1.684-2.463 2.595-4.279 2.595-1.81 0-3.235-.911-4.404-2.595l-28.894-42.496v67.633c0 2.853-2.205 5.052-5.051 5.052-2.72 0-4.926-2.2-4.926-5.052zm99.52 80.855V138.9c0-2.846 2.33-5.184 5.05-5.184h56.37a4.646 4.646 0 0 1 4.661 4.669 4.644 4.644 0 0 1-4.662 4.661h-51.185v30.968h45.349c2.595 0 4.668 2.205 4.668 4.668a4.646 4.646 0 0 1-4.668 4.662h-45.349v31.746h51.833a4.644 4.644 0 0 1 4.661 4.662 4.646 4.646 0 0 1-4.661 4.668h-57.016c-2.72 0-5.051-2.33-5.051-5.183m70.622-5.703c-1.169-.779-1.942-2.205-1.942-3.889 0-2.846 2.2-5.051 4.92-5.051 1.3 0 2.463.515 3.11 1.168 8.55 7.25 17.108 10.75 28.636 10.75 12.183 0 20.218-6.477 20.218-15.418v-.257c0-8.425-4.536-13.22-23.585-17.234-20.859-4.536-30.453-11.271-30.453-26.174v-.257c0-14.256 12.572-24.748 29.806-24.748 11.918 0 20.6 2.978 28.894 8.94 1.037.78 2.205 2.2 2.205 4.147a4.92 4.92 0 0 1-4.926 4.92c-1.168 0-2.073-.258-2.984-.905-7.64-5.573-15.028-7.904-23.447-7.904-11.793 0-19.307 6.477-19.307 14.639v.264c0 8.55 4.662 13.344 24.616 17.616 20.211 4.41 29.541 11.793 29.541 25.659v.258c0 15.55-12.955 25.658-30.967 25.658-13.213 0-24.226-4.146-34.335-12.182m26.444-105.572h3.06v9.984c0 .584.572 1.061 1.27 1.061.697 0 1.268-.477 1.268-1.061v-9.984h3.066c.572 0 1.037-.534 1.037-1.206s-.465-1.206-1.037-1.206h-8.664c-.571 0-1.036.534-1.036 1.206s.465 1.206 1.036 1.206m10.957 9.984c0 .584.572 1.061 1.27 1.061.697 0 1.269-.477 1.269-1.061v-8.457h.056l3.098 4.052a1.38 1.38 0 0 0 2.199 0l3.116-4.052h.056v8.457c0 .584.572 1.061 1.27 1.061.697 0 1.268-.477 1.268-1.061V106.58c0-.66-.678-1.175-1.539-1.175-.572 0-1.068.233-1.338.572l-3.927 4.9-3.882-4.85c-.252-.37-.773-.622-1.364-.622-.854 0-1.552.515-1.552 1.175z"/></g></svg>