<svg xmlns="http://www.w3.org/2000/svg" width="500" height="551.915" viewBox="0 0 83.355 92.173"><g stroke-width=".32"><path fill="#44195e" d="M69.05 92.129c-.767-.093-1.945-.382-2.547-.624l-.495-.2v-2.779c.021 0 .253.108.515.24.634.318 1.676.653 2.449.785 1.435.245 2.51.035 2.974-.583.193-.257.229-.785.075-1.107-.174-.368-.575-.617-1.967-1.222-2.291-.995-2.76-1.248-3.289-1.776-.731-.73-1-1.39-1.002-2.458-.004-2.485 2.21-4.014 5.38-3.715 1.141.108 2.285.358 2.762.605l.205.106-.088 2.663-.681-.292c-.933-.4-1.567-.547-2.533-.587-.693-.029-.938-.011-1.251.087-.882.278-1.156 1.014-.591 1.593.347.356.617.502 2.214 1.2 1.69.738 2.257 1.053 2.82 1.568.73.668 1.03 1.406 1.03 2.538 0 1.159-.383 2.047-1.2 2.78-.481.433-1.513.94-2.196 1.08-.682.14-1.862.185-2.583.098m-51.525-.134a4.3 4.3 0 0 1-2.082-1.196c-.612-.62-.933-1.2-1.104-2.005-.144-.676-.093-1.77.108-2.343.483-1.371 1.672-2.387 3.299-2.817.488-.129.832-.154 2.503-.185l1.937-.036c-.16-1.608-1.01-2.058-2.07-2.172-1.461-.003-2.864.163-4.178.695l.039-2.644c1.674-.51 3.609-.837 5.26-.574 1.66.29 2.803 1.076 3.372 2.32.373.815.39 1.089.39 6.15v4.664h-2.824l-.042-.924c-.631.49-1.39.925-2.093 1.098-.642.151-1.879.136-2.515-.03"/><path fill="#fff" d="M19.996 89.482c.96-.302 1.492-.76 2.173-1.397v-2.117l-1.752.025c-1.606.024-1.784.039-2.143.182-.415.165-.825.535-1.018.92-.234.464-.13 1.3.22 1.769.465.622 1.515.88 2.52.618"/><path fill="#44195e" d="M29.882 92.034c-.683-.19-1.334-.652-1.67-1.184a4.5 4.5 0 0 1-.326-.709c-.328-3.236-.197-4.48-.233-8.727l-1.805-.04v-2.468l1.805-.04.07-3.308 2.794-.967.037 4.276 3.15.038v2.471l-3.15.038v3.61c0 3.5.005 3.617.146 3.891.226.442.625.608 1.455.607.523.01 1.015-.1 1.517-.218.048.891.031 1.573.031 2.534-1.223.177-2.622.492-3.82.196m27.96-.004c-2.263-.513-3.734-1.808-4.39-3.865-.486-1.527-.485-3.908.003-5.442.652-2.05 2.332-3.573 4.38-3.968 1.152-.223 2.665-.046 3.584.418 2.143 1.081 3.314 3.726 3.021 6.823l-.045.478h-8.33v.197c0 .286.188.963.361 1.303.224.44.79 1 1.226 1.212.662.325 1.236.422 2.235.378 1.073-.047 1.947-.265 2.848-.711l.62-.307v2.677l-.55.251c-1.007.462-1.718.602-3.201.632-.97.02-1.427 0-1.762-.076"/><path fill="#fffffb" d="M61.49 83.96c.022-.06-.012-.317-.076-.574-.359-1.427-1.246-2.172-2.59-2.176-.526-.002-.66.025-1.061.214a2.83 2.83 0 0 0-1.265 1.167c-.239.418-.473 1.2-.409 1.366z"/><path fill="#44195e" d="M79.418 92.043c-.995-.285-1.676-.925-1.996-1.875-.156-.465-.16-.554-.197-4.614l-.036-4.14-1.805-.04v-2.468l1.805-.04.07-3.304 2.777-.976.054 4.28 3.078.039v2.47l-3.078.04v3.643c0 3.526.005 3.653.143 3.893.229.397.663.571 1.424.572.572.001 1.077-.067 1.393-.188l-.04 2.55-.478.112c-.51.121-2.738.154-3.114.046M-.335 74.653l2.782.038 7.426 11.994.053-12.029h2.76v17.2l-2.77-.04-7.425-11.814-.066 11.85h-2.76Zm37.965 17.11c-1.172-5.707-2.448-11.394-3.59-17.107l2.99.026 2.324 11.473 2.942-11.499h2.795l2.945 11.596c.786-3.826 1.45-7.703 2.156-11.552l2.83.045c-1.167 6.02-2.14 10.71-3.396 17.088-.984.02-1.967.019-2.95.019l-1.51-5.948-1.56-5.856c-1.112 4.157-1.92 7.333-3.074 11.804z"/></g><path fill="none" d="M54.023 49.85 64.42 67.747l10.315-17.95-10.347-17.85Z" style="stroke-width:.221142"/><path fill="none" d="M46.613 62.679h20.74l10.314-17.771-10.315-17.983-10.397 17.983H36.18z" style="stroke-width:.221142"/><path fill="#e40420" d="m36.18 44.908 10.433 17.77h20.74l-10.398-17.77Z" style="stroke-width:.221142"/><path fill="#d10917" d="m67.352 26.925 10.315 17.983-10.315 17.77-10.397-17.77Z" style="stroke-width:.221142"/><path fill="#e40420" d="M20.765 17.84h20.687L51.793 0H31.05z" style="stroke-width:.221142"/><path fill="#d10917" d="m51.793 0 10.341 17.84-10.34 17.915L41.451 17.84Z" style="stroke-width:.221142"/><path fill="#e40420" d="M15.465 26.925 5.214 44.908h20.684L36.18 26.925z" style="stroke-width:.221142"/><path fill="#d10917" d="m5.214 44.908 10.251 17.77H36.18l-10.282-17.77Z" style="stroke-width:.221142"/></svg>