<svg xmlns="http://www.w3.org/2000/svg" width="72.599" height="95.933" viewBox="0 0 72.599 95.933"><g fill="#111a29" data-name="组 10185"><path d="M31.53 36.418c-9.709-3.617-22.79 1.405-29.148-4.429 1.731 7.116 8.279 7.368 12.889 6.3 4.694-1.091 10.189-2.446 14.853-.457a23.3 23.3 0 0 1 6.176 4.392c-1.119-3.053-4.77-5.8-4.77-5.8" data-name="路径 21593"/><path d="M41.07 36.418c9.709-3.617 22.792 1.405 29.148-4.429-1.731 7.116-8.279 7.368-12.889 6.3-4.694-1.091-10.189-2.446-14.853-.457a23.3 23.3 0 0 0-6.175 4.392c1.118-3.053 4.769-5.8 4.769-5.8" data-name="路径 21594"/><path d="M39.813 36.011c6.838-6.166 19.922-3.9 25.377-11.806 1.927-2.794 2.776-7.013-.585-9.787-2.46-2.029-7-.4-7-.4l-.329-1.311c.1-.045 1.129-.464 1.232-.506 8.229-3.339 16.2 4.257 12.817 13-1.874 4.842-6.722 7.437-11.931 8.095-6.27.8-15.4.434-18.8 3.751s-4.29 4.092-4.29 4.092.438-2.353 3.513-5.125" data-name="路径 21595"/><path d="M32.786 36.011c-6.838-6.166-19.922-3.9-25.377-11.806-1.927-2.794-2.776-7.013.585-9.787 2.46-2.029 7-.4 7-.4l.329-1.311c-.1-.045-1.129-.464-1.232-.506-8.229-3.339-16.2 4.257-12.817 13 1.874 4.842 6.722 7.437 11.93 8.095 6.27.8 15.4.434 18.8 3.751s4.29 4.092 4.29 4.092-.438-2.353-3.513-5.125" data-name="路径 21596"/><path d="M36.892 39.443a164 164 0 0 1 14.122-10.1c6.623-4.058 11.194-8.669 7.859-15.9-2.241-4.855-8.952-6.986-13.773-4.121-6.213 3.693-5.568 11.442-.483 12.892a21 21 0 0 0 4.027-3.515 7.7 7.7 0 0 1-1.748-.667 5.02 5.02 0 0 1-2.344-5c.655-4.364 6.968-4.563 9.055-.7a8.56 8.56 0 0 1-.015 7.728c-1.139 2.353-3.46 4.292-5.6 5.821-3.852 2.748-7.763 5.073-10.916 8.654-.887 1.007.675 1.948.115 3.136a5 5 0 0 0-.2.467 7 7 0 0 0-.1 1.3" data-name="路径 21597"/><path d="M35.61 38.139a5 5 0 0 0-.2-.467c-.56-1.189 1-2.129.115-3.136-3.152-3.581-7.064-5.906-10.915-8.654-2.142-1.529-4.464-3.468-5.6-5.82a8.56 8.56 0 0 1-.013-7.728c2.085-3.864 8.4-3.666 9.054.7a5.02 5.02 0 0 1-2.343 5 7.7 7.7 0 0 1-1.75.667 21 21 0 0 0 4.028 3.517c5.086-1.451 5.731-9.2-.483-12.892-4.821-2.867-11.532-.736-13.772 4.119-3.335 7.228 1.236 11.839 7.859 15.9a164 164 0 0 1 14.121 10.1 7 7 0 0 0-.1-1.3" data-name="路径 21598"/><path d="M38.119 31.996a35 35 0 0 0-.219-2.1 43.5 43.5 0 0 1-.582-8.472 28 28 0 0 1 1.273-6.737 59 59 0 0 1 2.593-5.918 6.37 6.37 0 0 0 0-5.931 6.72 6.72 0 0 0-5.627-2.843c-5.563 0-9.314 7.532-2.844 11.325a51 51 0 0 1 3.586-4.133 4.14 4.14 0 0 1-1.841-.789 2.59 2.59 0 0 1-.591-2.892 3.07 3.07 0 0 1 4.023-1.384c3.762 1.568 1.674 5.935.153 8.324a52 52 0 0 0-4.657 8.121 21.2 21.2 0 0 0-1.934 6.365c-.392 3.459-.712 8.356 1.645 11.264 1.3 1.6 1.689 3.062 2.535 4.912-.112-.242 1.543-2.621 1.719-3.042a13.2 13.2 0 0 0 .766-6.075" data-name="路径 21599"/><path d="m36.299 42.221-2.566-2.881-.75-1.69 5.481.724 2.333-.174-3.752 3.193Z" data-name="路径 21600"/><path d="m36.299 42.221-2.566-2.881-.75-1.69 5.481.724 2.333-.174-3.752 3.193Z" data-name="路径 21601"/><path d="M25.99 40.994c-6.046.28-5.881 1.184-12.871 2.259 6.347-1.536 9.884-5.321 19.492-2.468a11 11 0 0 0-4.182-2.318 18.43 18.43 0 0 0-10.613 1 17.9 17.9 0 0 1-6.4 1.233c-.713.748-2.829 3.008-4.664 5.385 8.606-.18 16.605-3.672 26.515-1.946a2.8 2.8 0 0 1 1.071-1.411 22.9 22.9 0 0 0-8.354-1.733" data-name="路径 21602"/><path d="m34.872 46.88-.647-.58c-1.806-1.426-6.884-1.088-9.216-.8-5.086.617-13.806 2.267-18.319 2.53l.006.009.139 1.645c9.1-.855 15.441-2.225 19.183-2.616a15.5 15.5 0 0 1 6.9.673 1.9 1.9 0 0 1 .464.371 2.16 2.16 0 0 0 1.478.565h1.437v-1.794Z" data-name="路径 21603"/><path d="M61.179 40.699a17.9 17.9 0 0 1-6.4-1.233 18.43 18.43 0 0 0-10.612-1 11 11 0 0 0-4.182 2.319c9.607-2.853 13.144.933 19.491 2.469-6.989-1.076-6.824-1.981-12.87-2.259a22.9 22.9 0 0 0-8.355 1.733 2.8 2.8 0 0 1 1.072 1.41c9.91-1.724 17.909 1.768 26.515 1.948-1.835-2.377-3.951-4.638-4.664-5.386" data-name="路径 21604"/><path d="m65.902 48.037.005-.01c-4.513-.264-13.233-1.914-18.32-2.53-2.332-.284-7.41-.623-9.215.8l-.649.58h-1.424v1.794h1.436a2.16 2.16 0 0 0 1.479-.56 1.9 1.9 0 0 1 .465-.37 15.5 15.5 0 0 1 6.9-.673c3.744.391 10.085 1.76 19.184 2.615Z" data-name="路径 21605"/><path d="M10.116 58.989h1.205l6.911 6.857h.028v-6.857h1.544v9.478h-1.106l-7.011-6.964h-.026v6.964h-1.545Z" data-name="路径 21606"/><path d="M24.819 63.778c0-2.9 2.194-4.862 5.324-4.862s5.319 1.966 5.319 4.862c0 2.978-2.238 4.83-5.319 4.83s-5.324-1.852-5.324-4.83m9.031 0a3.716 3.716 0 0 0-7.415 0c0 2 1.352 3.436 3.707 3.436s3.708-1.436 3.708-3.436" data-name="路径 21607"/><path d="M40.48 58.989h2.866a7.8 7.8 0 0 1 1.933.185 2.67 2.67 0 0 1 2.256 2.634c0 1.619-1.177 2.443-2.747 2.7v.025c.624.347 1.02 1.615 1.787 2.229a1.57 1.57 0 0 0 1.016.378 3 3 0 0 0 .673-.087l.319 1.294a3.5 3.5 0 0 1-1.208.184 2.7 2.7 0 0 1-1.757-.632c-1.321-1.065-1.835-3.107-2.808-3.107h-.786v3.671h-1.542Zm2.706 4.439a5.8 5.8 0 0 0 1.513-.135 1.474 1.474 0 0 0 1.219-1.457 1.36 1.36 0 0 0-1.088-1.351 5.4 5.4 0 0 0-1.455-.131h-1.353v3.074Z" data-name="路径 21608"/><path d="M52.858 58.99h3.589a10 10 0 0 1 2.344.232c2.224.53 3.693 1.955 3.693 4.355s-1.515 3.952-3.824 4.584a10.3 10.3 0 0 1-2.735.305h-3.067Zm3.037 8.107a9 9 0 0 0 2.4-.272 3.17 3.17 0 0 0 2.573-3.251 2.914 2.914 0 0 0-2.486-3.021 8.4 8.4 0 0 0-2.125-.2h-1.862v6.744Z" data-name="路径 21609"/><path d="M4.743 74.281H5.82l4.914 9.519h-1.7l-1.373-2.686H2.997l-1.3 2.686h-1.7Zm2.224 5.464L5.281 76.42h-.032l-1.6 3.325Z" data-name="路径 21610"/><path d="M15.036 74.322h1.207l6.907 6.858h.032v-6.858h1.543v9.479h-1.106l-7.009-6.959h-.032V83.8h-1.543Z" data-name="路径 21611"/><path d="M35.383 74.254a10.8 10.8 0 0 1 4.084.818l-.464 1.3a9.1 9.1 0 0 0-3.489-.72c-2.63 0-4.16 1.492-4.16 3.453 0 2.076 1.456 3.45 4.16 3.45a9 9 0 0 0 2.561-.373v-2.216H34.83v-1.367h4.787v4.5a10.6 10.6 0 0 1-4.176.853c-3.662 0-5.7-1.884-5.7-4.758s2.186-4.934 5.644-4.934" data-name="路径 21612"/><path d="M44.999 74.322h1.541v8.115h5.2v1.364h-6.741Z" data-name="路径 21613"/><path d="M56.018 74.321h1.543V83.8h-1.543z" data-name="矩形 5310"/><path d="M66.609 74.281h1.079l4.915 9.519h-1.7l-1.364-2.686h-4.67l-1.3 2.686h-1.7Zm2.221 5.464-1.687-3.325h-.031l-1.6 3.325Z" data-name="路径 21614"/><path d="M5.933 91.396h3.222v.644h-2.5v1.233h2.262v.644H6.66v1.3h2.536v.641H5.932Z" data-name="路径 21615"/><path d="M12.624 91.396h1.694a5 5 0 0 1 1.1.107 2.027 2.027 0 0 1 1.747 2.054 2.184 2.184 0 0 1-1.806 2.166 5 5 0 0 1-1.289.139h-1.446Zm1.432 3.825a4.3 4.3 0 0 0 1.132-.129 1.5 1.5 0 0 0 1.212-1.535 1.377 1.377 0 0 0-1.171-1.422 4 4 0 0 0-1-.094h-.878v3.18Z" data-name="路径 21616"/><path d="M20.645 94.791a2.2 2.2 0 0 1-.123-.78v-2.613h.726v2.526a1.7 1.7 0 0 0 .1.65c.178.44.59.7 1.376.7.762 0 1.175-.239 1.359-.651a1.7 1.7 0 0 0 .124-.7v-2.526h.727v2.613a2.2 2.2 0 0 1-.159.856 2.49 2.49 0 0 1-4.132-.076" data-name="路径 21617"/><path d="M30.84 91.36a4.1 4.1 0 0 1 1.728.361l-.22.608a3.5 3.5 0 0 0-1.438-.312 1.675 1.675 0 0 0-1.853 1.63c0 .983.653 1.626 1.864 1.626a3.7 3.7 0 0 0 1.427-.3l.239.614a4.4 4.4 0 0 1-1.711.344c-1.648 0-2.578-.888-2.578-2.245a2.337 2.337 0 0 1 2.543-2.326" data-name="路径 21618"/><path d="M37.455 91.374h.506l2.317 4.485h-.8l-.645-1.266h-2.2l-.61 1.266h-.8Zm1.048 2.575-.8-1.564h-.013l-.756 1.564Z" data-name="路径 21619"/><path d="M44.117 92.044h-1.679V91.4h4.086v.644h-1.677v3.823h-.73Z" data-name="路径 21620"/><path d="M49.568 91.396h.727v4.468h-.727z" data-name="矩形 5311"/><path d="M53.689 93.654a2.519 2.519 0 0 1 5.019 0 2.521 2.521 0 0 1-5.019 0m4.258 0a1.754 1.754 0 1 0-1.748 1.622 1.59 1.59 0 0 0 1.75-1.622" data-name="路径 21621"/><path d="M61.982 91.396h.568l3.257 3.233h.014v-3.233h.725v4.466h-.521l-3.3-3.282h-.014v3.282h-.725Z" data-name="路径 21622"/></g></svg>