<svg xmlns="http://www.w3.org/2000/svg" width="160" height="28" fill="none" viewBox="0 0 160 28"><g clip-path="url(#a)"><path fill="#da291c" d="M115.591 5.398v16.687h9.569v-1.982h-6.603V5.398zm-96.176.014c.92 0 1.746.037 2.416.277 1.955.707 3.255 2.171 3.255 4.481 0 2.02-1.3 3.699-3.124 4.406l5.159 7.523h-3.676l-4.476-6.804h-3.072V22.1h-3.176V5.412zm-3.504 7.965h2.809c1.955 0 3.045-1.036 3.045-3.169 0-1.199-.355-3.092-2.835-3.092h-3.006v6.26zM5.763 5.411c.958 0 1.68-.037 2.257.05 2.73.417 4.253 2.323 4.253 5.15 0 1.844-.945 3.207-2.297 4.154-1.024.72-2.441.96-4.16.96H3.15v6.374H0V5.41zm.249 8.483c2.652-.076 3.058-2.032 3.058-3.446 0-2.941-1.745-3.295-3.268-3.295H3.137v6.754h2.875z"/><path fill="#da291c" d="M37.503 22.098c.959-.455 1.996-1.212 2.508-1.843h3.872c1.496 0 2.651-.455 3.557-1.073 1.72-1.187 2.704-3.194 2.704-5.882 0-2.348-1.417-4.62-2.704-5.277-1.378-.707-1.562-.833-3.623-.833h-3.11v8.76c0 1.869-.395 3.194-1.563 4.317-1.417 1.376-3.596 2.171-5.907 2.171-4.883 0-7.77-2.196-7.77-6.096V5.398h2.953v10.565c0 .795.079 1.452.223 1.956.46 1.503 2.323 2.462 4.594 2.462 2.888 0 4.398-1.54 4.398-4.38V5.398h7.311c1.536 0 2.862.202 3.886.643 2.809 1.2 4.686 3.674 4.686 7.46 0 4.204-2.626 8.597-9.714 8.597zM98.541 5.387h-3.085v16.687h3.085z"/><path fill="#da291c" d="M80.071 7.278h6.13v14.807h3.085V7.278h5.645v-1.88H77.76v12.307L67.404 5.41h-2.612v14.731h-8.375v-5.718h7.22v-1.931h-7.22V7.228h7.587V5.41H53.385v16.688h13.73V9.878l10.462 12.22h2.494zm28.302-1.891 7.324 16.687h-3.347l-1.864-4.43h-7.312l-1.942 4.43h-2.757l7.548-16.687zm-4.372 10.35h5.684l-2.875-6.652z"/><path fill="#5b6770" d="M138.59.704c.315 0 .249.467.919.467.38 0 .433-.19.892-.19 1.313 0 1.799 1.528 2.717 1.528.421 0 .46-.265.906-.265.171 0 .473.101.591.215s.381.328 1.05 2.057c.066.19-.026.265-.131.265s-.302-.088-.775-.555c-.262-.253-.485-.14-1.627-.833-.539-.316-1.051-.796-1.628-.998-.578-.214-1.549-.29-1.917-.378-.472-.101-1.233-.455-1.233-.997 0-.177.105-.329.223-.329M145.115.5c.263 0 .473.392.762.657.643.618 1.667.227 2.441.96.197.189.355.643.355 1.085s-.105.883-.328.883c-.552 0-.197-.845-1.3-1.49-1.103-.63-1.286-.656-1.746-1.097-.459-.455-.472-.619-.472-.732 0-.114.092-.266.302-.266m4.972 1.996c.276 0 .197.366.499.606.302.252.499.164.919.568.184.176.236.303.236.353s-.105.682-.787.682c-.158 0-.263-.038-.381-.253-.158-.303-.092-.744-.433-1.136-.302-.34-.342-.366-.342-.568s.197-.252.289-.252"/><path fill="#da291c" d="M151.192 5.765c.853.24 1.287.568 1.287 1.073s-.21.542-.394.795c-.132.19-.263.442-.25 1.224 0 .152-.052.24-.17.24-.132 0-.184-.05-.184-.177 0-.075.052-.126.052-.189 0-.076.027-.442-.249-.669-.774-.669-4.621-1.136-7.062-1.136-2.954 0-5.329.606-5.986.606-1.207 0-1.772-.58-1.772-1.01 0-.429.263-.505.263-.72s-.079-.24-.079-.416c0-.177.157-.53.302-.53.223 0 .197.227.407.593.275.442.827 1.023 1.89 1.023.945 0 1.746-.341 3.137-.644 1.707-.379 3.059-.555 4.398-.555.63 0 2.927.025 4.397.48"/><path fill="#5b6770" d="M151.481 10.383c.184 0 .302.05.302.164s-.197.114-.302.127c-.118.025-.84.151-1.168.643-.053.089 0 .152.065.19.066.025.906.429.906.72 0 .29-.643.58-.84.58s-.263-.227-.263-.265c0-.076.184-.177.184-.253 0-.088-.157-.189-.249-.189s-.132.038-.184.24c-.053.214-.236 1.035-.276 1.54-.039.517-.21 1.792-.21 1.969 0 .164-.026.619-.407.884-.38.252-.709.429-.709.429s-.144.088-.196.088c-.04 0-.171-.113-.329-.227-.144-.126-.315-.126-.42-.126-.197 0-.577.29-.866.29s-.866-.303-.866-.48c0-.05.118-.1.144-.1.131 0 .341.138.617.138s.512-.227.866-.227c.21 0 .67.1 1.05.1.381 0 .512-.087.578-.188.052-.114.184-.24.184-.657 0-.416-.276-1.78-.276-2.625 0-.846.158-1.565.591-1.982s1.378-.758 2.048-.758"/><path fill="#5b6770" d="M152.019 12.796c.105 0 .223.126.223.467 0 .34-.263 2.638-.906 4.241-.63 1.59-.814 1.603-1.378 2.525-.551.909-.998 1.893-1.601 2.474-.224.227-.578.492-1.405.492s-2.022-.177-3.36-.682c-1.339-.53-2.678-1.287-3.479-2.057-.118-.114-.052-.215.158-.114.196.114 1.286.922 3.373 1.528 1.51.441 1.93.441 2.573.441.604 0 1.26.101 2.035-.643.761-.732 1.404-1.982 1.68-2.462.275-.48.827-1.325 1.339-2.865.512-1.553.617-2.411.669-3.093 0-.151.026-.252.105-.252"/><path fill="#5b6770" d="M146.821 17.845c.289 0 .538.404.867.404s.42-.354.603-.354c.184 0 .25.392.315.53.066.152.119.215.119.266 0 .025-.079.088-.158.088s-.223-.139-.564-.139c-.263 0-.46.164-.473.202s-.066.025-.118 0c-.105-.063-.328-.404-.683-.404-.197 0-.459.127-.735.29-.275.165-.485.215-.709.215-.21 0-.498-.076-.498-.214 0-.089.118-.14.21-.14.21 0 .42.051.892-.214.328-.19.683-.53.945-.53m-.947 1.365c.158 0 .42.302 1.221.302s.985-.34 1.155-.34c.092 0 .105.1.105.139 0 .037-.289.997-1.102.997-.473 0-.985-.392-1.169-.568-.184-.177-.315-.354-.315-.43 0-.075.066-.1.105-.1m-1.391-8.107c.552 0 1.785.127 1.785.43 0 .176-.551 0-.971 0s-.472.012-.472.05c0 .025 0 .05.039.076.039.038.315.328.315.404 0 .315-.84.643-1.037.643-.118 0-.341-.126-.341-.264 0-.101.446-.203.446-.303 0-.101-.263-.316-.499-.316s-.958.492-1.05.492c-.105 0-.118-.063-.118-.151 0-.063.065-.202.065-.265 0-.215-.157-.202-.157-.366 0-.101.131-.265.84-.354s.88-.088 1.155-.088m-.326-1.476c.565 0 1.772.088 1.956.126.197.038.236.114.236.164 0 .089-.065.101-.288.101-.407 0-1.444 0-2.507.316-1.668.492-1.904.96-2.166.96-.079 0-.224-.102-.224-.203 0-.1.171-.34.171-.505 0-.139-.131-.277-.131-.353 0-.29 1.391-.606 2.94-.606m14.66-.492c.84 0 1.181.796 1.181 1.742 0 .152-.065.392-.21.392-.184 0 .066-.53-.446-.53-.131 0-.355.126-.565.315-.196.202-1.444 1.805-2.349 4.469-.447 1.338-.657 2.158-.657 2.878 0 .48.145.833.145.997 0 .303-.328.1-.381.012-.118-.202-.341-.782-.341-1.578 0-.795.341-2.79.997-4.809.342-1.11 1.339-3.913 2.626-3.913m-2.468 12.912c.105 0 .197.05.197.1 0 .102-.42.442-.604.632-.275.29-.354.77-.603.77-.079 0-.132-.088-.132-.152 0-.063.027-.126.027-.176 0-.24-.316-.177-.316-.366 0-.14.46-.43.657-.543.184-.114.604-.265.774-.265m-.34 1.907c.131 0 .236.05.236.1 0 .114-.498.392-.59.493-.092.088-.604.745-.683 1.11-.079.38-.197.493-.315.493-.236 0-.092-.366-.263-.492-.131-.088-.459-.05-.459-.316 0-.177.302-.454.591-.707s.879-.669 1.496-.669m-2.006-3.536c.118 0 .223.05.275.164.066.101.04.164.145.278.118.1.485.151.485.328s-.21.177-.301.24c-.092.063-.381.19-.591.543s-.328.82-.368 1.451-.262 1.25-.59 1.793c-.368.568-.893 1.01-1.195 1.49-.249.39-.157.832-.407.832s-.302-.669-.302-.909.066-1.035.709-1.615c.709-.644 1.286-.682 1.286-1.73 0-.643-.078-.858-.078-1.262s.144-1.603.919-1.603"/><path fill="#da291c" d="M125.766 6.006c.433 0-.039.164.63.808.315.303.499.416 1.234.416.446 0 1.076-.088 2.678-.77.63-.277 1.641-.568 2.376-.568.945 0 1.667.442 2.192.808.512.366 1.142.884 1.418 1.086.275.202.682.442.84.505.144.063.183.151.131.265a2.7 2.7 0 0 1-.276.442c-.052.063-.236.151-.341.189-.105.05-.525.202-1.024.58-.499.367-1.339.808-2.363.808s-2.586-.39-3.465-.39c-.368 0-.906.188-1.286.554-.145.152-.276.404-.355.493-.105.1-.433.29-.551.29s-.328-.063-.328-.19c0-.227.498-.315.498-.694s-.131-.39-.131-.568c0-.176.145-.492.381-.719.499-.48 1.785-.757 2.94-.757.84 0 2.468.34 3.584.34.472 0 .84-.063 1.05-.151.289-.126.223-.29.092-.29s-.118.05-.433.05c-.289 0-.972-.151-1.549-.53-.578-.366-1.51-.884-2.403-.884-.892 0-1.535.316-1.811.417-.656.24-2.192 1.098-3.019 1.098s-1.785-.391-1.785-1.073.709-.618.709-1.01c0-.075-.04-.126-.04-.202 0-.075.079-.34.368-.34"/><path fill="#5b6770" d="M135.858 11.749c.184 0 .158.189.276.315s.17-.025.328.139c.157.164.079.252.197.353.105.101.289.089.302.177.026.366-.145.934-.145 1.818 0 .618.119 1.325.329 1.956.091.253-.105.303-.197.127-.67-1.187-1.26-2.942-1.26-4.305 0-.328.052-.568.183-.568m-.849 1.3q.118 0 .118.152c0 .1-.289 1.022-.722 1.552-.433.543-1.116 1.25-1.378 1.25-.119 0-.119-.126-.132-.164-.026-.05-.105-.139.066-.278.171-.126.184-.202.184-.29s-.066-.202-.066-.278.066-.252.171-.303c.105-.063.761-.378 1.142-.82.367-.43.485-.82.617-.82m.379 8.23c.079-.707.158-1.477.21-2.196.447.202.788.454.788.984 0 .631-.735 1.086-.998 1.212m.276-3.345v-.328c0-1.49-.328-2.45-.551-2.45-.302 0-.657 1.465-.801 2.235-.499-.139-.84-.177-1.129-.177-.774 0-.932.165-.932.354 0 .19.171.48.368.669.472.454 1.01.442 1.535.467-.078.921-.17 2.108-.17 2.537 0 .126 0 .34.013.619-.525.265-1.405.732-1.707 1.01-.42.416-.472.643-.472.934 0 1.01.932.959.932 1.653 0 .265-.184.543.039.543.276 0 .499-.505.499-.82 0-.316-.276-.821-.276-1.15s.118-.68.591-1.135c.118-.114.249-.202.407-.29.039.896.079 1.93.105 2.183.026.404.052 1.363.249 1.363s.591-1.843.775-3.13c.039-.29.092-.644.144-1.035.197-.101.407-.202.591-.316.906-.53 1.509-1.148 1.509-1.855 0-.859-.826-1.414-1.745-1.856"/></g><defs><clipPath id="a"><path fill="#fff" d="M0 .5h160v27H0z"/></clipPath></defs></svg>