<svg xmlns="http://www.w3.org/2000/svg" width="611.971" height="180.655" viewBox="0 0 161.917 47.798"><g style="fill:none;fill-rule:evenodd;stroke:none;stroke-width:1"><path fill="#3c1053" d="M47.779 23.9c0 22.164-1.734 23.898-23.89 23.898S0 46.064 0 23.9 1.734 0 23.89 0s23.889 1.735 23.889 23.9"/><path fill="#fff" d="M21.864 18.592c-2.47.887-3.32 3.289-3.32 3.289-.333.886-1.215 1.552-2.21 1.552h-4.685a2.38 2.38 0 0 1-2.359-2.365c0-1.294.885-2.329 2.36-2.329l3.714.007-5.374-5.4a2.345 2.345 0 0 1 0-3.323 2.334 2.334 0 0 1 3.319 0l5.346 5.347v-3.686a2.354 2.354 0 0 1 2.36-2.362c1.292 0 2.324 1.07 2.324 2.362v4.691c0 .998-.59 1.923-1.475 2.217m-.85 19.875c-1.288 0-2.323-.852-2.285-2.328l.006-3.745-5.39 5.406c-.92.926-2.433.926-3.318 0-.92-.921-.92-2.437 0-3.322l5.333-5.36h-3.673a2.35 2.35 0 0 1-2.359-2.36 2.354 2.354 0 0 1 2.359-2.366h4.682c.995 0 1.88.59 2.214 1.478.848 2.51 3.242 3.36 3.242 3.36a2.32 2.32 0 0 1 1.551 2.216v4.693c0 1.293-1.034 2.328-2.362 2.328m15.078-9.384-3.722-.004 5.38 5.4a2.34 2.34 0 0 1 0 3.32 2.33 2.33 0 0 1-3.317 0l-5.346-5.355v3.695c0 1.406-1.07 2.365-2.36 2.365a2.38 2.38 0 0 1-2.36-2.365v-4.693c0-.998.626-1.92 1.512-2.216 2.47-.85 3.317-3.286 3.317-3.286.332-.885 1.218-1.552 2.213-1.552h4.683a2.38 2.38 0 0 1 2.36 2.366c0 1.29-.958 2.325-2.36 2.325m.038-5.688h-4.684c-.995 0-1.918-.591-2.212-1.478-.85-2.475-3.281-3.362-3.281-3.362a2.37 2.37 0 0 1-1.55-2.218v-4.69c0-1.292 1.07-2.325 2.362-2.325 1.29 0 2.322.96 2.322 2.325l.001 3.76 5.381-5.421a2.336 2.336 0 0 1 3.32 0c.921.92.921 2.436 0 3.36l-5.31 5.32h3.65a2.38 2.38 0 0 1 2.36 2.364 2.38 2.38 0 0 1-2.36 2.365"/><path fill="#fff" d="M115.008 11.618c.535-.087 1.323-.123 2.109-.123 3.389 0 5.043 1.94 5.043 4.627 0 2.61-1.986 4.41-5.211 4.41-.826 0-1.57-.037-1.941-.079zm0 12.818h.456l7.526 12.043h6.66l-6.494-9.765c-.665-.989-1.45-2.16-2.236-3.195 3.887-.665 6.867-3.79 6.867-7.934 0-5.718-3.973-8.482-10.133-8.482-3.23 0-5.833.04-8.028.166v29.21h5.382zm25.29 7.94c-3.02 0-4.59-2.149-4.59-6.38 0-4.222 2.318-6.05 4.675-6.05 3.1 0 4.549 2.155 4.549 6.137 0 4.183-2.026 6.294-4.634 6.294m.454-16.9c-6.244 0-10.508 4.635-10.508 11.06 0 7.33 3.81 10.353 9.638 10.353 6.125 0 10.51-4.639 10.51-11.101 0-7.084-3.764-10.312-9.64-10.312m23.188 22.164 8.147-21.749h-5.667l-2.438 7.002c-.662 1.901-1.533 4.68-1.986 6.543h-.044a81 81 0 0 0-1.61-5.675l-2.772-7.87h-5.92l7.613 20.587-.662 1.824c-1.116 3.228-2.933 4.057-4.67 4.057a9 9 0 0 1-2.605-.415l-.622 4.56c.785.167 2.025.29 2.895.29 4.756 0 7.654-2.03 10.341-9.154m21.084-10.316v.542c0 2.483-1.732 4.965-4.299 4.965-1.533 0-2.48-1.08-2.48-2.401 0-1.779 1.447-3.106 6.78-3.106m-5.992 9.565c2.914 0 5.325-1.468 6.407-3.617v3.206h5.046c-.122-1.694-.165-3.647-.165-5.3v-8.495c0-4.599-1.9-7.25-8.268-7.25-2.777 0-5.712.582-7.78 1.412l.867 4.058c1.82-.792 4.344-1.41 6.206-1.41 2.73 0 3.678 1.118 3.678 3.609v.742c-7.195 0-11.87 2.277-11.87 7.168 0 3.356 2.156 5.877 5.88 5.877m15.589-.41h5.296V6.235h-5.296zm23.34-13.109c.58-.04 1.982-.04 2.358-.04 3.681 0 5.916 1.375 5.916 4.027 0 2.444-1.782 4.855-5.298 4.855-.994 0-2.315-.085-2.977-.127zm0-11.712a62 62 0 0 1 3.019-.084c3.267 0 4.509 1.542 4.509 3.613 0 2.486-1.659 4.126-5.338 4.126-.865 0-1.529 0-2.19-.044zm14.021 15.533c0-3.11-2.026-5.763-5.004-6.388v-.083c2.686-1.075 4.22-3.625 4.22-6.401 0-4.471-3.352-7.051-9.349-7.051-3.393 0-6.907.085-9.265.204V36.48c3.517 0 6.285.08 8.15.08 8.182 0 11.248-5.058 11.248-9.368m14.96.676c0 2.482-1.737 4.964-4.3 4.964-1.53 0-2.482-1.08-2.482-2.402 0-1.778 1.443-3.105 6.782-3.105zm-11.872 3.146c0 3.355 2.151 5.876 5.878 5.876 2.914 0 5.328-1.469 6.408-3.62v3.21h5.046c-.125-1.695-.163-3.648-.163-5.3v-8.496c0-4.598-1.904-7.25-8.274-7.25-2.77 0-5.708.582-7.78 1.412l.87 4.057c1.822-.79 4.343-1.408 6.202-1.408 2.734 0 3.685 1.116 3.685 3.608v.742c-7.195 0-11.872 2.277-11.872 7.169m26.777-4.476c0-3.608 2.107-6.63 4.756-6.63 1.986 0 2.563 1.284 2.563 3.399v13.172h5.252V22.02c0-3.604-1.486-6.542-6.122-6.542-3.148 0-5.443 1.51-6.74 3.689v-3.274h-5.004V36.48h5.295zm21.987.427 6.369 9.515h6.615l-8.13-11.185 7.599-9.403h-6.457l-5.996 7.563V6.237h-5.295V36.48h5.295zM118.149 76.79c-3.019 0-4.595-2.159-4.595-6.379 0-4.229 2.318-6.053 4.678-6.053 3.102 0 4.551 2.154 4.551 6.134 0 4.18-2.029 6.298-4.634 6.298m.453-16.907c-6.244 0-10.504 4.642-10.504 11.064 0 7.335 3.807 10.356 9.636 10.356 6.12 0 10.506-4.641 10.506-11.101 0-7.084-3.764-10.32-9.638-10.32m15.037-1.219v1.695h-3.602v4.105h3.602v16.488h5.252V64.463h4.8v-4.105h-4.8v-1.739c0-2.731 1.031-3.934 3.35-3.934.78 0 1.737.082 2.566.373l.37-4.35c-1.078-.248-2.233-.335-3.35-.335-5.624 0-8.188 2.737-8.188 8.29m24.8.851c0-1.985 1.447-3.352 4.59-3.352 1.653 0 3.267.289 4.8.784l.494-4.725a26.6 26.6 0 0 0-5.044-.531c-6.745 0-10.55 3.435-10.55 8.405 0 9.2 11.744 7.539 11.744 12.88 0 2.614-2.148 3.65-4.673 3.65-2.232 0-4.3-.46-6.08-1.205l-.576 5.176c1.86.5 3.971.75 6.451.75 6.453 0 10.797-3.856 10.797-9.032 0-8.865-11.953-7.827-11.953-12.8m24.512 17.195c-3.515 0-4.794-2.446-4.794-5.965 0-3.817 1.61-6.343 4.753-6.343 1.365 0 2.73.328 3.847.784l.826-4.554c-1.322-.458-2.937-.704-4.507-.704-7.114 0-10.467 4.927-10.467 11.35 0 7.004 3.561 9.986 9.266 9.986 1.988 0 4.18-.335 5.793-.951l-.705-4.438c-1.199.542-2.604.835-4.012.835m15.94.081c-3.022 0-4.593-2.159-4.593-6.379 0-4.229 2.314-6.053 4.676-6.053 3.101 0 4.549 2.154 4.549 6.134 0 4.18-2.025 6.298-4.632 6.298m.454-16.907c-6.244 0-10.508 4.642-10.508 11.064 0 7.335 3.808 10.356 9.64 10.356 6.123 0 10.508-4.641 10.508-11.101 0-7.084-3.768-10.32-9.64-10.32m22.657 16.947c-1.821 0-2.437-.746-2.437-3.399V64.4h5.004v-4.103h-5.004v-8.624l-5.255 1.406v7.218h-3.558v4.104h3.558v10.437c0 4.808 1.407 6.465 5.955 6.465 1.447 0 3.146-.246 4.47-.581l-.374-4.183c-.703.206-1.487.29-2.359.29m6.098 4.122h5.291V50.704H228.1zm20.224-8.628c0 2.49-1.735 4.974-4.297 4.974-1.532 0-2.484-1.08-2.484-2.407 0-1.778 1.446-3.105 6.78-3.105zm5.293-5.18c0-4.596-1.9-7.247-8.272-7.247-2.768 0-5.707.58-7.773 1.41l.867 4.056c1.824-.784 4.342-1.404 6.204-1.404 2.733 0 3.68 1.114 3.68 3.602v.746c-7.196 0-11.868 2.281-11.868 7.165 0 3.36 2.152 5.884 5.87 5.884 2.923 0 5.34-1.48 6.413-3.628v3.216h5.049a77 77 0 0 1-.17-5.301zm15.281-7.199c-3.15 0-5.448 1.515-6.744 3.693v-3.279h-5.003v20.593h5.296v-9.942c0-3.605 2.108-6.631 4.754-6.631 1.985 0 2.565 1.283 2.565 3.395v13.178h5.256V66.49c0-3.605-1.49-6.547-6.124-6.547m22.669 10.3c0 3.519-1.657 6.752-4.427 6.752-2.4 0-3.514-1.992-3.514-5.843 0-5.098 2.149-7 5.169-7 .908 0 1.823.123 2.772.331zm0-19.561v9.45a18 18 0 0 0-2.604-.164c-6.83 0-10.882 4.8-10.882 11.765 0 5.882 2.484 9.651 7.489 9.651 3 0 5.197-1.477 6.325-3.594v3.14h4.926V50.683Z" style="fill:#3c1053;fill-opacity:1" transform="scale(.5455)"/></g></svg>