<svg xmlns="http://www.w3.org/2000/svg" xmlns:xlink="http://www.w3.org/1999/xlink" width="892.913" height="199.843"><defs><linearGradient id="a" x1="0" x2="1" y1="0" y2="0" gradientTransform="rotate(62.89 66.648 215.715)scale(26.8682 -26.8682)" gradientUnits="userSpaceOnUse" spreadMethod="pad"><stop offset="0" style="stop-color:#f39315;stop-opacity:1"/><stop offset="1" style="stop-color:#fd0;stop-opacity:1"/></linearGradient><linearGradient xlink:href="#a" id="c" x1="0" x2="1" y1="0" y2="0" gradientTransform="rotate(62.89 66.648 215.715)scale(26.8682 -26.8682)" gradientUnits="userSpaceOnUse" spreadMethod="pad"/><clipPath id="b"><path d="M34.016 34.016h210.749v45.826H34.016z"/></clipPath></defs><g clip-path="url(#b)" transform="matrix(4.20323 0 0 -4.20323 -139.434 339.205)"><g style="fill:#003376;fill-opacity:1"><path d="M0 0c-1.356.916-4.213 2.385-5.305 3.029-1.306.756-1.985 1.097-2.035 2.076-.021.477.04.9.385 1.265.502.544 1.408.635 2.885.598 1.783-.054 4.123-.322 5.791-.675.03-.006-.009 3.541.006 4.324-1.525.408-3.954.747-5.978.747-5.83-.009-8.343-1.962-8.343-6.598 0-3 .93-4.337 4.429-6.351a77 77 0 0 0 3.988-2.422c1.217-.805 1.555-1.211 1.708-2.008.148-.797-.204-1.643-.761-1.992-.811-.504-1.697-.557-3.858-.442-1.823.098-3.685.336-5.207.578l.003-4.129c1.855-.578 4.325-.968 6.862-.892 5.606.148 8.446 2.332 8.453 7.035C3.023-3.46 2.536-1.705 0 0" style="fill:#003376;fill-opacity:1;fill-rule:nonzero;stroke:none" transform="translate(46.61 46.918)"/></g><g style="fill:#003376;fill-opacity:1"><path d="M0 0c-3.602.012-5.215 1.223-5.227 4.84v10.142l-2.597.004v3.51h2.597v3.58l5.121.889v-4.473l3.674.004v-3.51l-3.674-.004V5.625c0-.643-.026-1.162.129-1.41.166-.24.23-.342.72-.387.589-.051 2.077-.033 3.041.053L3.779.398C2.776.109 1.067 0 0 0" style="fill:#003376;fill-opacity:1;fill-rule:nonzero;stroke:none" transform="translate(58.694 34.192)"/></g><g style="fill:#003376;fill-opacity:1"><path d="M0 0c-.617-.268-1.264-.541-2.34-.58-1.383-.047-2.262.603-2.3 1.904v.221c0 1.205.373 1.68.983 1.99.624.358 1.935.451 3.65.358zm-2.047 14.271c-1.819.018-4.473-.297-6.249-.813l.007-3.652c1.196.135 3.219.359 4.798.392 1.127.028 2.155-.033 2.734-.429.519-.363.768-.923.768-1.847V6.839l-1.572.003c-5.312-.01-7.882-1.254-7.982-5.283V.904c0-2.969 1.746-5.375 5.348-5.392 1.773.004 3.117.367 4.305 1.32V-4.23h5V7.922c-.005 4.552-2.948 6.309-7.157 6.349" style="fill:#003376;fill-opacity:1;fill-rule:nonzero;stroke:none" transform="translate(74.656 38.692)"/></g><g style="fill:#003376;fill-opacity:1"><path d="M0 0c-.616-.268-1.272-.541-2.348-.58-1.375-.047-2.261.603-2.298 1.904v.221c0 1.205.372 1.68.984 1.99.621.358 1.932.451 3.651.358zm-2.052 14.271c-1.819.018-4.471-.297-6.252-.813l.008-3.652c1.2.135 3.218.359 4.801.392 1.126.028 2.147-.033 2.734-.429.518-.363.765-.923.765-1.847V6.839l-1.568.003c-5.317-.01-7.889-1.254-7.989-5.283V.904c.002-2.969 1.752-5.375 5.353-5.392 1.773.004 3.116.367 4.31 1.32V-4.23h4.994V7.922c-.004 4.552-2.945 6.309-7.156 6.349" style="fill:#003376;fill-opacity:1;fill-rule:nonzero;stroke:none" transform="translate(130.846 38.692)"/></g><g style="fill:#003376;fill-opacity:1"><path d="M0 0v11.269c0 1.125-.045 1.928-.458 2.383-.544.61-1.065.738-2.142.655-.944-.071-2.082-.548-2.791-.928V0h-5.139v18.242h4.748v-1.469c1.53 1.064 3.14 1.711 5.253 1.721 4.119-.006 5.646-2.881 5.646-6.008V0z" style="fill:#003376;fill-opacity:1;fill-rule:nonzero;stroke:none" transform="translate(94.109 34.469)"/></g><path d="M0 0c-.673-.391-1.502-.6-2.452-.6-.978 0-1.682.204-2.187.739-.708.769-.916 1.541-.943 3.965V5.68c0 3.119.527 4.502 2.546 4.941.935.209 2.377.023 3.044-.123zm0 20.103v-5.805c-.659.151-1.942.261-2.923.261-2.261-.005-4.089-.602-5.301-1.729-1.508-1.406-2.405-3.227-2.452-6.931l-.002-2.93c0-5.178 2.416-7.481 6.566-7.485 1.844 0 3.046.422 4.222 1.325v-1.047h5.008v24.341z" style="fill:#003376;fill-opacity:1;fill-rule:nonzero;stroke:none" transform="translate(113.134 38.715)"/><g style="fill:#003376;fill-opacity:1"><path d="M0 0c-.674-.391-1.5-.6-2.453-.6-.975 0-1.682.204-2.18.739-.715.769-.924 1.541-.949 3.965V5.68c0 3.119.525 4.502 2.541 4.941.941.209 2.384.023 3.049-.123zm0 20.103v-5.805c-.657.151-1.94.261-2.924.261-2.264-.005-4.088-.602-5.303-1.729-1.51-1.406-2.408-3.227-2.449-6.931-.004-.137-.004-2.795-.004-2.93 0-5.178 2.422-7.481 6.564-7.485 1.85 0 3.047.422 4.221 1.325 0-.946.008-1.047.008-1.047h5.002v24.341z" style="fill:#003376;fill-opacity:1;fill-rule:nonzero;stroke:none" transform="translate(162.34 38.715)"/></g><g style="fill:#003376;fill-opacity:1"><path d="M0 0c-2.149.247-4.5-.7-5.33-1.549v1.334h-5.022v-18.242h5.112v13.174c1.127.689 3.093 1.247 5.232 1.107z" style="fill:#003376;fill-opacity:1;fill-rule:nonzero;stroke:none" transform="translate(150.082 52.925)"/></g><g style="fill:#003376;fill-opacity:1"><path d="M0 0v3.559l-4.096-.006v1.349c0 .651 0 1.034.285 1.318.4.403 2.135.341 3.836.239v3.449c-.781.17-2.398.37-3.684.37-3.515 0-5.539-1.106-5.548-5.635v-1.09h-2.819V0h2.813v-14.681h5.117V0z" style="fill:#003376;fill-opacity:1;fill-rule:nonzero;stroke:none" transform="translate(215.512 49.142)"/></g><g style="fill:#003376;fill-opacity:1"><path d="M0 0c.027 2.7 1.349 3.784 3.084 3.792C4.867 3.784 6.125 2.638 6.178 0zm10.914-2.233c.008 3.851-.264 5.291-1.693 7.207-1.049 1.416-3.12 2.662-6.02 2.662-4.607 0-8.166-2.533-8.199-8.469v-1.589c0-6.163 3.189-8.707 8.222-8.711 2.731 0 4.999.398 7.071 1.177 0 1.157-.004 3.788-.004 3.788-1.895-.44-4.799-1.018-6.934-.788C.822-6.682.066-5.264-.016-3.293H10.9c.004.267.014.808.014 1.06" style="fill:#003376;fill-opacity:1;fill-rule:nonzero;stroke:none" transform="translate(221.625 45.337)"/></g><g style="fill:#003376;fill-opacity:1"><path d="M0 0c-.254.023-.451.055-.594.188-.098.101-.154.216-.154.472v19.457h-5.45L-6.194.066c0-1.863.379-2.71 1.121-3.427.733-.713 1.86-1.014 3.122-1.147 2.421-.242 6.92-.195 9.402.182v4.31z" style="fill:#003376;fill-opacity:1;fill-rule:nonzero;stroke:none" transform="translate(184.797 38.836)"/></g><path d="M200.682 34.444h-4.999v17.819h4.999zm0 19.675h-4.999v4.078h4.999z" style="fill:#003376;fill-opacity:1;fill-rule:nonzero;stroke:none"/></g><path d="m227.202 66.38 5.318-10.455 12.245 23.915v.001z" style="fill:url(#c);stroke:none" transform="matrix(4.20323 0 0 -4.20323 -139.434 339.205)"/></svg>