<svg xmlns="http://www.w3.org/2000/svg" width="172" height="19" fill="none" viewBox="0 0 172 19"><path fill="#6523e3" d="M106.321.341h-9.11v18.27h7.343c2.501 0 5.917-1.18 5.917-5.018 0-2.039-1.029-3.194-2.317-3.84 2.16-.485 4.036-1.768 4.036-4.559 0-3.882-3.348-4.853-5.869-4.853m-2.491 14.708h-2.495v-4.206l2.495.027c1.307 0 2.491.596 2.491 2.089 0 1.494-1.184 2.09-2.491 2.09m1.754-6.974h-4.249V3.901h4.249c1.655 0 2.403.9 2.403 2.087 0 1.186-.748 2.087-2.403 2.087m66.109 6.474c0 1.822-1.6 4.423-5.797 4.423-4.504 0-5.79-2.775-5.917-4.266l3.785-.68c.261 1.392 1.496 1.6 2.133 1.602.641.001 1.619-.168 1.619-1.079 0-2.339-7.746-.687-7.746-6.708 0-1.037.44-4.688 6.127-4.688 4.964 0 5.921 3.165 6.105 4.654l-3.773.698c-.165-1.391-.972-2.038-2.332-2.038-.99 0-1.957.413-1.957 1.374-.002 2.771 7.753.843 7.753 6.708M0 5.746C0 3.516 1.35 0 7.86 0c6.884 0 7.663 5.584 7.663 5.584l-3.808 1.07c-.304-1.812-1.78-2.749-3.856-2.749-2.432 0-3.613.705-3.613 1.92 0 3.744 11.132.697 11.132 7.808 0 3.07-2.456 5.324-7.124 5.324-4.297 0-6.187-2.941-6.762-4.655l3.898-1.085c.485 1.019 1.286 1.835 3.087 1.835 1.66 0 2.653-.664 2.653-1.533C11.132 10.34 0 13.229 0 5.746m139.158-2.23V5s-1.616-1.846-4.501-1.846-6.408 2.28-6.408 7.91c0 5.628 3.632 7.909 6.607 7.909 2.885 0 4.501-1.847 4.501-1.847v1.485h3.979V3.516zM135.84 15.04c-2.089 0-3.413-1.467-3.413-3.978 0-2.51 1.324-3.978 3.413-3.978 2.09 0 3.414 1.468 3.414 3.978s-1.324 3.978-3.414 3.978M51.166.341v4.66s-1.616-1.847-4.501-1.847-6.408 2.28-6.408 7.91c0 5.628 3.631 7.909 6.606 7.909 2.885 0 4.501-1.847 4.501-1.847v1.485h3.98V.34zm-3.317 14.7c-2.09 0-3.414-1.467-3.414-3.978 0-2.51 1.324-3.978 3.414-3.978s3.413 1.468 3.413 3.978-1.324 3.978-3.413 3.978m-23.345 3.201c-.467.283-1.8.55-2.774.55-3.27 0-5.07-2.136-5.07-6.583V.341h4.247v3.177h3.373V7.09h-3.373v5.25c0 1.712.902 2.712 2.326 2.712.66 0 1.271-.282 1.271-.282zm102.717-7.694c0-3.823-2.964-7.39-7.335-7.39-4.977 0-7.597 3.32-7.597 7.921 0 4.565 2.857 7.921 7.789 7.921 4.249 0 6.622-2.713 7.246-5.118l-3.948-1.11c-.325 1.12-1.359 2.287-3.298 2.287-1.32 0-2.41-.586-3.036-1.65zm-10.745.133c0-2.482 1.266-3.9 3.41-3.9 1.468 0 2.584.716 3.098 2.07zm-83.928 4.36c1.424 0 2.326-.999 2.326-2.71V3.516h4.247v8.815c0 4.345-2.175 6.642-6.572 6.642-4.396 0-6.572-2.297-6.572-6.642V3.516h4.248v8.815c-.002 1.711.9 2.71 2.323 2.71m46.964-7.956c-1.423 0-2.325 1-2.325 2.71v8.816h-4.248V9.795c0-4.344 2.176-6.641 6.572-6.641 4.397 0 6.572 2.297 6.572 6.641v8.816h-4.247V9.795c0-1.71-.9-2.71-2.324-2.71m72.301 0c-1.423 0-2.325 1-2.325 2.71v8.816h-4.248V9.795c0-4.344 2.176-6.641 6.572-6.641 4.397 0 6.572 2.297 6.572 6.641v8.816h-4.247V9.795c.001-1.71-.9-2.71-2.324-2.71m-80.186 3.463c0-3.823-2.964-7.39-7.335-7.39-4.977 0-7.596 3.32-7.596 7.921 0 4.565 2.856 7.921 7.788 7.921 4.249 0 6.622-2.713 7.246-5.118l-3.948-1.11c-.325 1.12-1.359 2.287-3.297 2.287-1.32 0-2.411-.586-3.037-1.65zm-10.746.133c0-2.482 1.266-3.9 3.41-3.9 1.468 0 2.584.716 3.099 2.07zm34.579 7.56c-.467.282-1.8.549-2.774.549-3.27 0-5.07-2.135-5.07-6.582V.338h4.247v3.178h3.373v3.572h-3.373v5.25c0 1.711.902 2.711 2.326 2.711.66 0 1.271-.282 1.271-.282z"/></svg>