<svg xmlns="http://www.w3.org/2000/svg" xml:space="preserve" viewBox="0 0 1000 215.8"><path d="M676.8 0h-15.5c-.6 0-1 .5-1 1v32.6c-6.6-6.6-15-9.9-23.9-9.9-19 0-34.5 15.7-34.5 38.6 0 22.5 16.3 38.5 34.9 38.5 9.2 0 17-3.3 23.4-9.7v6.7c0 .6.5 1 1 1h15.5c.6 0 1-.5 1-1V1c.1-.5-.4-1-.9-1m-37.2 83.9c-11.8 0-20.2-9.2-20.2-21.8 0-12 7.8-21.7 20.2-21.7 11.9 0 20.7 8.7 20.7 21.5 0 13.5-9.1 22-20.7 22m-45.1-21.8c0 21.2-16.4 38.6-38.8 38.6-21.2 0-38.1-17-38.1-38.5 0-22.2 17.9-38.6 37.9-38.6 21.5.1 39 16.9 39 38.5m-59.4 0c0 12.7 8.3 21.8 20.8 21.8 11.9 0 21.2-8.5 21.2-21.6 0-12.7-8.6-21.8-21.2-21.8-12.1 0-20.8 9.2-20.8 21.6M511.8 140h-15.5c-.6 0-1 .5-1 1v7c-6.6-6.6-15-9.9-23.9-9.9-19 0-34.5 15.7-34.5 38.6 0 22.5 16.3 38.5 34.9 38.5 9.2 0 17-3.3 23.4-9.7v6.7c0 .6.5 1 1 1h15.5c.6 0 1-.5 1-1V141c.1-.6-.4-1-.9-1m-37.2 58.3c-11.8 0-20.2-9.2-20.2-21.8 0-12 7.8-21.7 20.2-21.7 11.9 0 20.7 8.7 20.7 21.5-.1 13.5-9.1 22-20.7 22m-139.9-84.1h16.9c.4 0 .8.3 1 .7l22.7 68.4 22.9-68.4c.1-.4.5-.7 1-.7h16.6c.5 0 .9.4 1 .8l16.3 97c.1.6-.4 1.2-1 1.2H416c-.5 0-.9-.4-1-.8l-10.5-61.8-20.9 61.9c-.1.4-.5.7-1 .7h-15.1c-.4 0-.8-.3-1-.7L346 150.6l-10.7 61.8c-.1.5-.5.8-1 .8H318c-.6 0-1.1-.6-1-1.2l16.8-97c0-.5.4-.8.9-.8m266.4 0h15.5c.7 0 1.3.6 1.3 1.3v54.6l26.6-29.5c.4-.4.9-.7 1.5-.7h19.8c.9 0 1.3 1 .7 1.7l-29.1 32.6c-.5.5-.5 1.3 0 1.8l32.9 35.5c.6.6.1 1.7-.7 1.7H650q-.9 0-1.5-.6l-30.6-33.1v32.4c0 .7-.6 1.3-1.3 1.3h-15.5c-.7 0-1.3-.6-1.3-1.3v-96.3c-.1-.8.5-1.4 1.3-1.4m216.5 49v49.1c0 .6-.5 1-1 1h-15.4c-.6 0-1-.5-1-1v-33.6c0-14.5-1.3-23.7-13.2-23.7-5.4 0-10.1 2.5-13.2 7-4 5.9-3.8 12.5-3.8 20.1v30.2c0 .6-.5 1-1 1h-15.5c-.6 0-1-.5-1-1V141c0-.6.5-1 1-1h14.3c.6 0 1 .5 1 1v7c2-2 4.2-3.7 6.5-5.1 4-2.2 8.2-3.8 12.4-4.4.2 0 .5-.1.8-.1.4-.1.9-.1 1.3-.2.9-.1 1.9-.1 2.9-.1h.1c13.4 0 24.8 9.4 24.8 25.1m79.7-23.2h14.9c.7 0 1.3.6 1.3 1.3v70.5c0 .7-.6 1.3-1.3 1.3h-14.9c-.7 0-1.3-.6-1.3-1.3v-70.5c0-.7.6-1.3 1.3-1.3m15.4-10.6h-16c-.4 0-.7-.3-.7-.7v-13.9c0-.4.3-.7.7-.7h16c.4 0 .7.3.7.7v13.9c0 .4-.3.7-.7.7m-168 45.7c-1.3-20.5-18.1-37-38.7-37-23.7-.1-38.2 18.4-38.2 38.5l.2.1h-.2c0 21.5 15 38.5 38.3 38.5 14.8 0 24.9-4.6 32.7-14.8.5-.7.3-1.6-.5-2l-13.1-6.2c-.5-.2-1.1-.1-1.5.2-4.9 4.5-10 6.5-17.5 6.5 0 0-17.6 1-20.5-16.9h57.7c.7 0 1.3-.6 1.3-1.3 0-1.6.1-2.6 0-5.6m-57.6-7.7c3.5-9.2 10.3-13.8 19.1-13.8 9.5 0 17.1 5.2 19.5 13.8zm312.8 7.7c-1.3-20.5-18.1-37-38.7-37-23.7-.1-38.2 18.4-38.2 38.5l.2.1h-.2c0 21.5 15 38.5 38.3 38.5 14.8 0 24.9-4.6 32.7-14.8.5-.7.3-1.6-.5-2l-13.1-6.2c-.5-.2-1.1-.1-1.5.2-4.9 4.5-10 6.5-17.5 6.5 0 0-17.6 1-20.5-16.9h57.7c.7 0 1.3-.6 1.3-1.3.1-1.6.2-2.6 0-5.6m-57.6-7.7c3.5-9.2 10.3-13.8 19.1-13.8 9.5 0 17.1 5.2 19.4 13.8zM510.2 62.1c0 21.2-16.4 38.6-38.8 38.6-21.2 0-38.1-17-38.1-38.5 0-22.2 17.9-38.6 37.9-38.6 21.5.1 39 16.9 39 38.5m-59.4 0c0 12.7 8.3 21.8 20.8 21.8 11.9 0 21.2-8.5 21.2-21.6 0-12.7-8.6-21.8-21.2-21.8-12.1 0-20.8 9.2-20.8 21.6M415.6 99h-16.4c-.6 0-1.1-.4-1.3-.9l-22.6-68.2-22.9 68.2c-.2.5-.7.9-1.3.9H335c-.7 0-1.2-.5-1.3-1.1L317.5 1.6c-.1-.9.5-1.6 1.4-1.6h15.5c.7 0 1.2.5 1.3 1.1l10.4 61.5L366.9.9c.2-.5.7-.9 1.3-.9h14.6c.6 0 1.1.4 1.3.9l20.5 61.7 10.7-61.5c.1-.6.7-1.1 1.3-1.1h15.6c.8 0 1.5.8 1.3 1.6l-16.6 96.3c-.1.6-.7 1.1-1.3 1.1M592 200.3c-7.7 10.2-17.8 14.8-32.7 14.8-23.3 0-38.3-17-38.3-38.5s15-38.5 38.3-38.5c14.8 0 24.9 4.6 32.7 14.8.5.7.3 1.6-.5 2l-13.1 6.2c-.5.2-1.1.1-1.5-.2-4.9-4.5-10-6.5-17.5-6.5 0 0-21-1.2-21 22.3s21 22.3 21 22.3c7.5 0 12.6-2 17.5-6.5.4-.4 1-.5 1.5-.2l13.1 6.2c.7.2 1 1.1.5 1.8m293.7-1.7v13.6c0 .6-.4 1-1 1h-56.9c-.8 0-1.3-.8-.9-1.5l32.2-56.1h-26.9c-.6 0-1-.5-1-1V141c0-.6.5-1 1-1h53.4c.8 0 1.3.8.9 1.5l-32.2 56.1h30.4c.5 0 1 .5 1 1M170.5 39.9c1.9 1.9 2.9 4.4 2.9 7.1s-1.1 5.2-2.9 7.1l-159 159c-1.9 1.9-4.8 2.5-7.3 1.5S0 211.1 0 208.4V7.7C0 4.6 1.9 1.8 4.8.6s6.2-.5 8.4 1.7l47.6 47.6c3.2 3.2 8.4 3.2 11.7 0L119.4 3c3.9-3.9 10.3-3.9 14.2 0zM82.7 175.2c-1.9-1.9-2.9-4.4-2.9-7.1s1.1-5.2 2.9-7.1l159-159c1.9-1.9 4.8-2.5 7.3-1.5s4.2 3.5 4.2 6.2v200.7c0 3.1-1.9 5.9-4.8 7.1s-6.2.5-8.4-1.7l-47.6-47.6c-3.2-3.2-8.4-3.2-11.7 0l-46.9 46.9c-3.9 3.9-10.3 3.9-14.2 0z" style="fill:#0024ff"/></svg>